<svg height="512pt" viewBox="0 0 512.12523 512" width="512pt" xmlns="http://www.w3.org/2000/svg"><path d="m433.515625 200.523438-122.367187 67.070312-90.625 49.664062h-.082032l-.429687.257813c-13.054688 1.449219-27.644531 9.046875-32.679688 44.628906-8.621093 61.867188-25.941406 141.484375-51.796875 141.484375-3.53125.007813-7.027344-.628906-10.328125-1.878906-18.773437-7.167969-26.109375-33.707031-30.976562-51.625-7.160157-28.472656-12.066407-57.460938-14.675781-86.699219-3.648438-27.136719-12.394532-53.339843-25.769532-77.226562-12.375-23.210938-27.90625-43.949219-37.632812-68.695313-21.847656-55.722656-26.964844-130.386718 19.539062-174.933594 22.394532-20.613281 51.421875-32.539062 81.835938-33.621093 10.636718-.597657 21.300781-.082031 31.828125 1.535156.085937-.082031.257812 0 .429687 0 23.015625 3.441406 44.84375 12.464844 63.570313 26.285156 2.988281 2.21875 5.804687 4.605469 8.535156 7.082031 1.449219-1.367187 2.988281-2.644531 4.523437-3.925781 23.652344-18.765625 52.613282-29.601562 82.773438-30.976562 36.191406-2.917969 71.984375 9.246093 98.902344 33.621093 41.898437 40.191407 41.898437 104.789063 25.425781 157.953126zm0 0" fill="#cad9fc"/><path d="m416.449219 200.523438-105.300781 67.070312-77.480469 49.324219s-6.144531.085937-13.144531.339843h-.082032c-5.460937.171876-11.4375.429688-15.703125.683594-13.480469 1.023438-29.441406 8.621094-34.472656 44.203125-7.851563 56.320313-22.957031 127.402344-45.058594 139.605469-18.773437-7.167969-26.109375-33.707031-30.976562-51.625-7.160157-28.472656-12.066407-57.460938-14.675781-86.699219-3.648438-27.136719-12.394532-53.339843-25.769532-77.226562-12.375-23.210938-27.90625-43.949219-37.632812-68.695313-21.847656-55.722656-26.964844-130.386718 19.539062-174.933594 22.394532-20.613281 51.421875-32.539062 81.835938-33.621093 21.164062 1.195312 42.070312-1.875 60.5 7.765625 9.730468 5.035156 18.773437 2.730468 26.796875 10.070312 2.730469-2.476562 5.546875 12.203125 8.53125 9.984375 1.539062-1.195312 3.160156-2.304687 4.78125-3.414062 1.792969 1.28125 3.496093 2.730469 5.800781 4.609375.855469.679687 1.621094 1.363281 2.476562 1.960937 23.652344-18.765625 52.613282-29.601562 82.773438-30.976562 30.414062 1.082031 59.441406 13.007812 81.832031 33.621093 41.902344 40.191407 41.902344 104.789063 25.429688 157.953126zm0 0" fill="#e8edfc"/><path d="m493.59375 327.5c-6.882812 14.542969-14.601562 28.675781-23.128906 42.324219-8.261719 14.691406-13.648438 30.824219-15.871094 47.53125-1.597656 17.988281-4.625 35.824219-9.042969 53.332031-3.5 12.886719-9.132812 32.941406-25.429687 32.941406-3.839844 0-7.425782-2.902344-10.667969-7.851562-10.070313-15.277344-17.152344-50.347656-21.164063-79.191406-2.816406-19.625-11.175781-25.257813-18.6875-26.792969-.851562-.171875-1.707031-.339844-2.558593-.425781h-.085938c-4.871093.355468-9.4375 2.515624-12.800781 6.058593-4.933594 6.011719-7.882812 13.402344-8.445312 21.160157-5.292969 38.058593-15.960938 87.042968-31.917969 87.042968-5.949219-.0625-11.507813-2.984375-14.933594-7.851562-5.0625-7.609375-8.601563-16.128906-10.410156-25.089844-4.863281-17.40625 10.070312-35.414062 8.023437-53.332031-2.261718-16.699219-7.648437-32.824219-15.871094-47.53125-8.519531-13.664063-16.269531-27.796875-23.210937-42.324219-13.398437-34.21875-16.554687-80.214844 12.03125-107.605469 11.691406-11.179687 9.8125-17.75 25.855469-19.96875 4.210937-.585937 8.460937-.871093 12.714844-.851562 16.222656-.082031 32.179687 4.128906 46.25 12.199219 4.539062 2.703124 8.796874 5.847656 12.714843 9.386718 12.867188-11.308594 28.828125-18.503906 45.824219-20.648437 9.722656-1.367188 19.601562-1.195313 29.269531.511719 14.8125 2.355468 28.578125 9.101562 39.507813 19.371093 28.671875 27.390625 25.515625 73.386719 12.035156 107.605469zm0 0" fill="#e8edfc"/><path d="m467.992188 327.5c-6.878907 14.542969-14.601563 28.675781-23.125 42.324219-8.261719 14.691406-13.648438 30.824219-15.871094 47.53125-1.601563 17.988281-4.625 35.824219-9.046875 53.332031-1.878907 8.953125-5.4375 17.46875-10.496094 25.089844-10.070313-15.277344-17.152344-50.347656-21.164063-79.191406-2.816406-19.625-11.175781-25.257813-18.6875-26.792969-.871093-.191407-1.753906-.332031-2.644531-.425781-1.46875 0-2.910156-.28125-4.359375-.394532-4.089844-.316406-8.199218-.398437-12.296875-.238281-4.011719.007813-8.011719.402344-11.945312 1.1875-1.785157.394531-3.507813 1.03125-5.121094 1.882813-3.429687 1.992187-6.238281 4.894531-8.109375 8.390624-1.21875 2.214844-2.199219 4.550782-2.925781 6.972657-.453125 1.441406-.851563 2.910156-1.152344 4.382812-.453125 1.648438-.738281 3.332031-.851563 5.035157-4.011718 28.84375-11.09375 63.914062-21.25 79.191406-5.066406-7.609375-8.601562-16.128906-10.410156-25.089844-4.421875-17.507812-7.445312-35.34375-9.042968-53.332031-2.261719-16.699219-7.648438-32.824219-15.875-47.53125-8.519532-13.664063-16.265626-27.796875-23.210938-42.324219-13.394531-34.21875-16.554688-80.214844 12.035156-107.605469 11.847656-11.007812 26.871094-17.992187 42.921875-19.96875 17.238281 2.390625 38.902344-3.90625 51.363281 7.441407 3.921876-3.585938 2.90625 6.554687 7.601563 3.90625 4.507813 2.707031 8.738281 5.851562 12.628906 9.386718 12.867188-11.308594 28.828125-18.503906 45.824219-20.648437 1.234375.082031 2.460938.25 3.667969.511719 14.8125 2.355468 28.578125 9.101562 39.511719 19.371093 28.671874 27.390625 25.511718 73.386719 12.03125 107.605469zm0 0" fill="#fff"/><path d="m53.785156 286.199219c13.375 23.886719 22.121094 50.089843 25.769532 77.226562 2.609374 29.238281 7.515624 58.226563 14.675781 86.699219 4.867187 17.917969 12.203125 44.457031 30.976562 51.625 3.300781 1.25 6.796875 1.886719 10.328125 1.878906 3.886719-.207031 7.566406-1.828125 10.339844-4.558594-15.113281-9.582031-21.640625-32.726562-26.042969-48.945312-7.160156-28.472656-12.066406-57.460938-14.675781-86.699219-3.652344-27.136719-12.394531-53.339843-25.773438-77.226562-12.371093-23.210938-27.902343-43.949219-37.632812-68.695313-21.84375-55.722656-26.964844-130.386718 19.542969-174.933594 21.253906-19.597656 48.582031-31.320312 77.433593-33.203124h-.539062c-6.871094-.601563-13.773438-.742188-20.660156-.417969-30.414063 1.082031-59.441406 13.007812-81.835938 33.621093-46.503906 44.546876-41.386718 119.210938-19.539062 174.933594 9.726562 24.746094 25.257812 45.484375 37.632812 68.695313zm0 0" fill="#fff"/><path d="m16.742188 220.621094c-14.683594-35.839844-19.625-74.925782-14.320313-113.289063 2.914063-18.453125 9.671875-36.085937 19.832031-51.765625 3.554688-5.15625 7.496094-10.039062 11.792969-14.597656 17.304687-18.085938 39.496094-30.75 63.871094-36.449219 23.988281-5.636719 48.957031-5.667969 72.960937-.09375 24.230469 5.320313 46.703125 16.730469 65.296875 33.152344l-11.503906 12.570313c-33.9375-28.691407-79.523437-39.46875-122.71875-29.011719-21.160156 4.917969-40.429687 15.890625-55.464844 31.570312-7.410156 7.726563-13.433593 16.667969-17.808593 26.4375-4.613282 9.835938-7.773438 20.285157-9.386719 31.027344-4.785157 35.308594-.183594 71.253906 13.335937 104.21875zm0 0" fill="#fff"/><g fill="#428dff"><path d="m8.839844 125.6875c4.589844.304688 8.640625-2.988281 9.273437-7.546875.238281-2.671875.617188-5.332031 1.136719-7.96875 1.632812-10.742187 4.808594-21.191406 9.429688-31.027344 4.371093-9.796875 10.402343-18.765625 17.824218-26.511719 15.042969-15.667968 34.3125-26.621093 55.46875-31.53125 43.183594-10.449218 88.761719.328126 122.691406 29.011719 3.351563 3.304688 54.5625 52.449219 99.625 52.449219 4.714844 0 8.535157-3.824219 8.535157-8.535156 0-4.714844-3.820313-8.535156-8.535157-8.535156-29.960937 0-65.902343-28.328126-80.808593-41.316407 48.09375-37.007812 125.285156-35.722656 167.253906 4.554688 32.273437 30.953125 41.429687 83.84375 25.121094 142.457031-24.433594-2.605469-48.960938 3.988281-68.789063 18.5-35.121094-26.863281-89.675781-25.597656-120.558594 4.027344-26.390624 25.292968-28.507812 63.445312-20.480468 96.425781-21.289063 3.894531-34.320313 20.855469-38.558594 50.816406-14.839844 106.105469-34.878906 134.136719-43.402344 134.136719-18.773437 0-26.90625-24.355469-33.082031-47.257812-7.019531-28.027344-11.839844-56.558594-14.421875-85.332032-3.695312-28.234375-12.761719-55.496094-26.71875-80.316406-4.574219-8.601562-9.601562-16.894531-14.507812-24.917969-8.796876-13.617187-16.40625-27.960937-22.75-42.878906-3.921876-10.253906-7.203126-20.746094-9.8125-31.410156-1.128907-4.535157-5.699219-7.316407-10.246094-6.238281-4.546875 1.074218-7.382813 5.609374-6.359375 10.171874 2.792969 11.445313 6.308593 22.703126 10.53125 33.707032 6.699219 15.820312 14.742187 31.035156 24.046875 45.480468 4.734375 7.824219 9.632812 15.914063 13.992187 24.105469 12.929688 22.917969 21.355469 48.09375 24.824219 74.171875 2.636719 29.675782 7.640625 59.089844 14.96875 87.964844 5.621094 20.90625 16.109375 59.816406 49.535156 59.816406 26.214844 0 46.488282-50.074218 60.246094-148.820312 4.632812-32.707032 18.773438-35.917969 25.882812-36.789063.28125 0 .511719.113281.785157.15625.476562 1.320313.9375 2.660157 1.441406 3.949219 4.195313 9.921875 9.234375 19.464844 15.070313 28.519531 2.910156 4.8125 5.835937 9.632813 8.53125 14.660157 7.746093 13.738281 12.796874 28.828124 14.882812 44.457031 1.5 15.054687 3.808594 30.015625 6.921875 44.816406.050781.199219 0 .402344.074219.597656.078125.199219.136718.351563.207031.546875.664063 2.886719 1.269531 5.777344 2.074219 8.644532 3.410156 12.742187 10.5625 39.253906 33.652344 39.253906 7.433593 0 27.171874 0 40.320312-94.40625 2.425781-17.066406 8.851562-19.234375 12.679688-19.789063l1.058593.191407c2.5625.527343 9.386719 1.917968 11.949219 19.625 13.125 94.386718 32.851562 94.386718 40.277344 94.386718 23.039062 0 29.933594-25.523437 33.644531-39.175781 4.546875-17.957031 7.660156-36.242187 9.3125-54.691406 2.105469-15.644531 7.171875-30.746094 14.933594-44.492188 2.6875-5.078125 5.628906-9.941406 8.53125-14.796875 5.796875-9.011718 10.800781-18.511718 14.949219-28.390625 14.320312-36.34375 18.144531-86.136719-14.054688-116.90625-9.824219-9.238281-21.785156-15.898437-34.8125-19.386719 17.464844-64.230468 6.5-122.804687-30.132812-157.9375-49.28125-47.316406-137.121094-48.289062-192.066407-3.582031-17.429687-13.871093-37.796875-23.578125-59.546875-28.375-24.007812-5.566406-48.972656-5.523437-72.960937.121094-24.371094 5.691406-46.5625 18.34375-63.871094 36.421875-4.296875 4.558594-8.238281 9.441406-11.792969 14.597656-10.160156 15.679688-16.917968 33.3125-19.832031 51.765625-.488281 2.96875-1.082031 5.972657-1.273437 8.914063-.296876 2.285156.359374 4.589844 1.816406 6.375 1.453125 1.785156 3.578125 2.894531 5.875 3.066406zm476.808594 198.738281c-3.808594 8.976563-8.375 17.609375-13.65625 25.804688-3.105469 5.121093-6.210938 10.242187-9.027344 15.59375-8.777344 15.640625-14.488282 32.8125-16.835938 50.59375-1.566406 17.554687-4.507812 34.957031-8.796875 52.050781-3.523437 12.878906-8.023437 26.625-17.03125 26.625-3.414062-1.050781-14.96875-17.960938-23.5625-79.734375-2.824219-19.628906-11.375-31.070313-25.464843-33.945313-1.109376-.242187-2.230469-.429687-3.359376-.554687-.316406.011719-.628906.039063-.941406.085937-.328125-.050781-.65625-.082031-.988281-.09375-16.066406 1.789063-25.738281 13.394532-28.722656 34.507813-8.609375 61.816406-20.214844 78.71875-23.425781 79.734375-9.242188 0-13.710938-13.738281-17.203126-26.675781-4.269531-17.097657-7.203124-34.5-8.769531-52.050781-2.320312-17.785157-8.023437-34.960938-16.8125-50.597657-2.816406-5.289062-5.894531-10.382812-8.976562-15.460937-5.304688-8.222656-9.898438-16.878906-13.730469-25.882813-12.238281-31.214843-16.042969-73.453125 9.992188-98.386719 26.035156-24.9375 75.027343-24.507812 102.894531.902344 2.507812 2.441406 34.699219 33.136719 63.546875 33.136719 4.714844 0 8.535156-3.820313 8.535156-8.535156 0-4.710938-3.820312-8.53125-8.535156-8.53125-14.640625 0-33.183594-12.65625-44.421875-21.933594 17.832031-11.523437 39.371093-15.867187 60.277343-12.148437 13.140626 2.074218 25.351563 8.042968 35.066407 17.132812 26.085937 24.976562 21.671875 68.558594 9.949219 98.363281zm0 0"/><path d="m5.144531 158.878906c.503907.277344 1.042969.480469 1.605469.609375.503906.1875 1.035156.300781 1.578125.332031.566406.039063 1.136719.039063 1.707031 0 2.238282-.308593 4.292969-1.414062 5.785156-3.117187 2.832032-3.535156 2.429688-8.664063-.921874-11.714844-.851563-.710937-1.828126-1.261719-2.875-1.621093-1.046876-.390626-2.15625-.582032-3.269532-.5625-2.277344.105468-4.421875 1.097656-5.972656 2.765624-1.53125 1.773438-2.289062 4.085938-2.109375 6.425782.257813 2.300781 1.355469 4.425781 3.082031 5.972656zm0 0"/><path d="m84.820312 73.964844c4.101563-2.125 5.765626-7.128906 3.757813-11.289063-2.011719-4.160156-6.96875-5.964843-11.183594-4.070312-.570312.28125-59.449219 29.644531-36.539062 113.757812 1.242187 4.546875 5.9375 7.226563 10.484375 5.984375 4.546875-1.238281 7.226562-5.933594 5.984375-10.480468-19.054688-69.855469 25.472656-92.886719 27.496093-93.902344zm0 0"/><path d="m280.933594 235.339844c-13.089844 7.421875-33.945313 32.714844-19.140625 75.316406.996093 2.886719 3.457031 5.019531 6.457031 5.597656 3 .574219 6.078125-.496094 8.074219-2.808594 1.992187-2.3125 2.597656-5.515624 1.585937-8.398437-13.652344-39.253906 10.328125-54.195313 11.503906-54.894531 4.089844-2.339844 5.507813-7.554688 3.167969-11.648438-2.34375-4.089844-7.558593-5.507812-11.648437-3.164062zm0 0"/><path d="m119.492188 51.359375c0 4.714844-3.820313 8.535156-8.535157 8.535156-4.710937 0-8.53125-3.820312-8.53125-8.535156 0-4.710937 3.820313-8.53125 8.53125-8.53125 4.714844 0 8.535157 3.820313 8.535157 8.53125zm0 0"/><path d="m315.757812 230.5625c0 4.710938-3.820312 8.53125-8.535156 8.53125-4.710937 0-8.53125-3.820312-8.53125-8.53125 0-4.714844 3.820313-8.535156 8.53125-8.535156 4.714844 0 8.535156 3.820312 8.535156 8.535156zm0 0"/></g></svg>