<svg height="504pt" viewBox="0 0 504 504.06053" width="504pt" xmlns="http://www.w3.org/2000/svg"><g fill="#fac176"><path d="m251.832031 134.3125v50.359375c-.027343 9.261719-7.527343 16.757813-16.785156 16.789063h-41.96875c-9.257813-.03125-16.757813-7.527344-16.785156-16.789063v-58.753906c-.4375-9.03125 2.960937-17.828125 9.351562-24.21875 6.394531-6.394531 15.191407-9.792969 24.222657-9.355469 11.140624-.03125 21.832031 4.378906 29.710937 12.253906 7.878906 7.878906 12.289063 18.574219 12.253906 29.714844zm0 0"/><path d="m176.292969 133.386719v42.890625c-.027344 9.261718-7.527344 16.761718-16.789063 16.789062h-33.570312c-9.261719-.027344-16.761719-7.527344-16.789063-16.789062v-50.359375c-.386719-8.039063 2.636719-15.867188 8.324219-21.554688 5.691406-5.691406 13.519531-8.714843 21.558594-8.324219 9.898437-.003906 19.390625 3.933594 26.382812 10.941407 6.992188 7.007812 10.90625 16.507812 10.882813 26.40625zm0 0"/><path d="m109.144531 132.464844v35.421875c-.027343 9.257812-7.527343 16.757812-16.785156 16.785156h-25.179687c-9.261719-.027344-16.761719-7.527344-16.789063-16.785156v-41.96875c-.335937-7.019531 2.308594-13.855469 7.277344-18.824219 4.972656-4.972656 11.804687-7.613281 18.828125-7.28125 18.027344.011719 32.640625 14.625 32.648437 32.652344zm0 0"/><path d="m50.390625 133.050781v30.46875c.171875 2.222657-1.476563 4.164063-3.691406 4.367188h-13.09375c-9.261719-.027344-16.761719-7.527344-16.789063-16.789063v-22.410156c-.476562-4.316406.863282-8.640625 3.695313-11.933594 2.832031-3.292968 6.90625-5.265625 11.246093-5.441406 5.121094.0625 9.953126 2.398438 13.175782 6.378906 3.574218 4.316406 5.507812 9.757813 5.457031 15.359375zm0 0"/></g><path d="m495.242188 67.164062v58.753907c0 4.636719-3.757813 8.394531-8.390626 8.394531v-5.625c.472657-4.316406-.863281-8.640625-3.695312-11.933594-2.832031-3.292968-6.90625-5.265625-11.246094-5.441406-5.125.0625-9.953125 2.398438-13.179687 6.378906-3.570313 4.316406-5.503907 9.757813-5.453125 15.359375v-7.132812c.332031-7.019531-2.308594-13.855469-7.277344-18.824219-4.972656-4.972656-11.808594-7.613281-18.828125-7.28125-18.027344.011719-32.640625 14.625-32.648437 32.652344v-6.546875c.386718-8.039063-2.636719-15.867188-8.328126-21.554688-5.6875-5.691406-13.515624-8.714843-21.554687-8.324219-9.898437-.003906-19.390625 3.933594-26.382813 10.941407-6.992187 7.007812-10.90625 16.507812-10.882812 26.40625v-7.46875c.4375-9.03125-2.960938-17.828125-9.355469-24.21875-6.390625-6.394531-15.1875-9.792969-24.21875-9.355469-11.140625-.03125-21.835937 4.378906-29.710937 12.253906-7.878906 7.878906-12.289063 18.574219-12.257813 29.714844.035157-11.140625-4.375-21.835938-12.253906-29.714844-7.878906-7.875-18.570313-12.285156-29.710937-12.253906-9.03125-.4375-17.828126 2.960938-24.222657 9.355469-6.390625 6.390625-9.789062 15.1875-9.351562 24.21875v7.46875c.023437-9.898438-3.890625-19.398438-10.882813-26.40625-6.992187-7.007813-16.484375-10.945313-26.382812-10.941407-8.039063-.390624-15.867188 2.632813-21.558594 8.324219-5.6875 5.6875-8.710938 13.515625-8.324219 21.554688v6.546875c-.007812-18.027344-14.621093-32.640625-32.648437-32.652344-7.023438-.332031-13.855469 2.308594-18.828125 7.28125-4.96875 4.96875-7.613281 11.804688-7.277344 18.824219v7.132812c.050781-5.601562-1.882813-11.042969-5.457031-15.359375-3.222656-3.980468-8.054688-6.316406-13.175782-6.378906-4.339843.175781-8.414062 2.148438-11.246093 5.441406-2.832031 3.292969-4.171875 7.617188-3.695313 11.933594v5.625c-4.636718 0-8.394531-3.757812-8.394531-8.394531v-58.753907c0-27.78125 108.949219-50.359374 243.410156-50.359374 134.464844 0 243.410157 22.578124 243.410157 50.359374zm0 0" fill="#a4c2f7"/><path d="m327.375 125.917969v58.753906c-.027344 9.261719-7.527344 16.757813-16.789062 16.789063h-41.964844c-9.261719-.03125-16.761719-7.527344-16.789063-16.789063v-50.359375c-.03125-11.140625 4.378907-21.835938 12.257813-29.714844 7.875-7.875 18.570312-12.285156 29.710937-12.253906 9.03125-.4375 17.828125 2.960938 24.21875 9.355469 6.394531 6.390625 9.792969 15.1875 9.355469 24.21875zm0 0" fill="#fac176"/><path d="m394.523438 125.917969v50.359375c-.027344 9.261718-7.527344 16.761718-16.789063 16.789062h-33.574219c-9.257812-.027344-16.757812-7.527344-16.785156-16.789062v-42.890625c-.023438-9.898438 3.890625-19.398438 10.882812-26.40625 6.992188-7.007813 16.484376-10.945313 26.382813-10.941407 8.039063-.390624 15.867187 2.632813 21.554687 8.324219 5.691407 5.6875 8.714844 13.515625 8.328126 21.554688zm0 0" fill="#fac176"/><path d="m453.277344 125.917969v41.96875c-.027344 9.257812-7.527344 16.757812-16.789063 16.785156h-25.179687c-9.257813-.027344-16.757813-7.527344-16.785156-16.785156v-35.421875c.007812-18.027344 14.621093-32.640625 32.648437-32.652344 7.019531-.332031 13.855469 2.308594 18.828125 7.28125 4.96875 4.96875 7.609375 11.804688 7.277344 18.824219zm0 0" fill="#fac176"/><path d="m486.851562 128.6875v22.410156c-.027343 9.261719-7.527343 16.761719-16.789062 16.789063h-13.09375c-2.21875-.203125-3.863281-2.144531-3.691406-4.367188v-30.46875c-.050782-5.601562 1.882812-11.042969 5.453125-15.359375 3.226562-3.980468 8.054687-6.316406 13.179687-6.378906 4.339844.175781 8.414063 2.148438 11.246094 5.441406 2.832031 3.292969 4.167969 7.617188 3.695312 11.933594zm0 0" fill="#fac176"/><path d="m251.832031 142.703125v41.96875c-.027343 9.261719-7.527343 16.757813-16.785156 16.789063h-41.96875c-9.257813-.03125-16.757813-7.527344-16.785156-16.789063v-51.285156c-.28125-15.226563 10.222656-28.539063 25.097656-31.808594h.167969c2.726562-.597656 5.515625-.878906 8.308594-.839844 11.140624-.035156 21.832031 4.375 29.710937 12.253907 7.878906 7.878906 12.289063 18.570312 12.253906 29.710937zm0 0" fill="#cad9fc"/><path d="m176.292969 141.78125v34.496094c-.027344 9.261718-7.527344 16.761718-16.789063 16.789062h-33.570312c-9.261719-.027344-16.761719-7.527344-16.789063-16.789062v-41.964844c-.5625-13.46875 8.355469-25.5 21.402344-28.875 2.773437-.699219 5.621094-1.039062 8.480469-1.007812 9.898437 0 19.390625 3.9375 26.382812 10.945312 6.992188 7.003906 10.90625 16.507812 10.882813 26.40625zm0 0" fill="#cad9fc"/><path d="m109.144531 140.859375v27.027344c-.027343 9.257812-7.527343 16.757812-16.785156 16.785156h-25.179687c-9.261719-.027344-16.761719-7.527344-16.789063-16.785156v-33.574219c-.476563-11.425781 6.847656-21.71875 17.792969-25.011719 2.699218-.777343 5.503906-1.148437 8.3125-1.09375 18.027344.011719 32.640625 14.621094 32.648437 32.652344zm0 0" fill="#cad9fc"/><path d="m50.390625 141.445312v22.074219c.171875 2.222657-1.476563 4.164063-3.691406 4.367188h-13.09375c-9.261719-.027344-16.761719-7.527344-16.789063-16.789063v-14.015625c-.476562-4.320312.863282-8.640625 3.695313-11.933593 2.832031-3.296876 6.90625-5.265626 11.246093-5.441407 5.121094.058594 9.953126 2.398438 13.175782 6.378907 3.574218 4.316406 5.507812 9.757812 5.457031 15.359374zm0 0" fill="#e8edfc"/><path d="m327.375 133.386719v51.285156c-.027344 9.261719-7.527344 16.757813-16.789062 16.789063h-41.964844c-9.261719-.03125-16.761719-7.527344-16.789063-16.789063v-41.96875c-.058593-19.9375 13.953125-37.148437 33.492188-41.125h.167969c2.730468-.578125 5.515624-.859375 8.308593-.839844 8.878907-.472656 17.550781 2.785157 23.925781 8.984375 6.375 6.199219 9.871094 14.777344 9.648438 23.664063zm0 0" fill="#a4c2f7"/><path d="m394.523438 134.3125v41.964844c-.027344 9.261718-7.527344 16.761718-16.789063 16.789062h-33.574219c-9.257812-.027344-16.757812-7.527344-16.785156-16.789062v-34.496094c.003906-9.90625 3.925781-19.414062 10.910156-26.4375 4.941406-4.96875 11.207032-8.40625 18.046875-9.90625 2.71875-.675781 5.507813-1.011719 8.308594-1.007812 8.039063-.386719 15.867187 2.636718 21.554687 8.328124 5.691407 5.6875 8.714844 13.515626 8.328126 21.554688zm0 0" fill="#cad9fc"/><path d="m453.277344 134.3125v33.574219c-.027344 9.257812-7.527344 16.757812-16.789063 16.785156h-25.179687c-9.257813-.027344-16.757813-7.527344-16.785156-16.785156v-27.027344c-.011719-8.660156 3.433593-16.96875 9.566406-23.082031 4.023437-4.082032 9.066406-7.007813 14.605468-8.476563 2.769532-.710937 5.617188-1.078125 8.476563-1.09375 7.019531-.332031 13.855469 2.308594 18.828125 7.277344 4.96875 4.972656 7.609375 11.808594 7.277344 18.828125zm0 0" fill="#cad9fc"/><path d="m486.851562 137.082031v14.015625c-.027343 9.261719-7.527343 16.761719-16.789062 16.789063h-13.09375c-2.21875-.203125-3.863281-2.144531-3.691406-4.367188v-22.074219c-.050782-5.601562 1.882812-11.042968 5.453125-15.359374 3.226562-3.980469 8.054687-6.320313 13.179687-6.378907 4.339844.175781 8.414063 2.144531 11.246094 5.441407 2.832031 3.292968 4.167969 7.613281 3.695312 11.933593zm0 0" fill="#cad9fc"/><path d="m235.046875 142.703125v41.96875c-.027344 9.261719-7.527344 16.757813-16.785156 16.789063h-25.183594c-9.257813-.03125-16.757813-7.527344-16.785156-16.789063v-51.285156c-.28125-15.226563 10.222656-28.539063 25.097656-31.808594h.167969c19.535156 3.976563 33.550781 21.1875 33.488281 41.125zm0 0" fill="#e8edfc"/><path d="m159.503906 141.78125v34.496094c-.027344 9.261718-7.527344 16.761718-16.785156 16.789062h-16.785156c-9.261719-.027344-16.761719-7.527344-16.789063-16.789062v-41.964844c-.5625-13.46875 8.355469-25.5 21.402344-28.875 6.84375 1.5 13.109375 4.9375 18.046875 9.90625 6.984375 7.023438 10.910156 16.53125 10.910156 26.4375zm0 0" fill="#e8edfc"/><path d="m92.359375 140.859375v27.027344c-.027344 9.257812-7.527344 16.757812-16.789063 16.785156h-8.390624c-9.261719-.027344-16.761719-7.527344-16.789063-16.785156v-33.574219c-.476563-11.425781 6.847656-21.71875 17.792969-25.011719 5.539062 1.46875 10.582031 4.394531 14.605468 8.476563 6.136719 6.113281 9.578126 14.421875 9.570313 23.082031zm0 0" fill="#e8edfc"/><path d="m310.585938 133.386719v51.285156c-.027344 9.261719-7.527344 16.757813-16.785157 16.789063h-25.179687c-9.261719-.03125-16.761719-7.527344-16.789063-16.789063v-41.96875c-.058593-19.9375 13.953125-37.148437 33.492188-41.125h.167969c14.875 3.269531 25.375 16.582031 25.09375 31.808594zm0 0" fill="#cad9fc"/><path d="m377.734375 134.3125v41.964844c-.027344 9.261718-7.527344 16.761718-16.785156 16.789062h-16.789063c-9.257812-.027344-16.757812-7.527344-16.785156-16.789062v-34.496094c.003906-9.90625 3.925781-19.414062 10.910156-26.4375 4.941406-4.96875 11.207032-8.40625 18.046875-9.90625 13.046875 3.375 21.96875 15.40625 21.402344 28.875zm0 0" fill="#e8edfc"/><path d="m436.488281 134.3125v33.574219c-.027343 9.257812-7.527343 16.757812-16.785156 16.785156h-8.394531c-9.257813-.027344-16.757813-7.527344-16.785156-16.785156v-27.027344c-.011719-8.660156 3.433593-16.96875 9.566406-23.082031 4.023437-4.082032 9.066406-7.007813 14.605468-8.476563 10.949219 3.292969 18.269532 13.585938 17.792969 25.011719zm0 0" fill="#e8edfc"/><path d="m474.261719 42.824219h17.480469v71.058593h-17.480469zm0 0" fill="#7facfa"/><path d="m277.015625 210.441406v23.5c-44.738281 24.507813-99.632813 65.972656-139.417969 97.363282-57.660156 45.578124-84.941406 87.878906-88.214844 121.285156-16.28125-2.179688-6.984374 17.066406-16.132812 5.566406 0-.085938-9.703125-2.097656-9.785156-2.097656-.839844 3.1875-13.867188-18.324219-14.269532-15.21875 1.679688-33.910156 28.707032-77.554688 88.46875-124.640625 56.132813-44.402344 128.402344-89.644531 179.351563-105.757813zm0 0" fill="#e8edfc"/><path d="m350.875 258.871094c-1.867188 6.269531-4.339844 12.339844-7.386719 18.128906-23.917969 46.835938-89.722656 112.554688-150.242187 160.316406-60.097656 47.421875-109.113282 63.621094-142.519532 56.90625h-.671874c-11.820313-2.257812-22.609376-8.226562-30.804688-17.039062-.167969-.082032-.25-.335938-.335938-.503906-1.355468-1.933594-2.589843-3.953126-3.691406-6.042969-4.519531-8.898438-6.632812-18.824219-6.128906-28.789063v-.253906c.085938-.25 0-.503906.085938-.753906.390624-3.195313.980468-6.363282 1.761718-9.484375.085938 0 .167969.167969.167969.25 9.460937 11.808593 23.234375 19.359375 38.273437 20.984375 33.238282 4.535156 80.746094-12.167969 138.410157-57.746094 43.226562-33.148438 84.117187-69.242188 122.375-108.023438 3.191406-3.355468 6.210937-6.628906 8.980469-9.820312 6.761718-7.539062 12.960937-15.5625 18.550781-24.003906 1.980469-2.964844 5.808593-4.070313 9.066406-2.621094 3.253906 1.453125 4.992187 5.039062 4.109375 8.496094zm0 0" fill="#cad9fc"/><path d="m310.167969 286.820312c-30.636719 43.058594-83.933594 94.425782-133.707031 133.707032-60.097657 47.421875-109.117188 63.621094-142.519532 56.90625h-.671875c-6.347656-1.269532-12.441406-3.566406-18.046875-6.796875-4.519531-8.898438-6.632812-18.824219-6.128906-28.789063v-.253906c.085938-.25 0-.503906.085938-.753906.390624-3.195313.980468-6.363282 1.761718-9.484375.085938 0 .167969.167969.167969.25 9.460937 11.808593 23.234375 19.359375 38.273437 20.984375 33.238282 4.535156 80.746094-12.167969 138.410157-57.746094 43.226562-33.148438 84.117187-69.242188 122.375-108.023438zm0 0" fill="#e8edfc"/><path d="m370.011719 184v72.351562c-.023438 11.394532-9.253907 20.625-20.644531 20.648438h-5.878907c3.046875-5.789062 5.519531-11.859375 7.386719-18.128906.574219-2.007813.234375-4.164063-.929688-5.898438-1.167968-1.730468-3.039062-2.859375-5.113281-3.082031v-65.890625c.753907-18.300781-11.15625-34.730469-28.789062-39.699219 3.707031-.933593 7.507812-1.4375 11.332031-1.511719.414062-.070312.835938-.097656 1.257812-.085937 11.121094-.554687 21.960938 3.613281 29.84375 11.476563 7.882813 7.867187 12.070313 18.699218 11.535157 29.820312zm0 0" fill="#e8edfc"/><path d="m344.832031 184v65.890625c-2.792969-.566406-5.644531.675781-7.132812 3.105469-5.589844 8.441406-11.789063 16.464844-18.550781 24.003906h-21.488282c-1.15625.015625-2.308594-.09375-3.441406-.335938-9.929688-1.652343-17.207031-10.246093-17.203125-20.3125v-62.027343c-.042969-23.664063 16.0625-44.308594 39.027344-50.023438 17.632812 4.96875 29.542969 21.398438 28.789062 39.699219zm0 0" fill="#fff"/><path d="m16.816406 134.3125v16.785156c.027344 9.261719 7.527344 16.761719 16.789063 16.789063h13.09375c1.53125-.066407 2.863281-1.066407 3.355469-2.519531-4.980469-3.035157-8.03125-8.4375-8.058594-14.269532v-16.785156c-4.632813 0-8.390625-3.757812-8.390625-8.394531v-58.753907c0-26.910156 102.214843-48.933593 230.816406-50.292968-4.167969-.046875-8.363281-.066406-12.589844-.066406-134.460937 0-243.410156 22.578124-243.410156 50.359374v58.753907c0 4.636719 3.757813 8.394531 8.394531 8.394531zm0 0" fill="#fff"/><path d="m277.015625 210.441406c-50.949219 16.113282-123.21875 61.355469-179.371094 105.757813-59.761719 47.085937-86.785156 90.730469-88.464843 124.640625-.085938.25 0 .503906-.085938.753906v.253906c-.503906 9.964844 1.609375 19.890625 6.128906 28.789063 1.101563 2.089843 2.335938 4.109375 3.691406 6.042969.085938.167968.167969.421874.335938.503906 8.195312 8.8125 18.984375 14.78125 30.804688 17.039062h.671874c9.417969 1.75 19.0625 1.921875 28.539063.511719-1.109375-.167969-2.25-.292969-3.359375-.511719h-.671875c-11.820313-2.257812-22.609375-8.226562-30.804687-17.039062-.164063-.082032-.25-.335938-.332032-.503906-1.359375-1.933594-2.59375-3.953126-3.695312-6.042969-4.519532-8.898438-6.632813-18.824219-6.125-28.789063v-.253906c.082031-.25 0-.503906.082031-.753906 1.679687-33.910156 28.707031-77.554688 88.46875-124.640625 56.148437-44.402344 103.238281-80.09375 154.1875-96.207031" fill="#fff"/><path d="m.03125 58.769531c.445312-6.984375 3.828125-13.453125 9.316406-17.800781 4-3.417969 8.421875-6.316406 13.152344-8.621094 8.628906-4.222656 17.617188-7.660156 26.859375-10.28125 17.855469-5.09375 36.023437-9.019531 54.386719-11.75 49.035156-7.144531 98.539062-10.585937 148.085937-10.300781v16.789063c-48.675781-.289063-97.308593 3.078124-145.480469 10.070312-17.625 2.625-35.058593 6.390625-52.191406 11.28125-8.265625 2.332031-16.308594 5.394531-24.03125 9.148438-3.460937 1.660156-6.699218 3.746093-9.644531 6.210937-1.792969 1.273437-3.089844 3.132813-3.667969 5.253906zm0 0" fill="#fff"/><path d="m59.699219 34.042969c.949219.53125 1.992187.875 3.070312 1.015625 3.28125.441406 6.519531-1.070313 8.285157-3.867188.539062-.960937.902343-2.011718 1.066406-3.097656.613281-3.34375-.886719-6.722656-3.777344-8.511719-4.066406-2.40625-9.3125-1.085937-11.75 2.960938l-.664062 1.46875c-.1875.542969-.300782 1.109375-.335938 1.679687-.105469.527344-.132812 1.070313-.074219 1.605469.058594.5625.152344 1.125.285157 1.675781.644531 2.105469 2.027343 3.90625 3.894531 5.070313zm0 0" fill="#428dff"/><path d="m251.832031.015625c-49.546875-.285156-99.050781 3.15625-148.085937 10.300781l-8.390625 1.367188c-2.957031.503906-5.421875 2.550781-6.460938 5.363281-1.039062 2.8125-.5 5.96875 1.414063 8.273437 1.917968 2.308594 4.917968 3.421876 7.875 2.914063l8.167968-1.332031c48.171876-7.003906 96.804688-10.378906 145.480469-10.097656 152.066407 0 235.019531 27.695312 235.019531 41.964843v49.75c-4.078124-3.699219-9.414062-5.707031-14.917968-5.609375-5.402344.015625-10.652344 1.785156-14.964844 5.039063-6.046875-10.671875-17.550781-17.066407-29.804688-16.570313-11.460937.027344-22.378906 4.867188-30.089843 13.34375-6.875-11.195312-19.3125-17.746094-32.433594-17.078125-12.125.039063-23.742187 4.863281-32.324219 13.429688-.835937.839843-1.457031 1.820312-2.214844 2.71875-7.382812-12.9375-21.425781-20.613281-36.300781-19.84375-13.378906-.011719-26.214843 5.292969-35.679687 14.75-2.355469 2.378906-4.472656 4.980469-6.320313 7.769531-9.324219-14.054688-25.066406-22.507812-41.933593-22.519531-14.824219-.769531-28.828126 6.847656-36.234376 19.710937-8.660156-10.125-21.316406-15.953125-34.640624-15.949218-13.09375-.648438-25.496094 5.890624-32.363282 17.054687-7.710937-8.480469-18.632812-13.328125-30.09375-13.351563-12.265625-.511718-23.785156 5.886719-29.835937 16.566407-4.3125-3.253907-9.566407-5.019531-14.96875-5.035157-5.496094-.105468-10.832031 1.886719-14.914063 5.574219v-49.75c.203125-.984375.613282-1.914062 1.210938-2.726562 1.273437-1.535157 2.738281-2.898438 4.363281-4.054688 4.046875-2.847656 8.390625-5.246093 12.960937-7.152343 4.058594-1.890626 5.996094-6.578126 4.457032-10.785157-.804688-2.140625-2.457032-3.855469-4.574219-4.726562-2.113281-.875-4.492187-.832031-6.574219.121093-5.761718 2.414063-11.238281 5.464844-16.324218 9.097657-2.917969 2.117187-5.53125 4.628906-7.765626 7.460937-2.78125 3.691406-4.363281 8.148438-4.539062 12.765625v67.148438c.015625 5.96875 3.214844 11.480469 8.390625 14.453125v10.726562c0 13.90625 11.277344 25.179688 25.183594 25.179688h9.9375c3.542969 10.027344 13.003906 16.742187 23.636719 16.789062h25.179687c4.335937-.027344 8.59375-1.183594 12.34375-3.359375 4.59375 7.300781 12.605469 11.738281 21.230469 11.753907h33.570312c4.339844-.027344 8.59375-1.183594 12.347656-3.359376 4.59375 7.300782 12.605469 11.734376 21.226563 11.75h41.96875c6.214844-.019531 12.199219-2.355468 16.785156-6.546874 2.136719 1.960937 4.597657 3.535156 7.269531 4.652343-54.984374 21.425781-122.636718 66.84375-166.652343 101.644531-56.914063 44.84375-89.421875 91.09375-91.578125 130.308594-.050782.347656-.078125.695313-.085938 1.046875v.570313c-.8046872 14.054687 3.0625 27.980468 10.996094 39.609375v.109375c.375.578125.804688 1.121094 1.285156 1.621094.074219.082031.160156.140624.234375.226562l.199219.183594c9.484375 10.023437 21.925781 16.75 35.507812 19.195312 5.492188 1.085938 11.078126 1.617188 16.675782 1.585938 36.621094 0 82.96875-20.882813 132.734375-60.171875 57.425781-45.28125 122.945312-109.746094 149.941406-158.492188h1.015625c16.03125-.019531 29.023438-13.011719 29.039062-29.042969v-54.960937c8.371094-.226563 16.074219-4.605469 20.546876-11.683594 3.753906 2.175781 8.011718 3.332031 12.347656 3.359375h25.179687c10.632813-.046875 20.09375-6.761718 23.636719-16.789062h9.9375c13.90625 0 25.179688-11.273438 25.179688-25.179688v-10.726562c5.179687-2.972656 8.375-8.484375 8.394531-14.453125v-67.148438c0-46.472656-164.710938-58.753906-251.804688-58.753906zm18.15625 110.550781c6.324219-6.300781 14.886719-9.835937 23.8125-9.828125 6.773438-.328125 13.371094 2.21875 18.164063 7.015625 4.796875 4.792969 7.34375 11.390625 7.015625 18.164063v9.234375c-28.605469 4.53125-49.820313 28.957031-50.300781 57.914062h-.058594c-4.636719 0-8.394532-3.757812-8.394532-8.394531v-50.359375c-.015624-8.894531 3.496094-17.433594 9.761719-23.746094zm27.671875 174.828125h2.386719c-36.855469 36.832031-76.085937 71.207031-117.441406 102.902344-47.296875 37.34375-90.648438 57.074219-123.382813 56.546875 7.089844-32.003906 36.351563-69.589844 83.613282-106.949219 39.960937-32.503906 81.976562-62.398437 125.785156-89.492187v7.949218c.019531 16.03125 13.007812 29.023438 29.039062 29.042969zm-272.449218-134.296875v-22.382812c0-1.503906.308593-9.015625 6.519531-9.015625 6.417969 1.042969 10.914062 6.902343 10.265625 13.371093v26.421876h-8.390625c-4.636719 0-8.394531-3.757813-8.394531-8.394532zm67.148437 25.179688h-25.179687c-4.636719 0-8.394532-3.757813-8.394532-8.390625v-41.96875c-.308594-4.789063 1.457032-9.476563 4.847656-12.867188 3.394532-3.394531 8.082032-5.160156 12.871094-4.851562 13.386719.015625 24.234375 10.863281 24.246094 24.25v35.4375c0 4.632812-3.757812 8.390625-8.390625 8.390625zm67.144531 8.394531h-33.570312c-4.636719 0-8.394532-3.757813-8.394532-8.394531v-50.359375c-.28125-5.773438 1.886719-11.394531 5.972657-15.480469 4.085937-4.085938 9.707031-6.253906 15.480469-5.972656 15.960937.019531 28.894531 12.953125 28.90625 28.914062v42.898438c0 4.636718-3.757813 8.394531-8.394532 8.394531zm75.542969 8.394531h-41.96875c-4.632813 0-8.390625-3.757812-8.390625-8.394531v-58.753906c-.328125-6.773438 2.21875-13.371094 7.015625-18.164063 4.792969-4.796875 11.390625-7.34375 18.164063-7.015625 18.542968 0 33.574218 15.03125 33.574218 33.574219v50.359375c0 4.636719-3.757812 8.394531-8.394531 8.394531zm-132.195313 129.710938c57.257813-45.273438 120.703126-83.597656 165.769532-100.503906v6.800781c-47.707032 28.492187-93.238282 60.476562-136.226563 95.683593-51.5625 40.710938-82.371093 81.199219-89.894531 117.726563-8.898438-2.429687-16.890625-7.40625-22.996094-14.320313 7.613282-31.71875 36.636719-68.582031 83.347656-105.386718zm85.191407 107.949218c-53.71875 42.429688-101.886719 62.078126-136.265625 55.269532-9.953125-1.867188-19.058594-6.832032-26.019532-14.183594-4.628906-6.710938-7.382812-14.535156-7.984374-22.664062 9.058593 6.339843 19.523437 10.371093 30.492187 11.75h.847656c38.613281 4.910156 88.308594-15.59375 143.914063-59.492188 75.089844-59.289062 123.386718-104.277344 147.097656-137.179688-18.089844 44.8125-88.292969 116.171876-152.082031 166.5zm173.578125-174.375c-.007813 3.523438-1.535156 6.875-4.199219 9.183594.503906-1.460937 1.132813-2.980468 1.539063-4.390625 2.023437-7.445312-1.664063-15.257812-8.695313-18.425781-7.035156-3.171875-15.328125-.761719-19.566406 5.683594-4.707031 7.050781-9.851563 13.796875-15.402344 20.203125h-17.625c-6.769531-.003907-12.253906-5.484375-12.265625-12.253907v-62.027343c-.050781-23.453125 18.679688-42.632813 42.128906-43.140625.367188.007812.734375-.019532 1.097656-.085938 8.863282-.441406 17.5 2.878906 23.78125 9.144532 6.285157 6.265624 9.625 14.894531 9.207032 23.757812zm24.507812-80.074218c-.027344 4.347656-3.390625 7.941406-7.722656 8.261718v-.539062c1.082031-25.121094-17.621094-46.726562-42.636719-49.253906v-1.359375c-.027343-7.671875 3.003907-15.039063 8.421875-20.472657 5.417969-5.4375 12.777344-8.488281 20.449219-8.484374 5.78125-.277344 11.410156 1.894531 15.5 5.988281 4.09375 4.089843 6.265625 9.71875 5.988281 15.5zm58.753906-8.390625c0 4.632812-3.757812 8.390625-8.394531 8.390625h-25.179687c-4.636719 0-8.394532-3.757813-8.394532-8.390625v-35.4375c.015626-13.386719 10.863282-24.234375 24.25-24.25 4.789063-.308594 9.476563 1.457031 12.867188 4.851562 3.394531 3.390625 5.160156 8.078125 4.851562 12.867188zm33.574219-16.789063c0 4.636719-3.757812 8.394532-8.394531 8.394532h-8.394531v-26.421876c-.644531-6.46875 3.851562-12.328124 10.265625-13.371093 6.210937 0 6.523437 7.511719 6.523437 9.015625zm0 0" fill="#428dff"/></svg>