<svg height="512pt" viewBox="0 0 512 512" width="512pt" xmlns="http://www.w3.org/2000/svg"><path d="m42.667969 8.535156h426.664062c18.851563 0 34.132813 15.28125 34.132813 34.132813v426.664062c0 18.851563-15.28125 34.132813-34.132813 34.132813h-426.664062c-18.851563 0-34.132813-15.28125-34.132813-34.132813v-426.664062c0-18.851563 15.28125-34.132813 34.132813-34.132813zm0 0" fill="#cad9fc"/><path d="m42.667969 8.535156h401.066406c18.851563 0 34.132813 15.28125 34.132813 34.132813v426.664062c0 18.851563-15.28125 34.132813-34.132813 34.132813h-401.066406c-18.851563 0-34.132813-15.28125-34.132813-34.132813v-426.664062c0-18.851563 15.28125-34.132813 34.132813-34.132813zm0 0" fill="#e8edfc"/><path d="m382.039062 247.210938c-.085937.085937-.085937.085937-.085937.171874-3.328125 5.289063-6.570313 10.578126-9.558594 16.042969-9.269531 15.964844-15.328125 33.589844-17.835937 51.882813-1.816406 19.671875-5.242188 39.164062-10.238282 58.28125-3.839843 14.078125-10.15625 36.011718-28.585937 36.011718-6.230469 0-11.863281-6.65625-16.640625-17.066406-9.699219-25.105468-16.152344-51.34375-19.199219-78.082031-2.988281-20.566406-11.863281-27.050781-19.96875-29.097656-1.296875-.277344-2.605469-.476563-3.925781-.597657v-119.722656c28.789062-23.808594 69.570312-26.558594 101.289062-6.828125 2.773438 1.804688 5.375 3.859375 7.765626 6.144531 22.699218 21.078126 24.40625 54.101563 16.984374 82.859376zm0 0" fill="#7facfa"/><path d="m364.96875 230.144531c-.082031.085938-.082031.085938-.082031.171875-3.328125 5.289063-6.570313 10.578125-9.558594 16.039063-9.269531 15.96875-15.328125 33.59375-17.835937 51.882812-1.816407 19.675781-5.242188 39.167969-10.238282 58.285157-3.839844 13.992187-10.070312 35.667968-28.160156 36.011718-9.699219-25.105468-16.152344-51.34375-19.199219-78.082031-2.988281-20.566406-11.863281-27.050781-19.96875-29.097656-.957031-2.726563-2.277343-5.308594-3.925781-7.679688v-112.640625c28.789062-23.808594 69.570312-26.558594 101.289062-6.828125 13.742188 20.566407 13.910157 47.789063 7.679688 71.9375zm0 0" fill="#a4c2f7"/><path d="m256 165.035156-.085938 119.722656c-9.042968.9375-20.394531 5.800782-23.894531 29.695313-5.972656 41.644531-17.917969 95.148437-35.839843 95.148437-18.34375 0-24.660157-21.933593-28.585938-36.011718-4.96875-19.117188-8.363281-38.609375-10.152344-58.28125-2.546875-18.285156-8.605468-35.902344-17.835937-51.882813-3.070313-5.546875-6.398438-10.925781-9.726563-16.214843v-.085938c-7.425781-28.757812-5.632812-61.695312 16.980469-82.773438 28.84375-26.878906 80.382813-24.746093 109.140625.683594zm0 0" fill="#a4c2f7"/><path d="m398.421875 217.171875c-4.558594 10.480469-10.042969 20.53125-16.382813 30.039063 5.515626-19.074219 5.246094-39.359376-.769531-58.28125 6.316407-31.746094 2.644531-66.476563-22.015625-89.34375-13.800781-12.367188-31.148437-20.070313-49.578125-22.019532 27.0625-3.894531 54.488281 4.136719 75.175781 22.019532 32.257813 29.949218 28.671876 80.125 13.570313 117.585937zm0 0" fill="#e8edfc"/><path d="m381.269531 188.929688c-3.371093-9.367188-8.929687-17.792969-16.214843-24.578126-18.101563-15.613281-42.222657-22.339843-65.789063-18.347656-15.96875 1.996094-31.007813 8.609375-43.265625 19.03125-3.925781-3.445312-8.21875-6.449218-12.800781-8.960937-17.121094-9.375-36.835938-12.910157-56.148438-10.070313-14.953125 1.882813-28.976562 8.28125-40.191406 18.347656-22.613281 21.078126-24.40625 54.015626-16.980469 82.773438-6.324218-9.488281-11.808594-19.507812-16.386718-29.953125-3.695313-9.128906-6.523438-18.585937-8.445313-28.242187-6.316406-31.832032-2.5625-66.476563 22.015625-89.34375 13.832031-12.371094 31.207031-20.074219 49.664062-22.019532h.167969c22.980469-2.820312 46.253907 1.914063 66.304688 13.484375 4.539062 2.738281 8.824219 5.878907 12.800781 9.386719 15.105469-12.867188 33.765625-20.84375 53.503906-22.871094h.171875c18.429688 1.949219 35.777344 9.652344 49.578125 22.019532 24.660156 22.867187 28.332032 57.597656 22.015625 89.34375zm0 0" fill="#fff"/><path d="m42.667969 503.464844h25.597656c-18.851563 0-34.132813-15.28125-34.132813-34.132813v-426.664062c0-18.851563 15.28125-34.132813 34.132813-34.132813h-25.597656c-18.851563 0-34.132813 15.28125-34.132813 34.132813v426.664062c0 18.851563 15.28125 34.132813 34.132813 34.132813zm0 0" fill="#fff"/><path d="m17.066406 42.667969v426.664062h-17.066406v-426.664062zm0 0" fill="#fff"/><g fill="#428dff"><path d="m8.535156 119.464844c2.257813-.03125 4.421875-.914063 6.058594-2.472656 3.296875-3.363282 3.296875-8.753907 0-12.117188l-1.28125-1.023438c-.476562-.324218-.992188-.582031-1.535156-.769531-.484375-.246093-1.003906-.417969-1.539063-.511719-.5625-.09375-1.132812-.152343-1.703125-.171874-2.261718.035156-4.425781.917968-6.058594 2.476562-.773437.816406-1.382812 1.769531-1.792968 2.816406-1.289063 3.183594-.5859378 6.824219 1.792968 9.300782.8125.769531 1.769532 1.378906 2.8125 1.792968 1.027344.4375 2.128907.667969 3.246094.679688zm0 0"/><path d="m469.332031 0h-426.664062c-23.554688.0273438-42.6406252 19.113281-42.667969 42.667969v34.132812c0 4.710938 3.820312 8.53125 8.535156 8.53125 4.710938 0 8.53125-3.820312 8.53125-8.53125v-34.132812c0-14.140625 11.460938-25.601563 25.601563-25.601563h426.664062c14.140625 0 25.601563 11.460938 25.601563 25.601563v426.664062c0 14.140625-11.460938 25.601563-25.601563 25.601563h-426.664062c-14.140625 0-25.601563-11.460938-25.601563-25.601563v-324.265625c0-4.710937-3.820312-8.53125-8.53125-8.53125-4.714844 0-8.535156 3.820313-8.535156 8.53125v324.265625c.0273438 23.554688 19.113281 42.640625 42.667969 42.667969h426.664062c23.554688-.027344 42.640625-19.113281 42.667969-42.667969v-426.664062c-.027344-23.554688-19.113281-42.6406252-42.667969-42.667969zm0 0"/><path d="m119.464844 42.667969h-68.265625c-4.710938 0-8.53125 3.820312-8.53125 8.53125 0 4.714843 3.820312 8.535156 8.53125 8.535156h68.265625c4.714844 0 8.535156-3.820313 8.535156-8.535156 0-4.710938-3.820312-8.53125-8.535156-8.53125zm0 0"/><path d="m51.199219 93.867188h34.132812c4.714844 0 8.535157-3.820313 8.535157-8.535157 0-4.710937-3.820313-8.53125-8.535157-8.53125h-34.132812c-4.710938 0-8.53125 3.820313-8.53125 8.53125 0 4.714844 3.820312 8.535157 8.53125 8.535157zm0 0"/><path d="m256 89.539062c-39.03125-29.550781-100.191406-28.40625-134.722656 3.796876-35.839844 33.367187-31.574219 87.519531-15.625 127.078124 4.699218 10.796876 10.332031 21.164063 16.835937 30.976563l.117188.199219c3.269531 5.230468 6.539062 10.46875 9.523437 15.921875 8.75 15.015625 14.476563 31.597656 16.855469 48.808593 1.828125 20.113282 5.308594 40.042969 10.410156 59.582032 3.070313 11.09375 8.832031 31.777344 24.140625 39.347656 1.492188 23.347656 3.667969 41.667969 4.265625 46.609375.535157 4.269531 4.164063 7.472656 8.464844 7.472656.359375.003907.714844-.019531 1.066406-.066406 4.675781-.585937 7.992188-4.847656 7.410157-9.523437-1.265626-10.121094-2.75-25.148438-3.867188-42.0625 9.710938-2.269532 27.304688-16.210938 39.628906-101.980469 2.875-19.789063 10.9375-21.800781 15.480469-22.367188 4.539063.566407 12.601563 2.5625 15.488281 22.351563 12.3125 85.886718 29.96875 99.769531 39.667969 102.007812-1.117187 16.910156-2.558594 31.929688-3.863281 42.050782-.582032 4.675781 2.730468 8.9375 7.40625 9.523437.347656.046875.699218.070313 1.050781.066406 4.296875-.003906 7.921875-3.207031 8.457031-7.472656.621094-4.941406 2.796875-23.28125 4.265625-46.636719 15.265625-7.59375 21.015625-28.253906 24.070313-39.253906 5.089844-19.570312 8.578125-39.527344 10.4375-59.664062 2.378906-17.210938 8.101562-33.792969 16.84375-48.808594 3.023437-5.496094 6.316406-10.789063 9.609375-16.0625 6.519531-9.832032 12.167969-20.21875 16.878906-31.035156 15.964844-39.550782 20.242187-93.703126-15.625-127.070313-34.5-32.195313-95.648437-33.339844-134.671875-3.789063zm32.375 223.703126c-3.300781-22.640626-13.859375-35.082032-31.402344-36.984376-.328125.007813-.65625.035157-.980468.085938-.324219-.050781-.648438-.078125-.972657-.085938-17.527343 1.902344-28.09375 14.34375-31.386719 36.992188-7.59375 52.90625-17.722656 77.535156-23.808593 85.121094-1.707031-41.148438-.253907-87.039063 11.828125-103.117188 20.582031-27.453125.65625-53.992187-12.519532-71.550781-5-5.496094-8.875-11.917969-11.398437-18.902344-.007813-.78125.066406-1.558593.230469-2.320312 3.054687-2.101563 18.328125 1.707031 27.449218 4.042969 13.207032 3.890624 26.832032 6.175781 40.585938 6.808593 13.753906-.636719 27.378906-2.929687 40.585938-6.824219 9.121093-2.296874 24.394531-6.164062 27.304687-4.164062.304687.78125.433594 1.621094.375 2.457031-2.515625 6.984375-6.382813 13.40625-11.375 18.902344-13.175781 17.558594-33.101563 44.097656-12.515625 71.550781 12.082031 16.101563 13.550781 62.003906 11.816406 103.167969-6.074218-7.527344-16.238281-32.136719-23.839844-85.179687zm47.789062 58.101562c-1.59375 6.277344-3.753906 12.394531-6.453124 18.28125 1.152343-40.109375-1.246094-85.394531-15.660157-104.613281-11.945312-15.972657-2.371093-31.238281 12.519531-51.0625 7.9375-10.570313 14.761719-19.703125 14.761719-29.148438.394531-6.054687-2.144531-11.929687-6.824219-15.789062-9.386718-7.292969-23.792968-3.652344-42.105468.964843-11.847656 3.5-24.066406 5.609376-36.402344 6.289063-12.339844-.675781-24.558594-2.789063-36.410156-6.289063-18.3125-4.617187-32.761719-8.269531-42.105469-.964843-4.675781 3.863281-7.214844 9.734375-6.816406 15.789062 0 9.445313 6.824219 18.578125 14.785156 29.148438 14.890625 19.824219 24.46875 35.089843 12.519531 51.0625-14.421875 19.234375-16.808594 64.582031-15.648437 104.714843-2.738281-5.9375-4.921875-12.113281-6.527344-18.449218-4.839844-18.679688-8.148437-37.71875-9.890625-56.933594-2.617188-19.40625-9.019531-38.109375-18.84375-55.050781-2.882812-5.253907-6.03125-10.316407-9.179688-15.359375-3.816406-15.359375-9.207031-50.960938 14.796876-73.335938 24.644531-22.960937 71.191406-22.578125 97.664062.855469.324219.222656.667969.417969 1.023438.585937.457031.335938.945312.621094 1.457031.855469.511719.1875 1.042969.324219 1.578125.410157 1.046875.273437 2.148437.273437 3.195312 0 .535156-.085938 1.066406-.222657 1.578125-.410157.824219-.488281 1.652344-.96875 2.480469-1.441406 26.453125-23.417969 72.976562-23.835937 97.589844-.855469 23.996094 22.273438 18.628906 57.898438 14.804687 73.386719-3.140625 5.042969-6.28125 10.09375-9.164062 15.359375-5.894531 10.582031-10.644531 21.761719-14.167969 33.347656-.257812.609375-.441406 1.246094-.542969 1.894532-1.914062 6.472656-3.308593 13.082031-4.167969 19.773437-1.753906 19.230469-5.054687 38.285156-9.871093 56.984375zm57.511719-165.929688c-1.6875-17.980468-9.765625-34.761718-22.765625-47.300781-29.363281-27.441406-81.28125-28.6875-114.882812-3.976562-33.582032-24.6875-85.523438-23.449219-114.960938 3.96875-12.972656 12.539062-21.042968 29.296875-22.75 47.257812-11.09375-33.117187-12.539062-74.300781 14.589844-99.542969 29.671875-27.664062 85.640625-27.175781 117.425781 1.007813.332031.214844.671875.414063 1.027344.589844 1.386719.894531 2.992187 1.398437 4.640625 1.46875.550781-.015625 1.09375-.089844 1.628906-.214844.523438-.082031 1.039063-.214844 1.535156-.390625.527344-.234375 1.027344-.519531 1.496094-.855469.351563-.167969.691406-.363281 1.015625-.578125 31.785157-28.160156 87.765625-28.671875 117.433594-1 27.078125 25.222656 25.679687 66.449219 14.542969 99.566406zm0 0"/><path d="m51.199219 366.933594h68.265625c4.714844 0 8.535156-3.820313 8.535156-8.535156 0-4.710938-3.820312-8.53125-8.535156-8.53125h-68.265625c-4.710938 0-8.53125 3.820312-8.53125 8.53125 0 4.714843 3.820312 8.535156 8.53125 8.535156zm0 0"/><path d="m51.199219 401.066406h68.265625c4.714844 0 8.535156-3.820312 8.535156-8.53125 0-4.714844-3.820312-8.535156-8.535156-8.535156h-68.265625c-4.710938 0-8.53125 3.820312-8.53125 8.535156 0 4.710938 3.820312 8.53125 8.53125 8.53125zm0 0"/><path d="m51.199219 435.199219h68.265625c4.714844 0 8.535156-3.820313 8.535156-8.53125 0-4.714844-3.820312-8.535157-8.535156-8.535157h-68.265625c-4.710938 0-8.53125 3.820313-8.53125 8.535157 0 4.710937 3.820312 8.53125 8.53125 8.53125zm0 0"/><path d="m51.199219 469.332031h68.265625c4.714844 0 8.535156-3.820312 8.535156-8.53125 0-4.714843-3.820312-8.535156-8.535156-8.535156h-68.265625c-4.710938 0-8.53125 3.820313-8.53125 8.535156 0 4.710938 3.820312 8.53125 8.53125 8.53125zm0 0"/><path d="m460.800781 349.867188h-68.265625c-4.714844 0-8.535156 3.820312-8.535156 8.53125 0 4.714843 3.820312 8.535156 8.535156 8.535156h68.265625c4.710938 0 8.53125-3.820313 8.53125-8.535156 0-4.710938-3.820312-8.53125-8.53125-8.53125zm0 0"/><path d="m460.800781 384h-68.265625c-4.714844 0-8.535156 3.820312-8.535156 8.535156 0 4.710938 3.820312 8.53125 8.535156 8.53125h68.265625c4.710938 0 8.53125-3.820312 8.53125-8.53125 0-4.714844-3.820312-8.535156-8.53125-8.535156zm0 0"/><path d="m460.800781 418.132812h-68.265625c-4.714844 0-8.535156 3.820313-8.535156 8.535157 0 4.710937 3.820312 8.53125 8.535156 8.53125h68.265625c4.710938 0 8.53125-3.820313 8.53125-8.53125 0-4.714844-3.820312-8.535157-8.53125-8.535157zm0 0"/><path d="m460.800781 452.265625h-68.265625c-4.714844 0-8.535156 3.820313-8.535156 8.535156 0 4.710938 3.820312 8.53125 8.535156 8.53125h68.265625c4.710938 0 8.53125-3.820312 8.53125-8.53125 0-4.714843-3.820312-8.535156-8.53125-8.535156zm0 0"/></g></svg>