<svg height="503pt" viewBox="-25 0 503 503.79139" width="503pt" xmlns="http://www.w3.org/2000/svg"><path d="m303.011719 289.832031-6.378907 31.140625-7.890624 37.9375v.085938l-8.054688 38.945312-7.808594 37.855469v.082031l-5.539062 26.609375c-3.953125 19.152344-20.816406 32.894531-40.371094 32.902344-4.28125.019531-8.53125-.660156-12.589844-2.015625-13.667968-4.355469-24.070312-15.523438-27.449218-29.460938l-6.882813-33.070312-7.050781-34.078125-6.878906-33.070313-15.195313-73.863281zm0 0" fill="#7facfa"/><path d="m277.832031 289.832031-6.378906 31.140625-7.890625 37.9375v.085938l-8.058594 38.945312-7.804687 37.855469v.082031l-5.539063 26.609375c-2.972656 14.570313-13.605468 26.390625-27.78125 30.886719-13.667968-4.355469-24.070312-15.523438-27.449218-29.460938l-6.882813-33.070312-7.050781-34.078125-6.878906-33.070313-15.195313-73.863281zm0 0" fill="#a4c2f7"/><path d="m310.230469 411.539062c-.011719 7.238282-4.691407 13.648438-11.582031 15.863282l-22.664063 7.386718c-.167969 0-.25.082032-.417969.167969l-103.910156 33.992188c-8.828125 2.851562-18.304688-1.941407-21.238281-10.742188-.5625-1.675781-.847657-3.433593-.835938-5.203125.023438-6.273437 3.511719-12.019531 9.0625-14.941406l.335938-.167969c.707031-.332031 1.4375-.609375 2.183593-.839843l127.074219-41.546876c8.808594-2.867187 18.273438 1.941407 21.152344 10.742188.566406 1.707031.847656 3.492188.839844 5.289062zm0 0" fill="#e8edfc"/><path d="m327.6875 333.984375c-.03125 7.269531-4.6875 13.714844-11.582031 16.03125l-23.585938 7.722656-136.222656 44.484375c-8.828125 2.851563-18.304687-1.941406-21.238281-10.742187-.5625-1.679688-.847656-3.4375-.839844-5.207031.003906-6.277344 3.5-12.035157 9.066406-14.9375l.335938-.167969c.707031-.332031 1.4375-.613281 2.183594-.839844l159.894531-52.292969c8.804687-2.867187 18.269531 1.941406 21.152343 10.746094.5625 1.675781.847657 3.433594.835938 5.203125zm0 0" fill="#e8edfc"/><path d="m285.050781 419.933594c-.03125 6.25-3.519531 11.96875-9.066406 14.855468-.167969 0-.25.082032-.417969.167969l-103.910156 33.992188c-8.828125 2.851562-18.304688-1.941407-21.238281-10.742188-.5625-1.675781-.847657-3.433593-.835938-5.203125.023438-6.273437 3.511719-12.019531 9.0625-14.941406l.335938-.167969 104.078125-33.992187c8.808594-2.867188 18.273437 1.9375 21.152344 10.742187.566406 1.707031.847656 3.492188.839843 5.289063zm0 0" fill="#fff"/><path d="m302.507812 342.375c-.046874 6.632812-3.945312 12.628906-9.988281 15.363281l-136.222656 44.484375c-8.828125 2.851563-18.304687-1.941406-21.238281-10.742187-.5625-1.679688-.847656-3.4375-.839844-5.207031.003906-6.277344 3.5-12.035157 9.066406-14.9375l.335938-.167969 136.898437-44.738281c8.804688-2.867188 18.269531 1.941406 21.148438 10.742187.566406 1.679687.847656 3.4375.839843 5.203125zm0 0" fill="#fff"/><path d="m401.71875 41.890625c-26.472656-23.972656-61.679688-35.941406-97.28125-33.070313 29.917969 1.066407 58.46875 12.796876 80.496094 33.070313 38.441406 36.847656 40.957031 119.859375 27.949218 176.597656-2.59375 11.945313-8.949218 22.738281-18.128906 30.804688-17.039062 14.6875-50.78125 32.566406-116.921875 40.539062-21.679687 2.484375-43.476562 3.832031-65.300781 4.03125 2.015625.082031 4.027344.082031 6.042969.082031 25.40625.140626 50.800781-1.234374 76.042969-4.113281 66.140624-7.972656 99.882812-25.851562 116.921874-40.539062 9.183594-8.066407 15.535157-18.859375 18.128907-30.804688 13.011719-56.738281 10.492187-139.75-27.949219-176.597656zm0 0" fill="#cad9fc"/><path d="m412.882812 218.488281c-2.59375 11.945313-8.949218 22.738281-18.128906 30.804688-17.039062 14.6875-50.78125 32.566406-116.921875 40.539062-21.679687 2.484375-43.476562 3.832031-65.300781 4.03125-1.511719 0-3.105469.082031-4.699219 0-21.824219-.199219-43.621093-1.546875-65.300781-4.03125-66.140625-7.972656-99.882812-25.851562-116.921875-40.539062-9.179687-8.066407-15.535156-18.859375-18.128906-30.804688-13.011719-56.738281-10.492188-139.75 27.949219-176.597656 22.023437-20.273437 50.574218-32.003906 80.492187-33.070313 33.648437-2.144531 66.988281 7.535157 94.257813 27.363282 2.9375 2.183594 5.707031 4.53125 8.394531 6.96875 23.878906-20.886719 54.171875-32.996094 85.863281-34.332032 29.917969 1.066407 58.46875 12.796876 80.496094 33.070313 38.441406 36.847656 40.957031 119.859375 27.949218 176.597656zm0 0" fill="#e8edfc"/><g fill="#fff"><path d="m158.980469 437.894531-.335938.167969c-5.550781 2.921875-9.039062 8.667969-9.0625 14.941406-.011719 1.769532.273438 3.527344.835938 5.203125 2.933593 8.800781 12.410156 13.59375 21.238281 10.742188l9.289062-3.039063c-2.476562-2.007812-4.332031-4.679687-5.34375-7.703125-.566406-1.675781-.847656-3.433593-.839843-5.203125.027343-6.273437 3.511719-12.019531 9.0625-14.941406l.335937-.167969c.707032-.332031 1.4375-.609375 2.183594-.839843l18.894531-6.175782-7.050781-34.078125-16.703125 5.453125c-2.328125.742188-4.789063.96875-7.210937.65625l5.785156 27.96875-18.894532 6.175782c-.746093.230468-1.476562.507812-2.183593.839843zm0 0"/><path d="m214.378906 493.375c4.058594 1.355469 8.308594 2.035156 12.589844 2.015625 4.25-.035156 8.46875-.722656 12.503906-2.050781-13.605468-4.363282-23.96875-15.492188-27.351562-29.375l-15.285156 5.035156c-2.625.832031-5.414063 1-8.117188.488281 4.550781 11.398438 13.964844 20.160157 25.660156 23.886719zm0 0"/><path d="m25.609375 249.292969c17.039063 14.6875 50.78125 32.566406 116.921875 40.539062 2.761719.328125 5.699219.605469 8.578125.898438l15.007813 72.957031-20.3125 6.640625c-.746094.226563-1.476563.507813-2.183594.839844l-.335938.167969c-5.566406 2.902343-9.0625 8.660156-9.066406 14.9375-.007812 1.769531.277344 3.527343.839844 5.207031 2.933594 8.800781 12.410156 13.59375 21.238281 10.742187l9.289063-3.039062c-2.476563-2.007813-4.332032-4.679688-5.347657-7.703125-.5625-1.679688-.847656-3.4375-.835937-5.207031.003906-6.277344 3.496094-12.035157 9.0625-14.9375l.335937-.167969c.707031-.332031 1.4375-.613281 2.183594-.839844l20.3125-6.640625-15.007813-72.957031c-2.878906-.292969-5.816406-.570313-8.578124-.898438-66.140626-7.972656-99.882813-25.851562-116.921876-40.539062-9.179687-8.066407-15.535156-18.859375-18.128906-30.804688-13.011718-56.738281-10.492187-139.75 27.949219-176.597656 20.941406-19.3125 47.882813-30.847656 76.3125-32.675781-6.976563-.621094-13.988281-.753906-20.984375-.394532-29.921875 1.0625-58.476562 12.792969-80.507812 33.070313-38.441407 36.847656-40.960938 119.859375-27.949219 176.597656 2.59375 11.945313 8.949219 22.738281 18.128906 30.804688zm0 0"/><path d="m49.632812 47.953125c-11.542968 12.230469-19.871093 27.136719-24.242187 43.375-4.734375 16.851563-7.402344 34.210937-7.949219 51.703125-.957031 24.722656 1.253906 49.460938 6.582032 73.621094l-16.367188 3.734375c-5.664062-25.613281-8.011719-51.847657-6.984375-78.058594.597656-18.898437 3.496094-37.65625 8.636719-55.851563 5.179687-19.027343 15.050781-36.457031 28.707031-50.6875zm0 0"/></g><path d="m9.578125 108.109375c.90625.605469 1.929687 1.027344 3.003906 1.230469 2.195313.347656 4.445313-.101563 6.335938-1.265625 1.792969-1.195313 3.054687-3.035157 3.527343-5.136719.382813-2.09375.027344-4.257812-1.007812-6.117188l-.964844-1.269531c-.371094-.421875-.796875-.789062-1.269531-1.097656-.398437-.34375-.84375-.628906-1.324219-.839844-.511718-.238281-1.039062-.4375-1.578125-.605469-2.164062-.570312-4.460937-.269531-6.402343.839844-.960938.621094-1.796876 1.417969-2.460938 2.347656-1.957031 2.894532-2.042969 6.667969-.21875 9.644532.625.910156 1.425781 1.679687 2.359375 2.269531zm0 0" fill="#428dff"/><path d="m7.65625 220.386719c2.996094 13.6875 10.3125 26.046875 20.875 35.253906 16.652344 14.367187 50.175781 33.027344 115.367188 41.738281l12.480468 60.675782-13.160156 4.308593c-8.816406 2.578125-15.527344 9.753907-17.515625 18.71875-1.984375 8.96875 1.070313 18.304688 7.96875 24.367188 6.902344 6.058593 16.554687 7.882812 25.191406 4.753906l7.8125-2.515625 3.636719 17.566406-11.75 3.828125c-12.789062 4.628907-19.585938 18.574219-15.359375 31.5s17.953125 20.160157 31.003906 16.339844l7.503907-2.449219c8.792968 19.640625 29.253906 31.363282 50.648437 29.023438 21.390625-2.34375 38.828125-18.21875 43.164063-39.296875l4.558593-21.890625 21.167969-6.914063c12.128906-3.90625 19.417969-16.273437 16.957031-28.777343-2.464843-12.503907-13.894531-21.183594-26.601562-20.199219l4.355469-21.035157 22.722656-7.425781c12.242187-4.125 19.378906-16.839843 16.519531-29.4375-2.859375-12.597656-14.785156-20.988281-27.609375-19.421875l2.410156-11.75c65.191406-8.714844 98.714844-27.371094 115.367188-41.742187 10.5625-9.207031 17.878906-21.566407 20.875-35.253907 14.480468-63.394531 8.703125-147.144531-30.359375-184.546874-48.453125-46.539063-134.90625-47.632813-188.917969-3.734376-54.011719-43.898437-140.457031-42.804687-188.945312 3.761719-8.613282 8.691407-15.648438 18.8125-20.800782 29.914063-1.019531 2.039062-1.148437 4.410156-.351562 6.546875.792968 2.136719 2.441406 3.84375 4.550781 4.71875 4.167969 1.695312 8.941406-.078125 10.984375-4.089844 4.269531-9.246094 10.097656-17.695313 17.226562-24.96875 43.410157-41.675781 125.230469-41.003906 171.679688 1.390625 3.605469 3.5 53.808594 51.554688 97.984375 51.554688 4.632813 0 8.390625-3.757813 8.390625-8.394532 0-4.636718-3.757812-8.394531-8.390625-8.394531-29.488281 0-64.847656-27.882813-79.503906-40.648437 47.289062-36.402344 123.214843-35.132813 164.511719 4.492187 34.1875 32.734375 38.710937 111.347656 25.609374 168.707031-2.210937 10.183594-7.636718 19.390625-15.480468 26.253906-15.390625 13.277344-47.394532 30.761719-112.421875 38.609376-24.914063 2.820312-49.972657 4.164062-75.042969 4.03125-25.070312.125-50.128906-1.226563-75.039062-4.054688-65.03125-7.832031-97.027344-25.324219-112.429688-38.59375-7.839844-6.867188-13.265625-16.070312-15.476562-26.253906-5.324219-24.15625-7.535157-48.894532-6.582032-73.609375l.394532-8.125c.304687-4.613281-3.175782-8.601563-7.78125-8.925781-4.609376-.324219-8.613282 3.132812-8.960938 7.742187l-.421875 8.644531c-1.023437 26.191406 1.324219 52.40625 6.984375 78zm251.46875 240.40625c-3.1875 15.230469-16.597656 26.15625-32.15625 26.203125-12.269531.003906-23.503906-6.878906-29.074219-17.8125l63.789063-20.855469zm38.128906-56.816407c3.027344 1.535157 4.828125 4.746094 4.566406 8.128907-.257812 3.382812-2.53125 6.277343-5.757812 7.332031l-111.0625 36.316406-15.945312 5.222656c-2.875 1.03125-6.085938.417969-8.378907-1.597656-2.292969-2.019531-3.308593-5.125-2.652343-8.105468.65625-2.984376 2.878906-5.375 5.808593-6.246094l127.019531-41.546875c.84375-.273438 1.726563-.417969 2.617188-.417969 1.316406.003906 2.613281.316406 3.785156.914062zm-23.8125-12.464843-87.074218 28.453125-3.632813-17.558594 94.847656-31.011719zm37.460938-65.886719c2.917968-.003906 5.628906 1.511719 7.15625 4s1.652344 5.589844.332031 8.195312c-1 1.996094-2.753906 3.507813-4.878906 4.195313l-159.859375 52.234375c-4.347656 1.261719-8.914063-1.148438-10.320313-5.453125-1.410156-4.304687.851563-8.949219 5.105469-10.496094l159.847656-52.25c.84375-.277343 1.726563-.421875 2.617188-.425781zm-18.398438-26.28125-3.113281 15.21875-116.980469 38.222656-10.996094-53.441406c20.085938 1.949219 41.96875 2.996094 65.519532 2.996094 23.550781 0 45.476562-1.046875 65.5625-2.996094zm0 0" fill="#428dff"/><path d="m83.777344 72.78125c4.035156-2.09375 5.671875-7.015625 3.695312-11.105469-1.980468-4.09375-6.855468-5.867187-11-4.003906-.585937.277344-58.5 29.160156-35.941406 111.882813.789062 2.894531 3.0625 5.148437 5.964844 5.910156 2.898437.765625 5.984375-.074219 8.097656-2.207032 2.113281-2.128906 2.925781-5.222656 2.136719-8.117187-18.742188-68.707031 25.03125-91.363281 27.046875-92.359375zm0 0" fill="#428dff"/><path d="m117.851562 50.535156c0 4.636719-3.757812 8.394532-8.390624 8.394532-4.636719 0-8.394532-3.757813-8.394532-8.394532 0-4.632812 3.757813-8.390625 8.394532-8.390625 4.632812 0 8.390624 3.757813 8.390624 8.390625zm0 0" fill="#428dff"/></svg>