<svg height="512pt" viewBox="0 -55 512 512" width="512pt" xmlns="http://www.w3.org/2000/svg"><path d="m256 136.550781v51.199219c-.027344 9.414062-7.652344 17.039062-17.066406 17.066406h-42.667969c-9.414063-.027344-17.039063-7.652344-17.066406-17.066406v-59.734375c-.441407-9.179687 3.011719-18.121094 9.511719-24.621094s15.441406-9.957031 24.621093-9.511719c11.328125-.035156 22.199219 4.449219 30.207031 12.460938 8.011719 8.007812 12.496094 18.878906 12.460938 30.207031zm0 0" fill="#fac176"/><path d="m179.199219 135.609375v43.605469c-.027344 9.414062-7.652344 17.039062-17.066407 17.070312h-34.132812c-9.414062-.03125-17.039062-7.65625-17.066406-17.070312v-51.199219c-.394532-8.171875 2.679687-16.128906 8.464844-21.914063 5.785156-5.785156 13.742187-8.859374 21.914062-8.464843 10.0625 0 19.714844 4 26.824219 11.125 7.105469 7.125 11.089843 16.785156 11.0625 26.847656zm0 0" fill="#fac176"/><path d="m110.933594 134.671875v36.011719c-.027344 9.414062-7.652344 17.039062-17.066406 17.066406h-25.601563c-9.414063-.027344-17.039063-7.652344-17.066406-17.066406v-42.667969c-.339844-7.136719 2.347656-14.085937 7.398437-19.136719 5.054688-5.054687 12.003906-7.742187 19.140625-7.402344 18.328125.011719 33.1875 14.867188 33.195313 33.195313zm0 0" fill="#fac176"/><path d="m51.199219 135.269531v30.976563c.171875 2.257812-1.5 4.234375-3.753907 4.4375h-13.3125c-9.414062-.027344-17.039062-7.652344-17.066406-17.066406v-22.785157c-.484375-4.390625.875-8.785156 3.757813-12.132812 2.878906-3.347657 7.019531-5.351563 11.433593-5.53125 5.207032.0625 10.117188 2.4375 13.394532 6.484375 3.632812 4.390625 5.597656 9.921875 5.546875 15.617187zm0 0" fill="#fac176"/><path d="m503.464844 68.285156v59.730469c0 4.714844-3.820313 8.535156-8.53125 8.535156v-5.71875c.484375-4.390625-.875-8.785156-3.757813-12.132812-2.878906-3.347657-7.019531-5.351563-11.433593-5.53125-5.207032.0625-10.117188 2.4375-13.394532 6.484375-3.632812 4.390625-5.597656 9.921875-5.546875 15.617187v-7.253906c.339844-7.136719-2.347656-14.085937-7.398437-19.136719-5.054688-5.054687-12.003906-7.742187-19.140625-7.402344-18.328125.011719-33.1875 14.867188-33.195313 33.195313v-6.65625c.394532-8.171875-2.679687-16.128906-8.464844-21.914063-5.785156-5.785156-13.742187-8.859374-21.914062-8.464843-10.0625 0-19.714844 4-26.824219 11.125-7.105469 7.125-11.089843 16.785156-11.0625 26.847656v-7.59375c.441407-9.179687-3.011719-18.121094-9.511719-24.621094s-15.441406-9.957031-24.621093-9.511719c-11.328125-.035156-22.199219 4.449219-30.207031 12.460938-8.011719 8.007812-12.496094 18.878906-12.460938 30.207031.035156-11.328125-4.449219-22.199219-12.460938-30.207031-8.007812-8.011719-18.878906-12.496094-30.207031-12.460938-9.179687-.445312-18.121093 3.011719-24.621093 9.511719s-9.953126 15.441407-9.511719 24.621094v7.59375c.027343-10.0625-3.957031-19.722656-11.0625-26.847656-7.109375-7.125-16.761719-11.125-26.824219-11.125-8.171875-.394531-16.128906 2.679687-21.914062 8.464843-5.785157 5.785157-8.859376 13.742188-8.464844 21.914063v6.65625c-.007813-18.328125-14.867188-33.183594-33.195313-33.195313-7.136719-.339843-14.085937 2.347657-19.140625 7.402344-5.050781 5.050782-7.738281 12-7.398437 19.136719v7.253906c.050781-5.695312-1.914063-11.226562-5.546875-15.617187-3.277344-4.046875-8.1875-6.421875-13.394532-6.484375-4.414062.179687-8.554687 2.183593-11.433593 5.53125-2.882813 3.347656-4.242188 7.742187-3.757813 12.132812v5.71875c-4.710937 0-8.53125-3.820312-8.53125-8.535156v-59.730469c0-28.246094 110.761719-51.203125 247.464844-51.203125s247.464844 22.957031 247.464844 51.203125zm0 0" fill="#a4c2f7"/><path d="m332.800781 128.015625v59.734375c-.027343 9.414062-7.652343 17.039062-17.066406 17.066406h-42.667969c-9.414062-.027344-17.039062-7.652344-17.066406-17.066406v-51.199219c-.035156-11.328125 4.449219-22.199219 12.460938-30.207031 8.007812-8.011719 18.878906-12.496094 30.207031-12.460938 9.179687-.445312 18.121093 3.011719 24.621093 9.511719s9.953126 15.441407 9.511719 24.621094zm0 0" fill="#fac176"/><path d="m401.066406 128.015625v51.199219c-.027344 9.414062-7.652344 17.039062-17.066406 17.070312h-34.132812c-9.414063-.03125-17.039063-7.65625-17.066407-17.070312v-43.605469c-.027343-10.0625 3.957031-19.722656 11.0625-26.847656 7.109375-7.125 16.761719-11.125 26.824219-11.125 8.171875-.394531 16.128906 2.679687 21.914062 8.464843 5.785157 5.785157 8.859376 13.742188 8.464844 21.914063zm0 0" fill="#fac176"/><path d="m460.800781 128.015625v42.667969c-.027343 9.414062-7.652343 17.039062-17.066406 17.066406h-25.601563c-9.414062-.027344-17.039062-7.652344-17.066406-17.066406v-36.011719c.007813-18.328125 14.867188-33.183594 33.195313-33.195313 7.136719-.339843 14.085937 2.347657 19.140625 7.402344 5.050781 5.050782 7.738281 12 7.398437 19.136719zm0 0" fill="#fac176"/><path d="m494.933594 130.832031v22.785157c-.027344 9.414062-7.652344 17.039062-17.066406 17.066406h-13.3125c-2.253907-.203125-3.925782-2.179688-3.753907-4.4375v-30.976563c-.050781-5.695312 1.914063-11.226562 5.546875-15.617187 3.277344-4.046875 8.1875-6.421875 13.394532-6.484375 4.414062.179687 8.554687 2.183593 11.433593 5.53125 2.882813 3.347656 4.242188 7.742187 3.757813 12.132812zm0 0" fill="#fac176"/><path d="m256 145.082031v42.667969c-.027344 9.414062-7.652344 17.039062-17.066406 17.066406h-42.667969c-9.414063-.027344-17.039063-7.652344-17.066406-17.066406v-52.140625c-.285157-15.480469 10.394531-29.011719 25.515625-32.339844h.171875c2.773437-.605469 5.605469-.890625 8.445312-.851562 11.328125-.035157 22.199219 4.449219 30.207031 12.457031 8.011719 8.007812 12.496094 18.882812 12.460938 30.207031zm0 0" fill="#cad9fc"/><path d="m179.199219 144.144531v35.070313c-.027344 9.414062-7.652344 17.039062-17.066407 17.070312h-34.132812c-9.414062-.03125-17.039062-7.65625-17.066406-17.070312v-42.664063c-.574219-13.691406 8.492187-25.921875 21.757812-29.355469 2.820313-.710937 5.714844-1.054687 8.621094-1.023437 10.0625-.003906 19.714844 4 26.824219 11.125 7.105469 7.125 11.089843 16.785156 11.0625 26.847656zm0 0" fill="#cad9fc"/><path d="m110.933594 143.207031v27.476563c-.027344 9.414062-7.652344 17.039062-17.066406 17.066406h-25.601563c-9.414063-.027344-17.039063-7.652344-17.066406-17.066406v-34.132813c-.484375-11.613281 6.960937-22.082031 18.089843-25.429687 2.746094-.789063 5.59375-1.164063 8.449219-1.109375 18.328125.007812 33.1875 14.867187 33.195313 33.195312zm0 0" fill="#cad9fc"/><path d="m51.199219 143.804688v22.441406c.171875 2.257812-1.5 4.234375-3.753907 4.4375h-13.3125c-9.414062-.027344-17.039062-7.652344-17.066406-17.066406v-14.25c-.484375-4.390626.875-8.785157 3.757813-12.132813 2.878906-3.351563 7.019531-5.351563 11.433593-5.53125 5.207032.058594 10.117188 2.4375 13.394532 6.484375 3.632812 4.390625 5.597656 9.917969 5.546875 15.617188zm0 0" fill="#e8edfc"/><path d="m332.800781 135.609375v52.140625c-.027343 9.414062-7.652343 17.039062-17.066406 17.066406h-42.667969c-9.414062-.027344-17.039062-7.652344-17.066406-17.066406v-42.667969c-.0625-20.269531 14.1875-37.765625 34.046875-41.8125h.171875c2.777344-.585937 5.609375-.875 8.449219-.851562 9.027343-.480469 17.84375 2.832031 24.324219 9.132812 6.480468 6.300781 10.035156 15.023438 9.808593 24.058594zm0 0" fill="#cad9fc"/><path d="m401.066406 136.550781v42.664063c-.027344 9.414062-7.652344 17.039062-17.066406 17.070312h-34.132812c-9.414063-.03125-17.039063-7.65625-17.066407-17.070312v-35.070313c.003907-10.074219 3.992188-19.734375 11.09375-26.878906 5.019531-5.050781 11.390625-8.546875 18.34375-10.070313 2.765625-.6875 5.601563-1.03125 8.449219-1.023437 8.171875-.394531 16.128906 2.679687 21.914062 8.464844 5.785157 5.785156 8.859376 13.742187 8.464844 21.914062zm0 0" fill="#cad9fc"/><path d="m460.800781 136.550781v34.132813c-.027343 9.414062-7.652343 17.039062-17.066406 17.066406h-25.601563c-9.414062-.027344-17.039062-7.652344-17.066406-17.066406v-27.476563c-.011718-8.804687 3.492188-17.253906 9.726563-23.46875 4.089843-4.148437 9.21875-7.125 14.851562-8.617187 2.816407-.722656 5.710938-1.09375 8.617188-1.109375 7.136719-.339844 14.085937 2.347656 19.140625 7.398437 5.050781 5.054688 7.738281 12.003906 7.398437 19.140625zm0 0" fill="#cad9fc"/><path d="m494.933594 139.367188v14.25c-.027344 9.414062-7.652344 17.039062-17.066406 17.066406h-13.3125c-2.253907-.203125-3.925782-2.179688-3.753907-4.4375v-22.441406c-.050781-5.699219 1.914063-11.226563 5.546875-15.617188 3.277344-4.046875 8.1875-6.425781 13.394532-6.484375 4.414062.179687 8.554687 2.179687 11.433593 5.53125 2.882813 3.347656 4.242188 7.742187 3.757813 12.132813zm0 0" fill="#cad9fc"/><g fill="#fac176"><path d="m256 266.597656v32.9375c.007812 10.933594-4.332031 21.421875-12.0625 29.152344-7.734375 7.730469-18.21875 12.070312-29.152344 12.066406h-1.453125c-25.597656 0-34.132812-11.09375-34.132812-24.746094v-49.410156c0-13.667968 11.082031-24.746094 24.746093-24.746094h27.308594c13.667969 0 24.746094 11.078126 24.746094 24.746094zm0 0"/><path d="m179.199219 258.066406v33.875c.003906 9.710938-3.851563 19.023438-10.71875 25.890625-6.867188 6.863281-16.179688 10.71875-25.886719 10.71875h-1.28125c-8.019531.546875-15.894531-2.320312-21.683594-7.898437-5.785156-5.574219-8.945312-13.339844-8.695312-21.371094v-41.214844c-.042969-6.40625 2.441406-12.570312 6.910156-17.152344 4.660156-4.859374 11.105469-7.605468 17.835938-7.597656h18.773437c13.667969 0 24.746094 11.082032 24.746094 24.75zm0 0"/><path d="m110.933594 289.210938v8.535156c-6.003906 6.613281-14.535156 10.363281-23.46875 10.324218h-1.191406c-7.007813.46875-13.886719-2.046874-18.941407-6.921874-5.054687-4.875-7.8125-11.660157-7.597656-18.679688v-8.53125c-.214844 7.019531 2.542969 13.800781 7.597656 18.679688 5.054688 4.875 11.933594 7.386718 18.941407 6.917968h1.191406c8.933594.042969 17.464844-3.710937 23.46875-10.324218zm0 0"/><path d="m59.734375 243.386719v10.410156c.0625 5.699219-1.902344 11.234375-5.546875 15.617187-3.28125 4.046876-8.191406 6.421876-13.398438 6.484376-5.09375.207031-9.875-2.464844-12.375-6.910157-1.890624-3.265625-2.863281-6.980469-2.8125-10.753906v-14.847656c.003907-9.09375 7.375-16.464844 16.46875-16.46875h1.195313c9.09375.003906 16.464844 7.375 16.46875 16.46875zm0 0"/><path d="m332.800781 266.597656v49.410156c0 13.652344-8.535156 24.746094-34.132812 24.746094h-1.453125c-10.933594.003906-21.417969-4.335937-29.152344-12.066406-7.730469-7.730469-12.070312-18.21875-12.0625-29.152344v-32.9375c0-13.667968 11.078125-24.746094 24.746094-24.746094h27.308594c13.664062 0 24.746093 11.078126 24.746093 24.746094zm0 0"/><path d="m401.066406 258.066406v41.214844c.25 8.03125-2.910156 15.796875-8.695312 21.371094-5.789063 5.578125-13.664063 8.445312-21.683594 7.898437h-1.28125c-9.707031 0-19.019531-3.855469-25.886719-10.71875-6.867187-6.867187-10.722656-16.179687-10.71875-25.890625v-33.875c0-13.667968 11.078125-24.75 24.746094-24.75h18.773437c6.730469-.007812 13.175782 2.738282 17.835938 7.597656 4.46875 4.582032 6.953125 10.746094 6.910156 17.152344zm0 0"/><path d="m452.265625 273.9375v8.53125c.214844 7.019531-2.542969 13.804688-7.597656 18.679688-5.054688 4.875-11.933594 7.390624-18.941407 6.921874h-1.191406c-8.933594.039063-17.464844-3.710937-23.46875-10.324218v-8.535156c6.003906 6.613281 14.535156 10.367187 23.46875 10.324218h1.191406c7.007813.46875 13.886719-2.042968 18.941407-6.917968 5.054687-4.878907 7.8125-11.660157 7.597656-18.679688zm0 0"/><path d="m486.398438 243.386719v14.847656c.050781 3.773437-.921876 7.488281-2.8125 10.753906-2.5 4.445313-7.28125 7.117188-12.375 6.910157-5.207032-.0625-10.117188-2.4375-13.398438-6.484376-3.644531-4.382812-5.609375-9.917968-5.546875-15.617187v-10.410156c.003906-9.09375 7.375-16.464844 16.46875-16.46875h1.195313c9.09375.003906 16.464843 7.375 16.46875 16.46875zm0 0"/></g><path d="m256 266.597656v24.40625c.007812 10.933594-4.332031 21.421875-12.0625 29.152344-7.734375 7.730469-18.21875 12.070312-29.152344 12.0625h-1.453125c-3.054687.035156-6.105469-.164062-9.128906-.597656-18.519531-2.304688-25.003906-12.289063-25.003906-24.148438v-40.875c0-13.667968 11.082031-24.746094 24.746093-24.746094h27.308594c13.667969 0 24.746094 11.078126 24.746094 24.746094zm0 0" fill="#cad9fc"/><path d="m238.933594 145.082031v42.667969c-.027344 9.414062-7.652344 17.039062-17.066406 17.066406h-25.601563c-9.414063-.027344-17.039063-7.652344-17.066406-17.066406v-52.140625c-.285157-15.480469 10.394531-29.011719 25.515625-32.339844h.171875c19.859375 4.046875 34.109375 21.542969 34.046875 41.8125zm0 0" fill="#e8edfc"/><path d="m238.933594 266.597656v24.40625c.019531 20.25-14.722656 37.492188-34.730469 40.617188-18.519531-2.304688-25.003906-12.289063-25.003906-24.148438v-40.875c0-13.667968 11.082031-24.746094 24.746093-24.746094h10.242188c13.667969 0 24.746094 11.078126 24.746094 24.746094zm0 0" fill="#e8edfc"/><path d="m179.199219 258.066406v25.34375c.003906 9.707032-3.851563 19.019532-10.71875 25.886719-6.867188 6.867187-16.179688 10.722656-25.886719 10.71875h-1.28125c-2.726562.039063-5.449219-.246094-8.105469-.851563-13.34375-2.804687-22.738281-14.792968-22.273437-28.417968v-32.679688c-.042969-6.40625 2.441406-12.570312 6.910156-17.152344 4.660156-4.859374 11.105469-7.605468 17.835938-7.597656h18.773437c13.667969 0 24.746094 11.082032 24.746094 24.75zm0 0" fill="#cad9fc"/><path d="m162.132812 144.144531v35.070313c-.027343 9.414062-7.652343 17.039062-17.066406 17.070312h-17.066406c-9.414062-.03125-17.039062-7.65625-17.066406-17.070312v-42.664063c-.574219-13.691406 8.492187-25.921875 21.757812-29.355469 6.957032 1.523438 13.328125 5.019532 18.347656 10.070313 7.101563 7.144531 11.089844 16.804687 11.09375 26.878906zm0 0" fill="#e8edfc"/><path d="m162.132812 258.066406v25.34375c.015626 17.253906-12.050781 32.164063-28.925781 35.753906-13.34375-2.804687-22.738281-14.792968-22.273437-28.417968v-32.679688c-.042969-6.40625 2.441406-12.570312 6.910156-17.152344 4.660156-4.859374 11.105469-7.605468 17.835938-7.597656h1.707031c13.667969 0 24.746093 11.082032 24.746093 24.75zm0 0" fill="#e8edfc"/><path d="m117.84375 240.914062c-4.46875 4.582032-6.953125 10.746094-6.910156 17.152344v31.144532c-6.003906 6.613281-14.535156 10.367187-23.46875 10.324218h-1.191406c-2.710938.035156-5.410157-.308594-8.023438-1.023437-11.175781-2.828125-18.878906-13.050781-18.515625-24.574219v-24.40625c.007813-12.339844 9.109375-22.789062 21.332031-24.492188 1.128906-.171874 2.269532-.257812 3.414063-.253906h10.238281c8.195312.003906 15.847656 4.101563 20.394531 10.921875 1.160157 1.59375 2.078125 3.347657 2.730469 5.207031zm0 0" fill="#cad9fc"/><path d="m93.867188 143.207031v27.476563c-.027344 9.414062-7.652344 17.039062-17.066407 17.066406h-8.535156c-9.414063-.027344-17.039063-7.652344-17.066406-17.066406v-34.132813c-.484375-11.613281 6.960937-22.082031 18.089843-25.429687 5.632813 1.492187 10.761719 4.46875 14.847657 8.617187 6.238281 6.214844 9.738281 14.664063 9.730469 23.46875zm0 0" fill="#e8edfc"/><path d="m104.535156 235.390625c-5.691406 6.359375-9.398437 14.238281-10.667968 22.675781v44.882813c-4.097657 4.523437-10.242188-.304688-16.359376 1.144531-13.652343-3.328125-17.773437-21.113281-17.773437-30.15625v-24.40625c.007813-12.339844 9.109375-22.789062 21.332031-24.492188 6.996094.941407 12.605469-3.839843 16.359375 1.878907 2.578125 2.640625 4.953125 5.472656 7.109375 8.472656zm0 0" fill="#e8edfc"/><path d="m59.734375 243.386719v1.878906c.0625 5.699219-1.902344 11.234375-5.546875 15.613281-3.28125 4.046875-8.191406 6.425782-13.398438 6.488282-5.09375.203124-9.875-2.46875-12.375-6.914063-1.890624-3.261719-2.863281-6.980469-2.8125-10.75v-6.316406c.003907-9.09375 7.375-16.464844 16.46875-16.46875h1.195313c9.09375.003906 16.464844 7.375 16.46875 16.46875zm0 0" fill="#e8edfc"/><path d="m332.800781 266.597656v40.875c0 13.652344-8.535156 24.746094-34.132812 24.746094h-1.453125c-2.175782.015625-4.347656-.183594-6.484375-.597656-20.007813-3.125-34.75-20.367188-34.730469-40.617188v-24.40625c0-13.667968 11.078125-24.746094 24.746094-24.746094h27.308594c13.664062 0 24.746093 11.078126 24.746093 24.746094zm0 0" fill="#cad9fc"/><path d="m315.734375 135.609375v52.140625c-.027344 9.414062-7.652344 17.039062-17.066406 17.066406h-25.601563c-9.414062-.027344-17.039062-7.652344-17.066406-17.066406v-42.667969c-.0625-20.269531 14.1875-37.765625 34.046875-41.8125h.171875c15.121094 3.328125 25.800781 16.859375 25.515625 32.339844zm0 0" fill="#e8edfc"/><path d="m315.734375 266.597656v40.875c0 11.859375-6.488281 21.84375-25.003906 24.148438-20.007813-3.125-34.75-20.367188-34.730469-40.617188v-24.40625c0-13.667968 11.078125-24.746094 24.746094-24.746094h10.242187c13.664063 0 24.746094 11.078126 24.746094 24.746094zm0 0" fill="#e8edfc"/><path d="m401.066406 258.066406v32.679688c.25 8.035156-2.910156 15.796875-8.695312 21.375-5.789063 5.574218-13.664063 8.445312-21.683594 7.894531h-1.28125c-2.582031.023437-5.160156-.265625-7.679688-.851563-16.875-3.589843-28.941406-18.5-28.925781-35.753906v-25.34375c0-13.667968 11.078125-24.75 24.746094-24.75h18.773437c6.730469-.007812 13.175782 2.738282 17.835938 7.597656 4.46875 4.582032 6.953125 10.746094 6.910156 17.152344zm0 0" fill="#cad9fc"/><path d="m384 136.550781v42.664063c-.027344 9.414062-7.652344 17.039062-17.066406 17.070312h-17.066406c-9.414063-.03125-17.039063-7.65625-17.066407-17.070312v-35.070313c.003907-10.074219 3.992188-19.734375 11.09375-26.878906 5.019531-5.050781 11.390625-8.546875 18.34375-10.070313 13.269531 3.433594 22.335938 15.664063 21.761719 29.355469zm0 0" fill="#e8edfc"/><path d="m384 258.066406v32.679688c.464844 13.625-8.929688 25.613281-22.273438 28.417968-16.875-3.589843-28.941406-18.5-28.925781-35.753906v-25.34375c0-13.667968 11.078125-24.75 24.746094-24.75h1.707031c6.730469-.007812 13.175782 2.738282 17.835938 7.597656 4.46875 4.582032 6.953125 10.746094 6.910156 17.152344zm0 0" fill="#e8edfc"/><path d="m452.265625 249.53125v24.40625c.214844 7.019531-2.542969 13.800781-7.597656 18.679688-5.054688 4.875-11.933594 7.386718-18.941407 6.917968h-1.191406c-2.652344.015625-5.292968-.332031-7.851562-1.023437-6.027344-1.445313-11.476563-4.6875-15.617188-9.300781v-31.144532c.042969-6.40625-2.441406-12.570312-6.910156-17.152344.652344-1.859374 1.570312-3.613281 2.730469-5.207031 3.859375-5.832031 10.046875-9.722656 16.980469-10.667969 1.128906-.167968 2.269531-.253906 3.414062-.253906h10.238281c6.5625 0 12.859375 2.605469 17.5 7.246094s7.246094 10.9375 7.246094 17.5zm0 0" fill="#cad9fc"/><path d="m443.734375 136.550781v34.132813c-.027344 9.414062-7.652344 17.039062-17.066406 17.066406h-8.535157c-9.414062-.027344-17.039062-7.652344-17.066406-17.066406v-27.476563c-.011718-8.804687 3.492188-17.253906 9.726563-23.46875 4.089843-4.148437 9.21875-7.125 14.851562-8.617187 11.128907 3.347656 18.574219 13.816406 18.089844 25.429687zm0 0" fill="#e8edfc"/><path d="m435.199219 249.53125v24.40625c.363281 11.523438-7.339844 21.746094-18.515625 24.574219-6.027344-1.445313-11.476563-4.6875-15.617188-9.300781v-31.144532c.042969-6.40625-2.441406-12.570312-6.910156-17.152344.652344-1.859374 1.570312-3.613281 2.730469-5.207031 3.859375-5.832031 10.046875-9.722656 16.980469-10.667969 12.222656 1.703126 21.324218 12.152344 21.332031 24.492188zm0 0" fill="#e8edfc"/><path d="m486.398438 243.386719v6.316406c.050781 3.769531-.921876 7.488281-2.8125 10.75-2.5 4.445313-7.28125 7.117187-12.375 6.914063-5.207032-.0625-10.117188-2.441407-13.398438-6.488282-3.644531-4.378906-5.609375-9.914062-5.546875-15.613281v-1.878906c.003906-9.09375 7.375-16.464844 16.46875-16.46875h1.195313c9.09375.003906 16.464843 7.375 16.46875 16.46875zm0 0" fill="#cad9fc"/><path d="m494.933594 277.179688v65.960937c0 27.222656-106.921875 49.410156-238.933594 49.410156s-238.933594-22.1875-238.933594-49.410156v-65.960937c.003906-2.1875.882813-4.28125 2.433594-5.816407 1.554688-1.539062 3.65625-2.394531 5.84375-2.375h3.070312c2.5 4.445313 7.28125 7.117188 12.375 6.910157 5.207032-.0625 10.117188-2.4375 13.398438-6.484376 3.644531-4.382812 5.609375-9.917968 5.546875-15.617187v28.671875c-.214844 7.019531 2.542969 13.804688 7.597656 18.679688 5.054688 4.875 11.933594 7.390624 18.941407 6.921874h1.191406c8.933594.039063 17.464844-3.710937 23.46875-10.324218v1.535156c-.25 8.03125 2.910156 15.796875 8.695312 21.371094 5.789063 5.578125 13.664063 8.445312 21.683594 7.898437h1.28125c9.707031 0 19.019531-3.855469 25.886719-10.71875 6.867187-6.867187 10.722656-16.179687 10.71875-25.890625v24.066406c0 13.652344 8.535156 24.746094 34.132812 24.746094h1.453125c10.933594.003906 21.417969-4.335937 29.152344-12.066406 7.730469-7.730469 12.070312-18.21875 12.0625-29.152344-.007812 10.933594 4.332031 21.421875 12.0625 29.152344 7.734375 7.730469 18.21875 12.070312 29.152344 12.066406h1.453125c25.597656 0 34.132812-11.09375 34.132812-24.746094v-24.066406c-.003906 9.710938 3.851563 19.023438 10.71875 25.890625 6.867188 6.863281 16.179688 10.71875 25.886719 10.71875h1.28125c8.019531.546875 15.894531-2.320312 21.683594-7.898437 5.785156-5.574219 8.945312-13.339844 8.695312-21.371094v-1.535156c6.003906 6.613281 14.535156 10.363281 23.46875 10.324218h1.191406c7.007813.46875 13.886719-2.046874 18.941407-6.921874 5.054687-4.875 7.8125-11.660157 7.597656-18.679688v-28.671875c-.0625 5.699219 1.902344 11.234375 5.546875 15.617187 3.28125 4.046876 8.191406 6.421876 13.398438 6.484376 5.09375.207031 9.875-2.464844 12.375-6.910157h3.070312c2.1875-.019531 4.289062.835938 5.84375 2.375 1.550781 1.535157 2.429688 3.628907 2.433594 5.816407zm0 0" fill="#a4c2f7"/><path d="m473.601562 273.9375h17.773438v82.347656h-17.773438zm0 0" fill="#7facfa"/><path d="m482.132812 43.535156h17.777344v72.246094h-17.777344zm0 0" fill="#7facfa"/><path d="m8.535156 42.683594v85.332031c0 4.714844 3.820313 8.535156 8.53125 8.535156v17.066407c.027344 9.414062 7.652344 17.039062 17.066406 17.066406h13.3125c1.558594-.066406 2.914063-1.082032 3.414063-2.558594-5.066406-3.085938-8.167969-8.578125-8.191406-14.507812v-17.066407c-4.714844 0-8.535157-3.820312-8.535157-8.535156v-85.332031" fill="#fff"/><path d="m59.734375 170.683594c-3.007813-.019532-5.953125-.839844-8.535156-2.382813v2.382813" fill="#fff"/><path d="m42.667969 360.207031v-83.027343c.003906-2.1875.878906-4.28125 2.433593-5.816407 1.554688-1.539062 3.65625-2.394531 5.84375-2.375h3.070313c-1.890625-3.265625-2.863281-6.980469-2.816406-10.753906v-14.847656c.015625-4.058594 1.535156-7.964844 4.265625-10.964844-3.097656-3.488281-7.535156-5.492187-12.199219-5.503906h-1.195313c-9.09375.003906-16.464843 7.375-16.46875 16.46875v14.847656c-.050781 3.773437.921876 7.488281 2.8125 10.753906h-3.070312c-2.1875-.019531-4.289062.835938-5.84375 2.375-1.550781 1.535157-2.429688 3.628907-2.433594 5.816407v83.027343" fill="#fff"/><path d="m0 59.75c.453125-7.101562 3.894531-13.679688 9.472656-18.097656 4.066406-3.476563 8.5625-6.421875 13.371094-8.765625 8.773438-4.292969 17.910156-7.789063 27.308594-10.453125 18.152344-5.179688 36.621094-9.171875 55.292968-11.945313 49.851563-7.261719 100.179688-10.761719 150.554688-10.472656v17.066406c-49.488281-.292969-98.929688 3.132813-147.910156 10.242188-17.914063 2.660156-35.636719 6.480469-53.058594 11.441406-8.402344 2.371094-16.578125 5.484375-24.429688 9.300781-3.519531 1.6875-6.8125 3.808594-9.804687 6.316406-1.832031 1.300782-3.148437 3.199219-3.730469 5.367188zm0 0" fill="#fff"/><path d="m60.664062 34.609375c.964844.539063 2.023438.890625 3.121094 1.035156 3.335938.445313 6.625-1.089843 8.425782-3.933593.546874-.976563.914062-2.042969 1.082031-3.148438.621093-3.402344-.902344-6.835938-3.839844-8.65625-4.132813-2.445312-9.46875-1.101562-11.945313 3.015625l-.675781 1.492187c-.191406.550782-.308593 1.125-.339843 1.707032-.109376.535156-.136719 1.085937-.078126 1.628906.058594.574219.15625 1.144531.289063 1.707031.65625 2.140625 2.0625 3.96875 3.960937 5.152344zm0 0" fill="#428dff"/><path d="m256 .015625c-50.375-.289063-100.703125 3.210937-150.554688 10.472656l-8.53125 1.390625c-4.648437.792969-7.769531 5.203125-6.976562 9.851563.792969 4.644531 5.203125 7.769531 9.851562 6.976562l8.300782-1.359375c48.976562-7.117187 98.421875-10.546875 147.910156-10.265625 154.597656 0 238.933594 28.160157 238.933594 42.667969v50.578125c-4.144532-3.761719-9.566406-5.800781-15.164063-5.703125-5.492187.015625-10.832031 1.8125-15.214843 5.121094-6.148438-10.847656-17.84375-17.347656-30.300782-16.84375-11.671875.023437-22.789062 4.964844-30.628906 13.609375-6.976562-11.375-19.605469-18.035157-32.9375-17.371094-13.542969-.003906-26.410156 5.917969-35.214844 16.210937-7.535156-13.050781-21.753906-20.78125-36.804687-20-17.171875.011719-33.195313 8.628907-42.667969 22.953126-9.472656-14.324219-25.496094-22.941407-42.667969-22.953126-15.070312-.785156-29.304687 6.957032-36.835937 20.035157-8.804688-10.292969-21.671875-16.214844-35.21875-16.214844-13.3125-.664063-25.925782 5.984375-32.902344 17.339844-7.839844-8.625-18.945312-13.554688-30.601562-13.574219-12.46875-.515625-24.175782 5.988281-30.328126 16.84375-4.382812-3.308594-9.71875-5.105469-15.207031-5.121094-5.59375-.109375-11.019531 1.917969-15.171875 5.667969v-50.578125c.207032-1.003906.625-1.949219 1.230469-2.773438 1.292969-1.558593 2.785156-2.945312 4.4375-4.121093 4.113281-2.898438 8.53125-5.335938 13.175781-7.269531 4.125-1.925782 6.09375-6.6875 4.53125-10.964844-.816406-2.179688-2.5-3.921875-4.648437-4.808594-2.148438-.890625-4.570313-.84375-6.6875.121094-5.859375 2.457031-11.425781 5.558594-16.59375 9.25-2.96875 2.15625-5.625 4.707031-7.894531 7.585937-2.828126 3.753907-4.4375 8.285157-4.617188 12.980469v68.265625c.0195312 6.070313 3.269531 11.671875 8.535156 14.695313v10.90625c0 14.136718 11.460938 25.597656 25.597656 25.597656h10.105469c3.601563 10.195312 13.21875 17.023437 24.027344 17.070312h25.601563c4.410156-.027344 8.738281-1.203125 12.550781-3.414062 4.667969 7.421875 12.816406 11.929687 21.582031 11.945312h34.132812c4.410157-.023437 8.738282-1.203125 12.554688-3.414062 4.664062 7.421875 12.8125 11.933594 21.578125 11.949218h42.667969c6.316406-.023437 12.402344-2.394531 17.066406-6.65625 4.664062 4.261719 10.75 6.632813 17.066406 6.65625h42.667969c8.765625-.015624 16.914063-4.527343 21.578125-11.949218 3.816406 2.210937 8.144531 3.390625 12.554688 3.414062h34.132812c8.765625-.015625 16.914062-4.523437 21.582031-11.945312 3.8125 2.210937 8.140625 3.386718 12.550781 3.414062h25.601563c10.808594-.046875 20.425781-6.875 24.027344-17.070312h10.105469c14.136718 0 25.597656-11.460938 25.597656-25.597656v-10.90625c5.265625-3.023438 8.515625-8.625 8.535156-14.695313v-68.265625c0-47.25-167.457031-59.734375-256-59.734375zm-230.398438 153.601563v-22.757813c0-1.527344.324219-9.164063 6.636719-9.164063 6.519531 1.066407 11.085938 7.019532 10.429688 13.589844v26.863282h-8.535157c-4.710937 0-8.53125-3.820313-8.53125-8.53125zm68.265626 25.597656h-25.601563c-4.710937 0-8.53125-3.820313-8.53125-8.53125v-42.667969c-.316406-4.867187 1.480469-9.632813 4.929687-13.082031 3.449219-3.449219 8.214844-5.246094 13.082032-4.929688 13.609375.011719 24.640625 11.042969 24.652344 24.652344v36.027344c0 4.710937-3.820313 8.53125-8.53125 8.53125zm68.265624 8.535156h-34.132812c-4.710938 0-8.535156-3.820312-8.535156-8.535156v-51.199219c-.28125-5.867187 1.925781-11.582031 6.078125-15.734375 4.152343-4.152344 9.867187-6.359375 15.734375-6.074219 16.226562.015625 29.375 13.167969 29.390625 29.394531v43.613282c0 4.714844-3.820313 8.535156-8.535157 8.535156zm76.800782 8.535156h-42.667969c-4.710937 0-8.53125-3.824218-8.53125-8.535156v-59.734375c-.332031-6.886719 2.257813-13.59375 7.132813-18.46875s11.578124-7.464844 18.464843-7.128906c18.851563 0 34.132813 15.28125 34.132813 34.132812v51.199219c0 4.710938-3.820313 8.535156-8.53125 8.535156zm85.332031-8.535156c0 4.710938-3.820313 8.535156-8.53125 8.535156h-42.667969c-4.710937 0-8.53125-3.824218-8.53125-8.535156v-51.199219c0-18.851562 15.28125-34.132812 34.132813-34.132812 6.886719-.335938 13.589843 2.253906 18.464843 7.128906s7.464844 11.582031 7.132813 18.46875zm68.269531-8.535156c0 4.714844-3.824218 8.535156-8.535156 8.535156h-34.132812c-4.714844 0-8.535157-3.820312-8.535157-8.535156v-43.613282c.015625-16.226562 13.164063-29.378906 29.390625-29.394531 5.867188-.285156 11.582032 1.921875 15.734375 6.074219 4.152344 4.152344 6.359375 9.867188 6.078125 15.734375zm59.730469-8.53125c0 4.710937-3.820313 8.53125-8.53125 8.53125h-25.601563c-4.710937 0-8.53125-3.820313-8.53125-8.53125v-36.027344c.011719-13.609375 11.042969-24.640625 24.652344-24.652344 4.867188-.316406 9.632813 1.480469 13.082032 4.929688 3.449218 3.449218 5.246093 8.214844 4.929687 13.082031zm34.132813-17.066406c0 4.710937-3.820313 8.53125-8.53125 8.53125h-8.535157v-26.863282c-.65625-6.574218 3.914063-12.527344 10.4375-13.589844 6.316407 0 6.628907 7.636719 6.628907 9.164063zm0 0" fill="#428dff"/><path d="m8.535156 277.203125v65.914063c0 45.847656 161.875 57.964843 247.464844 57.964843s247.464844-12.117187 247.464844-57.964843v-65.914063c-.019532-6.15625-3.425782-11.808594-8.863282-14.699219.207032-1.414062.316407-2.839844.332032-4.269531v-14.839844c-.015625-13.804687-11.207032-24.992187-25.011719-25h-1.175781c-6.722656 0-13.160156 2.71875-17.851563 7.535157-6.214843-6.175782-14.617187-9.636719-23.375-9.636719h-10.238281c-10.019531.019531-19.492188 4.5625-25.78125 12.355469-4.667969-2.472657-9.863281-3.785157-15.144531-3.820313h-18.808594c-11.664063.03125-22.449219 6.1875-28.40625 16.210937-5.898437-4.933593-13.332031-7.648437-21.019531-7.679687h-27.375c-9.476563.019531-18.488282 4.105469-24.746094 11.222656-6.257812-7.117187-15.269531-11.203125-24.746094-11.222656h-27.308594c-7.6875.03125-15.121093 2.746094-21.015624 7.679687-5.957032-10.023437-16.746094-16.179687-28.40625-16.210937h-18.84375c-5.28125.035156-10.480469 1.347656-15.144532 3.820313-6.300781-7.804688-15.785156-12.34375-25.816406-12.355469h-10.238281c-8.757813-.003907-17.160157 3.460937-23.375 9.636719-4.691407-4.816407-11.128907-7.53125-17.851563-7.535157h-1.175781c-13.804687.011719-24.992187 11.195313-25.011719 25v14.816407c.015625 1.425781.125 2.851562.332032 4.265624-5.445313 2.898438-8.851563 8.558594-8.863282 14.726563zm452.265625-33.808594c.007813-4.382812 3.5625-7.929687 7.945313-7.933593h1.175781c4.382813.003906 7.933594 3.550781 7.945313 7.933593v14.816407c0 1.535156-.316407 9.171874-6.632813 9.171874-6.523437-1.0625-11.09375-7.015624-10.433594-13.59375zm-43.519531-10.035156h10.238281c8.953125 0 16.214844 7.261719 16.214844 16.214844v32.894531c.21875 4.757812-1.640625 9.378906-5.097656 12.652344-3.457031 3.277344-8.167969 4.890625-12.910157 4.414062h-1.191406c-5.476562.019532-10.777344-1.929687-14.933594-5.492187v-35.96875c-.015624-6.367188-1.875-12.589844-5.351562-17.921875 2.992188-4.234375 7.84375-6.761719 13.03125-6.792969zm-75.949219 24.746094c0-8.953125 7.261719-16.210938 16.214844-16.210938h18.773437c8.953126 0 16.214844 7.257813 16.214844 16.210938v41.199219c.167969 5.738281-2.113281 11.277343-6.277344 15.230468-4.164062 3.953125-9.8125 5.949219-15.535156 5.480469h-1.304687c-15.488281-.042969-28.03125-12.578125-28.085938-28.066406v-33.875zm-60.585937-7.679688h27.308594c8.953124 0 16.210937 7.261719 16.210937 16.214844v49.441406c0 4.421875 0 16.214844-25.597656 16.214844h-1.46875c-8.675781-.011719-16.996094-3.46875-23.121094-9.613281-6.128906-6.140625-9.5625-14.46875-9.542969-23.148438v-32.929687c.015625-8.941407 7.269532-16.179688 16.210938-16.179688zm-76.800782 0h27.308594c8.953125 0 16.210938 7.261719 16.210938 16.214844v32.894531c-.023438 18.03125-14.632813 32.640625-32.664063 32.660156h-1.46875c-25.597656 0-25.597656-11.761718-25.597656-16.214843v-49.375c.019531-8.941407 7.269531-16.179688 16.210937-16.179688zm-49.421874-8.53125c8.953124 0 16.210937 7.257813 16.210937 16.210938v33.878906c-.070313 15.5-12.652344 28.027344-28.152344 28.03125h-1.304687c-5.726563.46875-11.382813-1.53125-15.546875-5.488281-4.164063-3.960938-6.441407-9.511719-6.265625-15.253906v-41.199219c0-8.957031 7.261718-16.214844 16.214844-16.214844zm-69.976563-8.535156h10.242187c5.179688.023437 10.027344 2.539063 13.03125 6.757813-3.476562 5.332031-5.335937 11.558593-5.351562 17.921874v35.960938c-4.148438 3.582031-9.449219 5.550781-14.933594 5.546875h-1.195312c-4.75.492187-9.484375-1.109375-12.957032-4.390625-3.472656-3.28125-5.339843-7.914062-5.117187-12.6875v-32.9375c.023437-8.9375 7.277344-16.171875 16.214844-16.171875zm-50.414063 10.035156c.003907-4.382812 3.5625-7.933593 7.945313-7.933593h1.175781c4.386719 0 7.941406 3.550781 7.945313 7.933593v10.394531c.660156 6.574219-3.90625 12.527344-10.425781 13.59375-6.316407 0-6.640626-7.679687-6.640626-9.171874zm6.640626 41.054688c3.601562-.011719 7.160156-.800781 10.425781-2.320313v.339844c-.1875 9.277344 3.476562 18.214844 10.125 24.683594 6.648437 6.46875 15.679687 9.894531 24.949219 9.449218h1.191406c5.960937-.027343 11.835937-1.375 17.214844-3.941406 5.316406 15.449219 20.292968 25.441406 36.597656 24.421875h1.304687c10.863281-.042969 21.335938-4.03125 29.476563-11.21875 3.097656 10.675781 12.800781 23.414063 41.273437 23.414063h1.46875c16.515625 0 31.953125-8.203125 41.199219-21.886719 9.242188 13.691406 24.679688 21.902344 41.199219 21.902344h1.46875c28.507812 0 38.175781-12.738281 41.273437-23.414063 8.140625 7.183594 18.617188 11.167969 29.476563 11.203125h1.304687c16.300782 1.03125 31.277344-8.953125 36.597656-24.394531 5.375 2.570312 11.253907 3.914062 17.214844 3.941406h1.191406c9.269532.441406 18.300782-2.980468 24.949219-9.449218 6.648438-6.472657 10.3125-15.410157 10.125-24.683594v-.394532c3.269531 1.527344 6.828125 2.320313 10.433594 2.332032 5.59375.101562 11.019531-1.929688 15.164063-5.683594v64.367188c0 13.882812-81.320313 40.898437-230.398438 40.898437s-230.398438-27.015625-230.398438-40.898437l-.292968-64.667969c4.171875 3.949219 9.722656 6.105469 15.464844 6zm0 0" fill="#428dff"/></svg>