<svg height="504pt" viewBox="0 0 504.81836 504" width="504pt" xmlns="http://www.w3.org/2000/svg"><path d="m467.617188 27.417969c1.476562 8.542969 15.585937 26.859375 13.050781 35.25-1.78125 5.878906-19.15625 1.738281-22.957031 7.335937-27.027344-19.808594-76.714844-27.695312-149.152344-15.105468-9.902344 1.761718-20.5625 3.609374-31.558594 5.707031-4.363281-5.238281-13.882812-7.957031-19.457031-11.792969-6.261719-5.886719-13.550781-10.578125-21.503907-13.839844 28.9375-8.148437 58.265626-14.816406 87.878907-19.976562 74.871093-13.09375 125.398437-4.199219 151.839843 17.207031-2.644531-1.832031-5.390624-3.515625-8.226562-5.039063.015625.089844.042969.175782.085938.253907zm0 0" fill="#cad9fc"/><path d="m496.40625 386.574219v100.71875c0 4.636719-3.757812 8.394531-8.394531 8.394531h-470.03125c-4.636719 0-8.394531-3.757812-8.394531-8.394531v-100.71875zm0 0" fill="#7facfa"/><path d="m479.617188 386.574219v100.71875c0 4.636719-3.757813 8.394531-8.390626 8.394531h-453.246093c-4.636719 0-8.394531-3.757812-8.394531-8.394531v-100.71875zm0 0" fill="#a4c2f7"/><path d="m488.179688 350.144531c-5.726563 12-12.144532 23.660157-19.222657 34.917969-6.832031 12.144531-11.300781 25.472656-13.175781 39.28125-1.351562 14.886719-3.847656 29.648438-7.46875 44.148438-2.941406 10.574218-7.554688 27.195312-21.152344 27.195312-1.902344-.070312-3.714844-.816406-5.121094-2.097656-10.324218-8.644532-17.457031-42.640625-21.320312-69.917969-2.515625-18.046875-10.910156-21.738281-17.542969-22.496094h-.167969c-2.175781.167969-4.292968.796875-6.210937 1.847657-4.949219 2.433593-9.566406 8.058593-11.328125 20.648437-4.449219 31.476563-13.261719 72.015625-26.441406 72.015625-2.707032.050781-5.363282-.710938-7.636719-2.183594-7.890625-4.78125-11.246094-16.703125-13.515625-25.011718-3.621094-14.5-6.117188-29.261719-7.46875-44.148438-1.875-13.808594-6.34375-27.136719-13.175781-39.28125-7.078125-11.257812-13.496094-22.917969-19.222657-34.917969-11.164062-28.371093-13.765624-66.390625 9.988282-89.054687 10.90625-10.023438 24.917968-16.007813 39.699218-16.953125h.421876c17.171874-1.457031 34.324218 3.015625 48.597656 12.671875 2.269531 1.457031 4.40625 3.113281 6.378906 4.953125 11.847656-10.253907 26.679688-16.433594 42.304688-17.625h.332031c19.09375-1.988281 38.140625 4.167969 52.460937 16.953125 23.753906 22.664062 21.152344 60.683594 9.988282 89.054687zm0 0" fill="#e8edfc"/><path d="m273.980469 64.683594c-1.539063-1.425782-3.199219-2.769532-4.851563-4.113282-18.449218-13.339843-39.800781-22.113281-62.296875-25.597656-14.835937-2.710937-29.914062-3.863281-44.988281-3.441406-.207031-.085938-.433594-.085938-.640625 0-2.171875 0-4.339844.082031-6.511719.25 36.773438 2.097656 72.277344 13.261719 93.722656 32.902344 20.144532 18.464844 21.703126 47.757812 13.664063 75.542968l-1.152344 2.769532c9.066407-.925782 18.003907-1.847656 26.691407-2.769532 8.042968-27.785156 6.507812-57.078124-13.636719-75.542968zm-30.292969 115.660156c-5.679688 8.085938-13.765625 14.164062-23.109375 17.375-26.300781 8.714844-53.886719 12.914062-81.589844 12.421875 2.425781.085937 4.851563.085937 7.277344.085937.886719.082032 1.675781 0 2.515625 0 50.949219.417969 80.578125-6.042968 97.296875-12.507812 9.34375-3.207031 17.4375-9.289062 23.117187-17.375.875-1.214844 1.644532-2.507812 2.300782-3.859375-8.816406.585937-17.625 1.089844-26.433594 1.511719-.394531.820312-.851562 1.605468-1.375 2.347656zm0 0" fill="#cad9fc"/><path d="m265.214844 140.226562-.753906 2.769532h-.085938c-55.3125 8.222656-117.171875 14.519531-154.773438 8.726562-3.542968-.507812-6.933593 1.621094-8.015624 5.035156-1.082032 3.410157.460937 7.105469 3.652343 8.730469 29.207031 14.269531 87.542969 16.871094 148.816407 12.507813-.257813.800781-.566407 1.585937-.925782 2.347656-3.046875 7.285156-8.378906 13.382812-15.191406 17.375-16.574219 8.511719-35.003906 12.78125-53.632812 12.421875-2.855469-.082031-5.707032-.167969-8.730469-.417969-16.394531-1.167968-32.707031-3.296875-48.851563-6.378906-16.199218-2.90625-32.203125-6.800781-47.925781-11.667969-41.125-12.839843-60.433594-28.199219-69.496094-39.617187-4.910156-6.207032-7.703125-13.828125-7.972656-21.738282-1.511719-37.601562 9.9375-90.144531 38.691406-109.03125 10.53125-6.785156 22.59375-10.828124 35.085938-11.75 1.257812-.167968 2.515625-.25 3.777343-.335937 27.152344-1.324219 53.558594 9.136719 72.433594 28.707031.839844.839844 1.679688 1.761719 2.433594 2.683594.824219.835938 1.582031 1.734375 2.265625 2.6875 0 .082031.085937.167969.167969.25.085937.085938.085937.167969.253906.253906 4.839844-3.035156 10.023438-5.488281 15.445312-7.304687 7.34375-2.542969 14.992188-4.121094 22.746094-4.699219 24.328125 1.535156 46.800782 13.535156 61.605469 32.902344 13.261719 18.464844 14.269531 47.757812 8.980469 75.542968zm0 0" fill="#e8edfc"/><path d="m488.261719 98.257812c-.082031.167969-.25.335938-.332031.503907-17.292969 29.375-62.03125 55.144531-137.488282 68.238281-22.996094 4.027344-47.421875 7.300781-71.847656 9.484375-5.789062.585937-11.582031 1.089844-17.371094 1.511719-21.65625 1.511718-42.890625 2.183594-62.617187 1.761718-36.175781-.671874-67.230469-5.035156-86.199219-14.269531-2.164062-1.0625-3.660156-3.128906-3.996094-5.515625-.335937-2.382812.53125-4.78125 2.316406-6.402344 1.582032-1.582031 3.847657-2.277343 6.042969-1.847656 7.757813 1.15625 15.578125 1.828125 23.417969 2.015625h.25c43.925781.078125 87.78125-3.515625 131.105469-10.742187h.085937c5.960938-.925782 11.835938-1.847656 17.542969-2.769532 11.667969-1.847656 22.828125-3.695312 33.238281-5.542968 72.433594-12.671875 116.582032-36.84375 135.300782-64.710938 3.953124-5.667968 6.90625-11.96875 8.730468-18.632812 2.191406-7.785156 2.59375-15.960938 1.175782-23.921875-.042969-.078125-.070313-.164063-.085938-.253907 2.835938 1.523438 5.582031 3.207032 8.226562 5.039063h.082032c.167968.082031.335937.335937.589844.417969l.167968.167968c9.695313 7.730469 16.523438 18.484376 19.386719 30.550782.085937.167968.167969.253906.167969.421875v.167969c1.082031 11.988281-1.679688 24.011718-7.890625 34.328124zm0 0" fill="#a4c2f7"/><path d="m463.082031 98.257812c-.082031.167969-.25.335938-.335937.503907-17.289063 29.375-62.027344 55.144531-137.484375 68.238281-22.996094 4.027344-47.421875 7.300781-71.847657 9.484375-5.789062.585937-11.582031 1.089844-17.375 1.511719-12.757812.921875-25.261718 1.511718-37.433593 1.761718-36.175781-.671874-67.230469-5.035156-86.199219-14.269531-2.164062-1.0625-3.660156-3.128906-3.996094-5.515625-.335937-2.382812.53125-4.78125 2.316406-6.402344 9.066407.503907 18.96875.503907 29.460938.167969h.25c43.925781.078125 87.78125-3.515625 131.105469-10.742187h.085937c5.960938-.925782 11.835938-1.847656 17.542969-2.769532 11.667969-1.847656 22.828125-3.695312 33.238281-5.542968 72.433594-12.671875 116.582032-36.84375 135.300782-64.710938 3.953124-5.667968 6.90625-11.96875 8.730468-18.632812 1.945313 3.800781 3.414063 7.835937 4.363282 12 .085937.167968.167968.253906.167968.421875v.167969c1.082032 11.988281-1.679687 24.011718-7.890625 34.328124zm0 0" fill="#cad9fc"/><path d="m227.984375 350.144531c-5.726563 12-12.144531 23.660157-19.222656 34.917969-6.832031 12.144531-11.304688 25.472656-13.175781 39.28125-1.351563 14.886719-3.847657 29.648438-7.472657 44.148438-2.9375 10.574218-7.554687 27.195312-21.152343 27.195312-1.898438-.070312-3.714844-.816406-5.117188-2.097656-10.324219-8.644532-17.460938-42.640625-21.320312-69.917969-2.519532-18.046875-10.910157-21.738281-17.542969-22.496094h-.167969c-2.175781.167969-4.292969.796875-6.210938 1.847657-4.953124 2.433593-9.566406 8.058593-11.332031 20.648437-4.449219 31.558594-13.261719 72.015625-26.4375 72.015625-2.667969.046875-5.292969-.679688-7.554687-2.097656-7.972656-4.703125-11.332032-16.703125-13.597656-25.179688-3.644532-14.472656-6.140626-29.207031-7.46875-44.066406-1.875-13.808594-6.347657-27.136719-13.179688-39.28125-5.765625-8.097656-10.527344-16.863281-14.183594-26.105469-2.855468-11.328125 5.789063-17.375 14.855469-21.738281 12.003906-5.792969 20.394531-9.902344 25.515625-23.25 4.449219-13.144531 12.578125-24.738281 23.417969-33.40625 11.359375-8.4375 23.632812-15.5625 36.597656-21.234375 13.515625-7.207031 28.070313-12.277344 43.140625-15.023437h.082031c18.773438-1.867188 37.464844 4.222656 51.539063 16.785156 23.753906 22.664062 21.148437 60.683594 9.988281 89.054687zm0 0" fill="#cad9fc"/><path d="m374.699219 261.761719c11.851562-10.253907 26.679687-16.433594 42.304687-17.625h.335938c14.78125.945312 28.792968 6.929687 39.699218 16.953125 23.753907 22.664062 21.152344 60.683594 9.988282 89.054687-5.691406 12.019531-12.113282 23.679688-19.21875 34.917969-6.84375 12.132812-11.289063 25.46875-13.09375 39.28125-1.378906 14.886719-3.90625 29.648438-7.554688 44.148438-2.265625 8.308593-5.625 20.3125-13.515625 25.097656-10.324219-8.644532-17.457031-42.640625-21.316406-69.917969-1.242187-8.921875-4.71875-19.136719-14.269531-21.824219-9.339844-3.15625-19.652344-1.183594-27.171875 5.195313-3.699219 4.828125-5.960938 10.597656-6.527344 16.652343-3.777344 27.28125-10.914063 61.273438-21.320313 69.835938-7.890624-4.785156-11.246093-16.703125-13.515624-25.011719-3.621094-14.503906-6.117188-29.265625-7.46875-44.152343-1.875-13.808594-6.34375-27.136719-13.175782-39.28125-7.078125-11.257813-13.496094-22.914063-19.222656-34.914063-11.164062-28.371094-13.765625-66.394531 9.988281-89.054687 10.90625-10.027344 24.917969-16.011719 39.699219-16.957032h.421875c15.695313 1.429688 34.832031 1.957032 50.425781 15.488282" fill="#fff"/><path d="m206.832031 350.144531c-5.695312 12.019531-12.113281 23.679688-19.222656 34.917969-6.839844 12.132812-11.285156 25.46875-13.09375 39.28125-1.378906 14.886719-3.902344 29.648438-7.554687 44.148438-2.265626 8.308593-5.621094 20.3125-13.511719 25.097656-10.324219-8.644532-17.457031-42.640625-21.320313-69.917969-.332031-7.660156-3.863281-14.828125-9.726562-19.765625-2.03125-1.316406-4.320313-2.175781-6.714844-2.519531-8.898438-1.300781-20.730469-1.058594-26.371094 7.203125-2.84375 4.578125-4.605468 9.746094-5.148437 15.105468-3.859375 27.28125-10.910157 61.191407-21.316407 69.917969-7.976562-4.699219-11.332031-16.703125-13.597656-25.179687-3.644531-14.46875-6.140625-29.203125-7.472656-44.066406-1.871094-13.808594-6.34375-27.136719-13.175781-39.28125-5.765625-8.097657-10.527344-16.859376-14.183594-26.101563-2.855469-11.332031 5.789063-17.375 14.855469-21.738281 12-5.792969 20.394531-9.90625 25.515625-23.25 4.449219-13.148438 12.578125-24.742188 23.417969-33.40625 11.355468-8.4375 23.632812-15.5625 36.59375-21.238282 13.542968-7.21875 28.125-12.289062 43.226562-15.023437 14.449219 1.074219 28.109375 6.988281 38.777344 16.789063 23.789062 22.636718 21.1875 60.65625 10.023437 89.027343zm0 0" fill="#e8edfc"/><path d="m196.253906 210.226562c.558594.042969 1.121094.042969 1.679688 0 3.695312.042969 7.152344 0 10.507812-.132812-2.515625-.078125-5.035156-.152344-7.6875-.371094l-.695312-.058594c-2.753906.210938-5.582032.386719-8.585938.476563 1.59375.085937 3.1875.085937 4.78125.085937zm0 0" fill="#fff"/><path d="m9.585938 487.292969c0 4.636719 3.757812 8.394531 8.394531 8.394531h25.179687c-4.636718 0-8.394531-3.757812-8.394531-8.394531v-100.71875h19.800781c-.261718-.496094-.480468-1.015625-.746094-1.511719-5.765624-8.097656-10.527343-16.863281-14.1875-26.105469-2.851562-11.328125 5.792969-17.375 14.859376-21.738281 12-5.792969 20.394531-9.902344 25.515624-23.25 4.449219-13.144531 12.574219-24.738281 23.417969-33.40625 11.355469-8.4375 23.632813-15.5625 36.59375-21.234375 13.101563-6.890625 27.121094-11.867187 41.632813-14.78125-1.765625-.230469-3.53125-.394531-5.296875-.496094-3.304688-.167969-6.613281-.082031-9.90625.253907h-.082031c-1.4375.160156-2.863282.410156-4.28125.660156-1.351563-.191406-2.675782-.542969-4.027344-.660156-15.101563 2.734374-29.6875 7.800781-43.226563 15.023437-12.960937 5.671875-25.238281 12.796875-36.597656 21.234375-10.839844 8.667969-18.96875 20.261719-23.417969 33.40625-5.117187 13.347656-13.511718 17.457031-25.515625 23.25-9.0625 4.363281-17.710937 10.410156-14.855469 21.738281 3.65625 9.242188 8.421876 18.007813 14.183594 26.105469.269532.496094.488282 1.015625.75 1.511719h-19.792968zm0 0" fill="#fff"/><path d="m78.796875 191.675781c15.722656 4.867188 31.726563 8.761719 47.925781 11.667969 16.144532 3.082031 32.457032 5.210938 48.851563 6.378906 3.023437.25 5.875.335938 8.730469.417969 4.289062-.132813 8.214843-.425781 11.992187-.789063-14.890625-1.226562-29.710937-3.234374-44.390625-6.007812-16.199219-2.90625-32.207031-6.800781-47.929688-11.667969-41.125-12.839843-60.429687-28.199219-69.496093-39.617187-4.910157-6.207032-7.703125-13.828125-7.972657-21.738282-1.511718-37.601562 9.9375-90.144531 38.691407-109.03125 9.378906-6.015624 19.996093-9.839843 31.058593-11.1875-5.75-.84375-11.570312-1.144531-17.375-.898437-1.261718.085937-2.519531.167969-3.777343.335937-12.492188.921876-24.554688 4.964844-35.085938 11.75-28.753906 18.886719-40.203125 71.429688-38.691406 109.03125.269531 7.910157 3.0625 15.53125 7.972656 21.738282 9.0625 11.417968 28.371094 26.777344 69.496094 39.617187zm0 0" fill="#fff"/><path d="m.109375 130.65625c-.621094-19.027344 1.4375-38.042969 6.117187-56.496094 4.304688-19.296875 13.507813-37.15625 26.71875-51.863281 19.632813-17.667969 46.34375-25.234375 72.324219-20.488281 25.609375 3.511718 48.886719 16.734375 65.015625 36.929687l-13.429687 10.125c-13.480469-16.660156-32.816407-27.542969-54.050781-30.425781-10.464844-1.613281-21.144532-1.15625-31.433594 1.339844-9.949219 2.402344-19.097656 7.359375-26.53125 14.386718-11.070313 12.609376-18.757813 27.816407-22.355469 44.203126-4.261719 16.859374-6.148437 34.234374-5.605469 51.617187zm0 0" fill="#fff"/><g fill="#428dff"><path d="m383.09375 250.941406c-29.644531-21.886718-75.0625-20.578125-100.878906 4.105469-27.128906 25.886719-23.992188 67.675781-11.996094 98.152344 3.503906 8.273437 7.71875 16.226562 12.589844 23.769531.242187.394531.460937.839844.707031 1.210938h-61.046875c.242188-.394532.460938-.839844.703125-1.210938 4.875-7.546875 9.089844-15.503906 12.589844-23.777344 11.996093-30.46875 15.109375-72.257812-11.984375-98.136718-12.859375-11.8125-29.488282-18.6875-46.9375-19.40625-19.789063-1.265626-37.84375 7.1875-53.792969 14.574218l-3.304687 1.519532c-13.546876 5.917968-26.382813 13.351562-38.257813 22.15625-12.074219 9.636718-21.140625 22.519531-26.136719 37.132812-3.726562 9.820312-9.234375 12.824219-21.335937 18.691406-5.996094 2.90625-24.214844 11.75-19.304688 31.273438 1.769531 6.136718 4.535157 11.941406 8.183594 17.183594h-13.304687c-4.636719 0-8.394532 3.757812-8.394532 8.394531 0 4.632812 3.757813 8.390625 8.394532 8.390625h22.957031c4.765625 9.527344 7.914062 19.777344 9.324219 30.335937 1.382812 15.285157 3.964843 30.441407 7.722656 45.324219 3.195312 11.707031 9.164062 33.457031 29.242187 33.457031 6.445313 0 23.566407 0 34.757813-79.226562 1.785156-12.832031 6.359375-14.722657 9.230468-15.191407 2.847657.417969 7.554688 2.121094 9.425782 15.207032 11.0625 79.210937 28.269531 79.210937 34.75 79.210937 20.144531 0 26.253906-22.570312 29.167968-33.363281 3.785157-14.910156 6.378907-30.097656 7.761719-45.417969 1.394531-10.5625 4.542969-20.8125 9.316407-30.335937h79.503906c4.777344 9.527344 7.929687 19.785156 9.324218 30.351562 1.378907 15.289063 3.964844 30.445313 7.738282 45.324219 2.929687 10.871094 9.042968 33.441406 29.1875 33.441406 6.476562 0 23.683594 0 34.765625-79.195312 1.84375-12.992188 6.488281-14.761719 9.332031-15.207031 2.84375.445312 7.488281 2.214843 9.332031 15.191406 11.082031 79.210937 28.289063 79.210937 34.765625 79.210937 20.144532 0 26.257813-22.570312 29.167969-33.363281 3.785156-14.910156 6.382813-30.097656 7.765625-45.417969 1.390625-10.5625 4.539062-20.8125 9.316406-30.335937h22.964844c4.632812 0 8.390625-3.757813 8.390625-8.390625 0-4.636719-3.757813-8.394531-8.390625-8.394531h-13.742188c.246094-.394532.460938-.839844.707032-1.210938 4.875-7.546875 9.085937-15.503906 12.589844-23.777344 11.992187-30.46875 15.109374-72.257812-11.988282-98.136718-25.808594-24.691407-71.214844-26.011719-100.878906-4.113282zm-195.84375 172.460938c-1.3125 14.46875-3.742188 28.816406-7.277344 42.90625-2.753906 10.175781-6.253906 20.984375-12.371094 21.128906-2.898437-1.417969-11.910156-15.847656-18.761718-64.875-3.171875-22.285156-15.039063-28.425781-24.617188-29.609375-.785156-.132813-1.585937-.152344-2.375-.058594-9.628906 1.089844-21.765625 7.125-24.902344 29.660157-6.910156 49-15.871093 63.429687-18.113281 64.738281-6.714843 0-10.132812-10.414063-13.0625-21.101563-3.511719-14.058594-5.929687-28.371094-7.226562-42.804687-1.953125-14.863281-6.742188-29.210938-14.109375-42.269531-1.675782-3.191407-3.699219-6.277344-5.722656-9.375-3.363282-4.503907-5.972657-9.523438-7.722657-14.867188-.664062-2.652344-1.585937-6.292969 10.347657-12.085938 12.59375-6.09375 23.445312-11.363281 29.699218-27.832031 3.90625-11.722656 11.113282-22.074219 20.753906-29.804687 10.867188-8.003906 22.601563-14.761719 34.976563-20.144532l3.359375-1.535156c14.847656-6.875 30.089844-13.933594 45.761719-13.050781 13.472656.480469 26.34375 5.722656 36.324219 14.789063 21.136718 20.144531 17.5 55.621093 7.964843 79.84375-3.160156 7.382812-6.949219 14.476562-11.320312 21.210937-2.519531 4.199219-5.128907 8.460937-7.488281 12.859375-7.371094 13.058594-12.164063 27.410156-14.117188 42.277344zm293.097656-76.378906c-3.160156 7.378906-6.949218 14.476562-11.320312 21.210937-2.519532 4.195313-5.128906 8.460937-7.488282 12.855469-7.363281 13.066406-12.148437 27.425781-14.09375 42.296875-1.308593 14.472656-3.742187 28.824219-7.277343 42.921875-2.75 10.175781-6.253907 20.984375-12.371094 21.128906-2.894531-1.417969-11.910156-15.847656-18.757813-64.875-3.214843-22.578125-15.359374-28.585938-24.996093-29.652344-.320313.007813-.640625.039063-.957031.089844-.324219-.050781-.648438-.082031-.972657-.089844-9.636719 1.066406-21.78125 7.074219-24.996093 29.671875-6.851563 49.007813-15.863282 63.4375-18.140626 64.746094-6.714843 0-10.238281-10.84375-13.007812-21.085937-3.519531-14.058594-5.9375-28.371094-7.234375-42.804688-1.949219-14.878906-6.738281-29.242188-14.101563-42.3125-2.359374-4.398438-4.929687-8.636719-7.488281-12.859375-4.371093-6.730469-8.160156-13.824219-11.324219-21.199219-9.53125-24.234375-13.167968-59.6875 7.976563-79.867187 21.140625-20.175781 60.984375-19.808594 83.632813.800781.835937.503906 1.675781 1.007812 2.515624 1.507812.503907.179688 1.023438.308594 1.554688.378907.511719.132812 1.039062.210937 1.570312.234375.53125-.023438 1.058594-.101563 1.574219-.234375.527344-.070313 1.046875-.199219 1.546875-.378907.503906-.226562.980469-.507812 1.425782-.839843.382812-.191407.75-.410157 1.101562-.660157 22.660156-20.617187 62.511719-20.984374 83.640625-.789062 21.125 20.195312 17.523437 55.5625 7.988281 79.820312zm0 0"/><path d="m14.554688 56.441406c-2.109376 1.003906-3.714844 2.824219-4.457032 5.035156-.769531 2.199219-.636718 4.613282.371094 6.714844l.914062 1.359375c.359376.445313.777344.839844 1.242188 1.175781.386719.371094.832031.675782 1.316406.90625.503906.246094 1.027344.453126 1.5625.621094 2.125.578125 4.390625.359375 6.371094-.613281.9375-.523437 1.785156-1.195313 2.515625-1.988281 2.097656-2.433594 2.59375-5.859375 1.277344-8.789063-.484375-.980469-1.136719-1.867187-1.929688-2.617187-.78125-.773438-1.691406-1.394532-2.695312-1.839844-2.082031-.855469-4.417969-.84375-6.488281.035156zm0 0"/><path d="m9.894531 157.28125c13.625 17.15625 38.375 31.414062 73.554688 42.394531 16.050781 4.964844 32.386719 8.945313 48.925781 11.917969 16.472656 3.136719 33.113281 5.308594 49.839844 6.503906 6.4375.421875 12.589844.621094 18.515625.621094 22.605469 1.183594 45.128906-3.542969 65.351562-13.714844 8.175781-4.746094 14.617188-11.984375 18.390625-20.65625 23.214844-2.246094 46.160156-5.34375 67.414063-9.046875 72.375-12.589843 123.265625-38.289062 143.101562-71.988281.132813-.195312.441407-.640625.5625-.839844 7.113281-11.8125 10.257813-25.59375 8.960938-39.324218-.046875-.542969-.125-1.082032-.242188-1.613282 0-.125-.109375-.207031-.140625-.324218-3.210937-13.605469-10.859375-25.753907-21.742187-34.523438-.246094-.222656-.503907-.433594-.769531-.628906l-.058594-.066406-.195313-.136719c-.109375-.082031-.199219-.183594-.316406-.257813-31.058594-25.046875-85.867187-31.570312-158.5625-18.871094-28.863281 5.035157-58.628906 11.75-86.300781 19.515626-23.613282-6.367188-48.742188-3.910157-70.671875 6.917968-15.910157-17.027344-37.167969-28.09375-60.242188-31.351562-25.980469-4.746094-52.691406 2.820312-72.324219 20.488281-2.242187 2.226563-4.332031 4.59375-6.261718 7.09375-1.476563 1.792969-2.117188 4.132813-1.761719 6.429687.359375 2.296876 1.679687 4.328126 3.632813 5.589844 3.714843 2.335938 8.582031 1.582032 11.414062-1.773437 1.5-1.929688 3.125-3.757813 4.871094-5.472657 7.433594-7.027343 16.582031-11.984374 26.53125-14.386718 10.304687-2.503906 21-2.964844 31.480468-1.347656 21.144532 2.871093 40.402344 13.671874 53.878907 30.214843 1.269531 1.796875 28.539062 40.210938 58.21875 45.726563.503906.097656 1.019531.144531 1.535156.144531 4.332031-.007813 7.949219-3.3125 8.34375-7.628906.398437-4.3125-2.558594-8.222657-6.816406-9.015625-15.175781-2.820313-32.003907-19.675782-41.664063-31.300782 32.832032-14.746093 76.925782-5.035156 97.027344 23.007813 9.703125 13.511719 12.65625 36.394531 8.46875 63.277344-76.925781 11.9375-131.96875 15.519531-163.789062 10.617187-7.632813-1.152344-14.972657 3.414063-17.308594 10.773438-2.335938 7.359375 1.03125 15.324218 7.933594 18.78125 22.089843 10.828125 59.265624 15.191406 101.332031 15.191406 17.125 0 35.058593-.730469 53.105469-2.039062-1.621094 1.671874-3.464844 3.117187-5.472657 4.296874-10.976562 6.4375-32.734375 13.539063-74.355469 10.871094-16.058593-1.15625-32.03125-3.242187-47.84375-6.253906-15.886718-2.855469-31.582031-6.671875-47.003906-11.433594-39.75-12.414062-57.511718-26.859375-65.46875-36.871094-3.765625-4.808593-5.90625-10.683593-6.117187-16.789062-.351563-10.679688.238281-21.371094 1.753906-31.953125.519531-4.476563-2.507813-8.597656-6.933594-9.441406-2.222656-.402344-4.515625.125-6.335937 1.460937-1.824219 1.332032-3.019532 3.355469-3.308594 5.597656-1.667969 11.585938-2.308594 23.292969-1.921875 34.992188.351563 9.6875 3.78125 19.015625 9.785156 26.625zm315.46875-134.019531c58.621094-10.199219 105.457031-7.285157 134.109375 8.175781 1.109375 9.167969-.527344 18.453125-4.699218 26.691406-32.214844-18.757812-82.945313-22.796875-147.722657-11.523437l-6.113281 1.082031c-6.714844 1.183594-13.78125 2.449219-20.984375 3.792969-5.414063-5.691407-11.582031-10.621094-18.328125-14.644531 20.957031-5.265626 42.570312-9.890626 63.738281-13.574219zm-34.253906 43.234375c4.355469-.789063 8.636719-1.542969 12.792969-2.28125l6.09375-1.082032c59.375-10.316406 106.890625-7.070312 135.445312 8.996094-21.4375 24.792969-65.058594 43.921875-124.460937 54.246094-7.441407 1.300781-14.652344 2.519531-21.753907 3.675781 3.644532-21.519531.816407-43.636719-8.117187-63.554687zm-167.53125 94.601562c40.347656 4.199219 106.050781-1.71875 200.308594-18.152344 70.277343-12.253906 118.96875-35.859374 140.78125-68.238281 6.296875-9.121093 10.273437-19.636719 11.59375-30.636719 5.671875 5.890626 9.65625 13.199219 11.539062 21.160157.832031 9.9375-1.476562 19.886719-6.597656 28.445312-.125.175781-.417969.621094-.527344.839844-17.484375 29.6875-64.242187 52.507813-131.691406 64.257813-80 13.941406-179.980469 18.703124-225.40625 2.324218zm0 0"/><path d="m78.992188 50.523438c4.371093-1.304688 6.898437-5.867188 5.691406-10.265626-1.210938-4.402343-5.714844-7.027343-10.140625-5.917968-14.90625 4.023437-42.09375 23.839844-38.292969 70.027344.359375 4.367187 4.015625 7.722656 8.394531 7.707031.234375.011719.464844.011719.695313 0 4.621094-.378907 8.058594-4.429688 7.683594-9.050781-3.609376-43.316407 24.625-52.105469 25.96875-52.5zm0 0"/><path d="m323.660156 267.292969c-21.699218 12.582031-32.738281 37.78125-27.277344 62.261719.816407 3.878906 4.238282 6.652343 8.199219 6.65625.585938 0 1.171875-.058594 1.746094-.175782 2.179687-.460937 4.085937-1.765625 5.300781-3.632812 1.21875-1.867188 1.640625-4.140625 1.179688-6.320313-3.90625-17.242187 3.734375-35.035156 18.925781-44.074219 3.964844-2.277343 5.375-7.308593 3.175781-11.316406-2.199218-4.007812-7.199218-5.519531-11.25-3.398437zm0 0"/></g></svg>