<svg height="496pt" viewBox="0 0 496 496.008" width="496pt" xmlns="http://www.w3.org/2000/svg" fill="#428dff"><path d="m393.644531 255.175781c38.566407-23.9375 62.359375-69.199219 62.359375-119.175781 0-74.992188-53.832031-136-120-136-33.761718 0-65.304687 15.777344-88 43.648438-22.695312-27.871094-54.238281-43.648438-88-43.648438-66.167968 0-120 61.007812-120 136 0 49.976562 23.792969 95.238281 62.359375 119.175781l2.960938 21.761719c9.945312 72.863281 34.519531 141.566406 73.070312 204.199219 5.136719 8.351562 13.441407 13.847656 22.210938 14.71875 8.0625.800781 16.070312-1.839844 22.023437-7.238281 5.960938-5.402344 9.375-13.113282 9.375-21.144532v-130.113281c0-9.128906 6.792969-16.894531 15.128906-17.335937 4.414063-.214844 8.671876 1.3125 11.886719 4.375 3.207031 3.058593 4.984375 7.167968 4.984375 11.601562v130.191406c0 13.671875 8.671875 25.527344 21.089844 28.832032 2.496094.664062 5.015625.984374 7.503906.984374 9.75 0 18.925782-4.96875 24.253906-13.609374l.769532-1.246094c38.542968-62.640625 63.125-131.34375 73.070312-204.207032zm-15.335937-5.96875-3.488282 25.570313c-9.632812 70.636718-33.472656 137.246094-70.847656 198.007812l-.769531 1.253906c-1.0625 1.722657-2.550781 2.976563-4.191406 3.976563l35.960937-131.871094c5.992188-21.9375 9.03125-44.601562 9.03125-67.351562v-2.097657c0-14.839843-1.433594-29.558593-3.96875-44.070312l32.96875-26.378906c1.472656-1.175782 2.480469-2.832032 2.839844-4.679688l8-40-15.6875-3.140625-7.433594 37.140625-24.398437 19.523438c-5.121094-20.625-12.777344-40.585938-22.886719-59.425782l34.671875-20.808593c1.925781-1.160157 3.285156-3.078125 3.726563-5.289063l8-40-15.6875-3.140625-7.304688 36.527344-31.28125 18.765625-10.710938-17.847656-13.71875 8.234375 12.65625 21.09375c5.941407 9.90625 11.078126 20.207031 15.511719 30.792969h-25.03125l-13.625-20.441407-13.3125 8.875 16 24c1.503907 2.238281 4 3.574219 6.671875 3.574219h35.328125c6.28125 18.617188 10.265625 37.953125 11.832031 57.609375l-29.222656 5.839844-29.136718-21.847657-9.601563 12.796876 32 24c1.394531 1.050781 3.082031 1.601562 4.800781 1.601562.519532 0 1.046875-.054688 1.566406-.160156l30.328126-6.0625c.015624.976562.105468 1.941406.105468 2.917968v2.097657c0 21.335937-2.839844 42.574219-8.464844 63.152343l-36.367187 133.375c-1.929687-2.472656-3.167969-5.648437-3.167969-9.128906v-130.191406c0-8.734375-3.632812-17.191406-9.96875-23.207031-6.429687-6.097657-14.78125-9.066407-23.742187-8.753907-16.984375.890626-30.289063 15.527344-30.289063 33.320313v130.113281c0 3.007813-1.144531 5.878906-3.089844 8.144532l-36.453124-133.679688c-5.617188-20.570312-8.457032-41.808594-8.457032-63.144531v-2.097657c0-.976562.089844-1.941406.097656-2.917968l30.328126 6.0625c.527343.105468 1.054687.160156 1.574218.160156 1.71875 0 3.40625-.550781 4.800782-1.601562l32-24-9.601563-12.796876-29.144531 21.847657-29.222656-5.839844c1.566406-19.65625 5.550781-39 11.832031-57.609375h35.335937c2.671875 0 5.167969-1.335938 6.65625-3.558594l16-24-13.3125-8.875-13.625 20.433594h-25.03125c4.433594-10.574219 9.578125-20.886719 15.511719-30.792969l12.65625-21.09375-13.71875-8.234375-10.710937 17.847656-31.28125-18.765624-7.304688-36.527344-15.6875 3.140625 8 40c.441406 2.210937 1.800781 4.136719 3.726562 5.289062l34.671876 20.808594c-10.109376 18.839844-17.765626 38.800781-22.886719 59.425781l-24.398438-19.523437-7.433593-37.140625-15.6875 3.140625 8 40c.367187 1.839843 1.375 3.503906 2.839843 4.683593l32.96875 26.375c-2.519531 14.496094-3.953125 29.222657-3.953125 44.0625v2.097657c0 22.757812 3.039063 45.421875 9.023438 67.351562l35.945312 131.800781c-1.878906-1.25-3.601562-2.992187-4.953125-5.183593-37.367187-60.730469-61.199219-127.335938-70.832031-197.976563l-3.488281-25.570312c-.335938-2.460938-1.792969-4.613282-3.933594-5.855469-35.625-20.503906-57.761719-61.632813-57.761719-107.359375 0-66.167969 46.65625-120 104-120 31.824219 0 61.496094 16.59375 81.417969 45.519531 2.980469 4.328125 10.183594 4.328125 13.167969 0 19.917968-28.925781 49.589844-45.519531 81.414062-45.519531 57.34375 0 104 53.832031 104 120 0 45.726562-22.136718 86.855469-57.761718 107.351562-2.140626 1.242188-3.597657 3.402344-3.933594 5.855469zm0 0"/><path d="m424.003906 136c0-57.34375-39.480468-104-88-104v16c39.703125 0 72 39.480469 72 88zm0 0"/><path d="m384.003906 432c-17.648437 0-32 14.351562-32 32s14.351563 32 32 32c17.648438 0 32-14.351562 32-32s-14.351562-32-32-32zm0 48c-8.824218 0-16-7.175781-16-16s7.175782-16 16-16c8.824219 0 16 7.175781 16 16s-7.175781 16-16 16zm0 0"/><path d="m440.003906 320c-30.871094 0-56 25.128906-56 56s25.128906 56 56 56 56-25.128906 56-56-25.128906-56-56-56zm0 96c-22.054687 0-40-17.945312-40-40s17.945313-40 40-40c22.054688 0 40 17.945312 40 40s-17.945312 40-40 40zm0 0"/><path d="m112.003906 432c-17.648437 0-32 14.351562-32 32s14.351563 32 32 32c17.648438 0 32-14.351562 32-32s-14.351562-32-32-32zm0 48c-8.824218 0-16-7.175781-16-16s7.175782-16 16-16c8.824219 0 16 7.175781 16 16s-7.175781 16-16 16zm0 0"/><path d="m112.003906 376c0-30.871094-25.128906-56-56-56s-55.99999975 25.128906-55.99999975 56 25.12890575 56 55.99999975 56 56-25.128906 56-56zm-56 40c-22.054687 0-40-17.945312-40-40s17.945313-40 40-40c22.054688 0 40 17.945312 40 40s-17.945312 40-40 40zm0 0"/></svg>