<svg height="512pt" viewBox="0 -21 512.00746 512" width="512pt" xmlns="http://www.w3.org/2000/svg"><path d="m316.269531 204.804688c-6.058593 8.191406-35.667969 29.667968-40.53125 35.738281-13.652343-27.488281-54.554687-104.859375-96.539062-104.859375-.425781-.015625-.855469.015625-1.277344.085937-.882813-20.324219 8.390625-39.757812 24.746094-51.859375 16.921875-11.015625 37.667969-14.488281 57.257812-9.582031-7.9375 12.886719 24.875 26.265625 24.875 42.480469 0 14.164062-8.277343 15.949218-2.132812 27.734375 5.886719 11.425781 23.449219 52.582031 33.601562 60.261719zm0 0" fill="#a4c2f7"/><path d="m68.265625 434.351562c0 14.164063-7.679687 25.597657-17.066406 25.597657s-17.066407-11.433594-17.066407-25.597657c0-14.167968 7.679688-25.601562 17.066407-25.601562 7.253906 0 13.484375 6.914062 15.957031 16.554688.726562 2.960937 1.097656 5.996093 1.109375 9.046874zm0 0" fill="#cad9fc"/><path d="m42.667969 357.550781c0 14.164063-7.679688 25.601563-17.066407 25.601563-9.386718 0-17.066406-11.4375-17.066406-25.601563 0-14.164062 7.679688-25.601562 17.066406-25.601562 8.105469 0 14.933594 8.535156 16.636719 19.96875.277344 1.867187.421875 3.746093.429688 5.632812zm0 0" fill="#cad9fc"/><path d="m341.332031 212.484375c.082031 11.808594-.601562 23.609375-2.046875 35.328125-.339844 2.902344-.769531 5.800781-1.195312 8.617188-4.214844 26.195312-13.148438 51.40625-26.367188 74.410156-1.367187 2.476562-2.902344 4.863281-4.351562 7.253906-6.804688 10.738281-14.511719 20.871094-23.039063 30.292969-13.335937 14.613281-28.507812 27.4375-45.144531 38.144531-11.550781 8.054688-23.972656 14.78125-37.03125 20.054688-11.796875 5.105468-25.328125 4.21875-36.355469-2.390626-7.90625-5.402343-14.90625-12.027343-20.734375-19.625-.085937 0-.085937-.085937-.171875-.085937-1.535156-1.878906-3.070312-3.839844-4.605469-5.71875-.769531-.9375-1.453124-1.792969-2.132812-2.730469-10.214844-13.277344-17.910156-28.320312-22.699219-44.371094-4.960937-16.269531-6.984375-33.289062-5.972656-50.261718.125-3.953125 3.011719-7.269532 6.910156-7.9375 40.238281-5.472656 79.023438-18.75 114.175781-39.082032h.085938c.9375-.597656 1.792969-1.109374 2.730469-1.707031 9.324219-5.871093 18.09375-12.582031 26.199219-20.054687 2.386718-2.21875 4.605468-4.4375 6.738281-6.738282 1.453125-1.539062 3.671875-4.183593 6.488281-7.683593 4.863281-6.058594 11.261719-14.589844 17.320312-22.78125 5.375 4.007812 17.238282-4.523438 23.46875-1.792969 4.046876 2.054688 7.648438 4.894531 10.578126 8.363281 3.976562 5.769531 10.207031 9.582031 17.152343 10.496094zm0 0" fill="#cad9fc"/><path d="m324.179688 201.988281c-.148438 9.613281-.804688 19.210938-1.960938 28.757813-.339844 2.898437-.769531 5.800781-1.195312 8.617187-4.214844 26.195313-13.148438 51.40625-26.367188 74.410157-1.367188 2.476562-2.902344 4.863281-4.351562 7.253906-6.804688 10.734375-14.511719 20.871094-23.039063 30.292968-13.335937 14.613282-28.507813 27.4375-45.144531 38.144532-11.550782 8.054687-23.976563 14.78125-37.03125 20.054687-11.796875 5.105469-25.328125 4.214844-36.355469-2.390625-1.273437-.773437-2.5-1.628906-3.667969-2.558594-.085937 0-.085937-.085937-.171875-.085937-1.535156-1.878906-3.070312-3.839844-4.605469-5.71875-.769531-.9375-1.453124-1.792969-2.132812-2.730469-10.214844-13.277344-17.910156-28.320312-22.699219-44.371094-4.960937-16.269531-6.984375-33.289062-5.972656-50.261718.125-3.953125 3.011719-7.269532 6.910156-7.9375 40.238281-5.472656 79.023438-18.75 114.175781-39.082032h.085938c.9375-.597656 1.792969-1.109374 2.730469-1.707031 9.324219-5.871093 18.09375-12.582031 26.199219-20.054687 2.386718-2.21875 4.605468-4.4375 6.738281-6.738282 1.453125-1.539062 3.671875-4.183593 6.488281-7.683593 4.863281-6.058594 11.261719-14.589844 17.320312-22.78125 5.375 4.007812 17.238282-4.523438 23.46875-1.792969 4.046876 2.054688 7.648438 4.894531 10.578126 8.363281zm0 0" fill="#e8edfc"/><path d="m265.644531 166.488281c-13.796875-26.4375-12.730469-58.175781 2.8125-83.625 2.078125-3.5 4.417969-6.839843 7-9.984375 27.648438 64.597656 4.691407 86.527344-9.8125 93.609375zm0 0" fill="#cad9fc"/><path d="m426.667969 127.152344c.027343 18.027344-5.683594 35.601562-16.300781 50.175781-.21875-4.640625-1.351563-9.195313-3.328126-13.398437-.550781-1.265626-1.238281-2.46875-2.046874-3.585938l.9375 4.183594c-4.695313 2.46875-9.980469 3.589844-15.273438 3.242187h-.085938c-2.921874-.203125-5.78125-.925781-8.449218-2.132812-.714844-.273438-1.398438-.617188-2.046875-1.023438-4.703125-2.46875-8.632813-6.1875-11.347657-10.753906-2.558593-4.039063-3.242187-8.984375-1.878906-13.566406 2.015625-4.121094 5.949219-6.96875 10.496094-7.597657 1.789062-.222656 3.597656-.195312 5.375.085938-11.347656-22.015625-59.476562-14.847656-84.050781-31.230469-10.632813-6.902343-18.675781-17.136719-22.871094-29.097656 13.355469-15.933594 32.027344-26.484375 52.566406-29.699219 4.296875-.617187 8.628907-.929687 12.96875-.9375 47.128907 0 85.335938 38.207032 85.335938 85.335938zm0 0" fill="#cad9fc"/><path d="m401.066406 127.152344c.027344 14.199218-3.554687 28.179687-10.410156 40.617187-1.6875 3.347657-3.65625 6.546875-5.886719 9.558594-.21875-4.019531-1.113281-7.972656-2.648437-11.691406-.1875-.585938-.417969-1.152344-.679688-1.707031-.554687-1.265626-1.238281-2.46875-2.050781-3.585938l.941406 4.183594c-.070312.0625-.164062.09375-.257812.085937-4.703125-2.46875-8.632813-6.1875-11.347657-10.753906-2.558593-4.039063-3.242187-8.984375-1.878906-13.566406 2.015625-4.121094 5.949219-6.96875 10.496094-7.597657 1.789062-.222656 3.597656-.195312 5.375.085938-11.347656-22.015625-59.476562-14.847656-84.050781-31.230469-10.632813-6.902343-18.675781-17.136719-22.871094-29.097656 13.355469-15.933594 32.027344-26.484375 52.566406-29.699219 41.773438 6.273438 72.683594 42.152344 72.703125 84.398438zm0 0" fill="#e8edfc"/><path d="m279.464844 82.863281c-1.191406-3.160156-2.558594-6.484375-4.007813-9.984375.136719-.121094.253907-.265625.339844-.425781 1.480469 4.269531 3.488281 8.339844 5.972656 12.117187-.085937 0-.085937-.085937-.167969-.085937-.75-.492187-1.460937-1.035156-2.136718-1.621094zm0 0" fill="#cad9fc"/><path d="m410.367188 177.328125c-.425782.511719-.765626 1.109375-1.277344 1.621094-4.117188 5.550781-8.96875 10.515625-14.421875 14.761719-4.375 3.578124-9.125 6.667968-14.167969 9.214843-12.085938 6.316407-25.527344 9.59375-39.167969 9.558594-18.464843.003906-36.429687-5.984375-51.199219-17.066406-6.414062-4.824219-12.105468-10.542969-16.894531-16.980469 26.148438 19.578125 61.199219 22.460938 90.195313 7.421875 5.042968-2.546875 9.792968-5.636719 14.167968-9.214844 3.578126-2.785156 6.894532-5.902343 9.898438-9.300781 1.007812.222656 2.035156.367188 3.070312.425781 5.320313.347657 10.632813-.773437 15.359376-3.242187l-.9375-4.183594c.808593 1.117188 1.496093 2.320312 2.046874 3.585938 1.976563 4.203124 3.109376 8.757812 3.328126 13.398437zm0 0" fill="#cad9fc"/><path d="m387.5 167.34375c-3.003906 3.398438-6.320312 6.515625-9.898438 9.300781-4.375 3.578125-9.125 6.667969-14.167968 9.214844-28.996094 15.039063-64.046875 12.15625-90.195313-7.421875-.085937 0-.085937-.085938-.171875-.085938-2.800781-3.742187-5.28125-7.710937-7.421875-11.863281 13.738281-6.742187 34.984375-26.707031 13.820313-83.625.675781.585938 1.386718 1.128907 2.136718 1.621094.082032 0 .082032.085937.167969.085937 4.386719 6.777344 10.140625 12.5625 16.898438 16.980469 14.847656 9.898438 38.3125 11.179688 57.085937 15.617188 12.203125 2.8125 22.445313 6.910156 26.964844 15.613281-1.777344-.28125-3.585938-.308594-5.375-.085938-4.546875.628907-8.480469 3.476563-10.496094 7.597657-.96875 2.933593-.996094 6.09375-.085937 9.042969.5 1.570312 1.15625 3.085937 1.964843 4.523437 4.09375 6.921875 10.902344 11.8125 18.773438 13.484375zm0 0" fill="#e8edfc"/><path d="m272.8125 218.199219c-2.816406 3.5-5.035156 6.144531-6.488281 7.683593-2.132813 2.300782-4.351563 4.519532-6.738281 6.738282-1.878907 1.707031-3.757813 3.414062-5.71875 5.035156l-.085938.085938c-6.429688 5.460937-13.246094 10.449218-20.394531 14.933593-.9375.597657-1.792969 1.109375-2.730469 1.707031h-.085938c-29.53125 4.972657-59.871093-.808593-85.503906-16.300781-27.648437-18.429687-30.464844-44.285156-17.75-64.253906 13.582032-19.054687 35.742188-30.121094 59.136719-29.527344.421875-.070312.851563-.097656 1.28125-.082031 41.984375 0 71.421875 46.503906 85.078125 73.980469zm0 0" fill="#cad9fc"/><path d="m255.742188 235.269531c-.679688.851563-1.363282 1.621094-1.875 2.386719l-.085938.085938c-6.429688 5.460937-13.246094 10.449218-20.394531 14.933593-.9375.597657-1.792969 1.109375-2.730469 1.707031h-.085938c-29.53125 4.972657-59.871093-.808593-85.503906-16.300781-27.648437-18.429687-30.464844-44.285156-17.75-64.253906 12.527344-8.132813 27.136719-12.457031 42.070313-12.460937.421875-.070313.851562-.097657 1.28125-.082032 41.984375 0 71.421875 46.503906 85.074219 73.984375zm0 0" fill="#e8edfc"/><path d="m114.089844 72.023438c-1.023438.960937-1.503906 2.371093-1.277344 3.757812l4.605469 26.792969c.273437 1.589843-.375 3.199219-1.675781 4.160156-1.300782.957031-3.027344 1.097656-4.46875.363281l-20.480469-10.410156-3.496094-1.792969c-1.21875-.683593-2.707031-.683593-3.925781 0l-10.835938 5.546875-13.144531 6.65625c-1.4375.734375-3.167969.59375-4.46875-.363281-1.296875-.960937-1.945313-2.570313-1.675781-4.160156l1.027344-5.886719 3.582031-20.90625c.226562-1.386719-.253907-2.796875-1.28125-3.757812l-19.113281-18.601563c-1.207032-1.144531-1.640626-2.882813-1.109376-4.460937.53125-1.574219 1.929688-2.699219 3.585938-2.878907l26.367188-3.15625c1.414062-.1875 2.652343-1.046875 3.328124-2.304687l2.902344-5.972656 8.957032-18.347657c.714843-1.46875 2.207031-2.40625 3.839843-2.40625 1.636719 0 3.128907.9375 3.839844 2.40625l11.863281 24.320313c.675782 1.257812 1.914063 2.117187 3.328125 2.304687l26.367188 3.15625c1.652343.179688 3.050781 1.304688 3.582031 2.878907.53125 1.578124.101562 3.316406-1.105469 4.460937zm0 0" fill="#cad9fc"/><path d="m90.792969 96.6875-3.582031-20.90625c-.226563-1.386719.253906-2.796875 1.28125-3.757812l19.113281-18.601563c1.207031-1.144531 1.640625-2.882813 1.109375-4.460937-.53125-1.574219-1.929688-2.699219-3.585938-2.878907l-26.367187-3.15625c-1.414063-.1875-2.652344-1.046875-3.328125-2.304687l-2.898438-5.972656-2.902344 5.972656c-.675781 1.257812-1.914062 2.117187-3.328124 2.304687l-26.367188 3.15625c-1.65625.179688-3.054688 1.304688-3.585938 2.878907-.53125 1.578124-.097656 3.316406 1.109376 4.460937l19.113281 18.601563c1.027343.960937 1.507812 2.371093 1.28125 3.757812l-3.582031 20.90625 3.496093-1.792969c1.21875-.683593 2.707031-.683593 3.925781 0l10.839844 5.546875zm0 0" fill="#e8edfc"/><path d="m497.835938 361.5625c-3.832032 8.191406-8.164063 16.144531-12.972657 23.804688-4.960937 9.121093-8.089843 19.121093-9.214843 29.441406.074218 11.488281-1.011719 22.953125-3.242188 34.21875-2.476562 8.105468-9.300781 14.675781-18.089844 10.496094-3.546875-1.792969-6.460937-4.621094-8.363281-8.105469.335937-.777344.621094-1.578125.851563-2.390625 2.234374-11.265625 3.320312-22.730469 3.242187-34.21875 1.125-10.320313 4.253906-20.320313 9.21875-29.441406 4.804687-7.660157 9.136719-15.613282 12.96875-23.804688 7.59375-19.285156 9.386719-45.144531-6.742187-60.503906-5.167969-4.914063-11.515626-8.410156-18.429688-10.152344 15.449219-4.28125 32.015625-.460938 44.03125 10.152344 16.128906 15.359375 14.335938 41.21875 6.742188 60.503906zm0 0" fill="#e8edfc"/><path d="m472.234375 361.5625c-3.832031 8.191406-8.164063 16.144531-12.96875 23.804688-4.964844 9.121093-8.09375 19.121093-9.21875 29.441406.078125 11.488281-1.007813 22.953125-3.242187 34.21875-.230469.8125-.515626 1.613281-.851563 2.390625-1.820313-2.980469-3.148437-6.238281-3.925781-9.644531-1.238282-8.359376-1.839844-16.804688-1.792969-25.257813-.769531-8.703125-3.328125-19.027344-13.566406-20.136719-8.277344.851563-11.519531 7.761719-12.800781 14.929688-.34375 1.707031-.597657 3.5-.769532 5.207031.046875 8.453125-.550781 16.898437-1.789062 25.257813-1.324219 7.421874-5.808594 13.902343-12.289063 17.75-3.339843 1.503906-7.171875 1.46875-10.484375-.089844s-5.78125-4.484375-6.753906-8.015625c-.335938-.777344-.621094-1.578125-.851562-2.390625-2.234376-11.265625-3.320313-22.730469-3.246094-34.21875-1.121094-10.320313-4.253906-20.320313-9.214844-29.441406-4.804688-7.660157-9.136719-15.613282-12.96875-23.804688-.429688-1.027344-.855469-2.136719-1.195312-3.242188v-.085937c-6.570313-18.773437-7.253907-42.667969 7.933593-57.175781 5.261719-4.921875 11.695313-8.417969 18.691407-10.152344 3.042968-.789062 6.160156-1.273438 9.300781-1.453125 7.238281-.421875 14.488281.59375 21.332031 2.988281.769531.253906 1.535156.597656 2.304688.9375 4.695312 1.953125 9.027343 4.695313 12.800781 8.109375.527343-.503906 1.101562-.960937 1.707031-1.367187.527344-.527344 1.097656-1.015625 1.703125-1.449219 5.050781-3.707031 10.796875-6.347656 16.898437-7.765625h.085938c6.914062 1.742188 13.261719 5.238281 18.429688 10.152344 16.128906 15.359375 14.335937 41.21875 6.742187 60.503906zm0 0" fill="#fff"/><path d="m446.976562 290.90625c-6.101562 1.417969-11.847656 4.058594-16.898437 7.765625-.605469.433594-1.175781.921875-1.703125 1.449219-.605469.40625-1.179688.863281-1.707031 1.367187-3.773438-3.414062-8.105469-6.15625-12.800781-8.109375 10.476562-4.386718 22.09375-5.257812 33.109374-2.472656zm0 0" fill="#cad9fc"/><path d="m430.078125 298.671875c-.179687.265625-.410156.5-.679687.679687-.328126.277344-.667969.535157-1.023438.769532.527344-.527344 1.097656-1.015625 1.703125-1.449219zm0 0" fill="#e4c05c"/><path d="m56.574219 72.023438c1.027343.960937 1.507812 2.371093 1.28125 3.757812l-3.582031 20.90625-1.027344 5.886719c-.269532 1.589843.378906 3.199219 1.675781 4.160156 1.300781.957031 3.03125 1.097656 4.46875.363281l13.144531-6.65625 6.9375-1.425781.398438-2.328125 3.585937-20.90625c.226563-1.386719-.253906-2.796875-1.28125-3.757812l-19.113281-18.601563c-1.183594-1.164063-1.597656-2.898437-1.066406-4.472656.515625-1.566407 1.898437-2.6875 3.539062-2.867188l26.367188-3.15625c1.417968-.1875 2.65625-1.042969 3.328125-2.304687l2.894531-5.972656-8.953125-18.347657c-.710937-1.46875-2.203125-2.40625-3.839844-2.40625-1.632812 0-3.125.9375-3.839843 2.40625l-8.957032 18.347657-2.902344 5.972656c-.671874 1.261718-1.914062 2.117187-3.328124 2.304687l-26.367188 3.15625c-1.640625.179688-3.027344 1.300781-3.542969 2.867188-.53125 1.574219-.117187 3.308593 1.066407 4.472656zm0 0" fill="#fff"/><path d="m38.398438 374.308594c-5.71875-10.457032-5.71875-23.109375 0-33.570313-2.386719-5.007812-7.265626-8.359375-12.796876-8.789062-9.386718 0-17.066406 11.519531-17.066406 25.601562 0 14.078125 7.679688 25.601563 17.066406 25.601563 5.539063-.445313 10.421876-3.816406 12.796876-8.84375zm0 0" fill="#fff"/><path d="m191.402344 424.195312c-7.90625-5.402343-14.90625-12.027343-20.734375-19.625-.085938 0-.085938-.085937-.171875-.085937-1.535156-1.878906-3.070313-3.839844-4.609375-5.71875-.765625-.9375-1.449219-1.792969-2.132813-2.730469-10.214844-13.277344-17.90625-28.320312-22.699218-44.371094-4.957032-16.269531-6.980469-33.289062-5.972657-50.261718.125-3.953125 3.015625-7.269532 6.914063-7.9375 17.664062-2.390625 60.542968-22.84375 105.085937-50.347656-8.34375 1.085937-8.703125 12.878906-18.59375 12.460937-34.628906 19.613281-72.667969 32.46875-112.09375 37.886719-3.898437.667968-6.785156 3.984375-6.910156 7.9375-1.011719 16.972656 1.011719 33.992187 5.972656 50.261718 4.789063 16.050782 12.484375 31.09375 22.699219 44.371094.679688.9375 1.363281 1.792969 2.132812 2.730469 1.535157 1.878906 3.070313 3.839844 4.605469 5.71875.085938 0 .085938.085937.171875.085937 5.828125 7.597657 12.828125 14.222657 20.734375 19.625 9.867188 6.050782 21.933594 7.328126 32.847657 3.480469-2.539063-.878906-4.972657-2.046875-7.246094-3.480469zm0 0" fill="#fff"/><path d="m59.734375 434.351562c-.070313-5.859374 1.402344-11.632812 4.265625-16.742187-2.375-5.03125-7.253906-8.410156-12.800781-8.859375-9.386719 0-17.066407 11.519531-17.066407 25.601562 0 14.078126 7.679688 25.597657 17.066407 25.597657 5.542969-.441407 10.425781-3.8125 12.800781-8.839844-2.867188-5.117187-4.335938-10.894531-4.265625-16.757813zm0 0" fill="#fff"/><path d="m170.375 416.992188c6.136719 3.859374 13.523438 5.207031 20.625 3.757812 8.148438-1.777344 15.96875-4.808594 23.1875-8.988281 7.679688-4.136719 15.359375-9.15625 22.980469-14.085938 7.414062-4.921875 14.523437-10.289062 21.289062-16.070312 16.242188-13.832031 30.3125-30.035157 41.730469-48.058594l14.4375 9.097656c-12.332031 19.476563-27.527344 36.984375-45.074219 51.933594-7.292969 6.234375-14.957031 12.023437-22.953125 17.328125-7.921875 5.121094-15.695312 10.242188-24.304687 14.875-8.839844 5.078125-18.425781 8.71875-28.40625 10.792969-11.265625 2.128906-22.917969-.078125-32.625-6.175781zm0 0" fill="#fff"/><g fill="#428dff"><path d="m231.140625 404.484375c-2.179687-.445313-4.449219-.0625-6.363281 1.074219-1.847656 1.179687-3.191406 3.003906-3.773438 5.121094l-.210937 1.613281c-.035157.570312.003906 1.144531.109375 1.707031.035156.539062.148437 1.074219.332031 1.585938.199219.535156.433594 1.058593.699219 1.5625 1.152344 1.957031 3.023437 3.386718 5.214844 3.984374 1.125.238282 2.28125.257813 3.414062.058594 2.292969-.28125 4.363281-1.507812 5.710938-3.382812 1.351562-1.875 1.855468-4.226563 1.398437-6.488282-.1875-1.101562-.585937-2.15625-1.179687-3.097656-1.257813-1.867187-3.164063-3.199218-5.351563-3.738281zm0 0"/><path d="m231.859375 353.625c-.632813.9375-16.035156 22.886719-54.332031 30.550781-4.289063.871094-7.226563 4.84375-6.792969 9.203125.429687 4.355469 4.089844 7.679688 8.464844 7.691406.574219.003907 1.144531-.054687 1.707031-.171874 45.609375-9.113282 64.382812-36.597657 65.160156-37.757813 2.628906-3.914063 1.585938-9.21875-2.328125-11.84375-3.914062-2.628906-9.21875-1.585937-11.84375 2.328125zm0 0"/><path d="m186.777344 169.5c-13.796875-2.335938-27.917969 1.601562-38.511719 10.746094-3.683594 2.945312-4.28125 8.316406-1.335937 12 2.945312 3.683594 8.320312 4.28125 12.003906 1.335937 6.796875-6.054687 15.957031-8.722656 24.941406-7.261719 25.644531 4.34375 47.609375 38.914063 47.789062 39.253907 1.574219 2.492187 4.320313 3.996093 7.269532 3.976562 1.597656.003907 3.164062-.449219 4.515625-1.304687 3.988281-2.5 5.203125-7.757813 2.710937-11.75-1.039062-1.65625-26.1875-41.34375-59.382812-46.996094zm0 0"/><path d="m426.667969 290.648438c-9.6875-6.371094-21.046875-9.734376-32.640625-9.667969-14.082032-13.890625-29.4375-26.429688-45.867188-37.445313.773438-7.554687 1.25-15.191406 1.433594-22.910156 7.433594-.660156 14.761719-2.207031 21.828125-4.617188.769531 20.660157 10.324219 34.621094 27.578125 38.914063 4.148438 1.070313 8.414062 1.625 12.699219 1.652344 19.507812-.617188 36.109375-14.398438 40.3125-33.457031 1.050781-4.535157-1.726563-9.078126-6.246094-10.207032-4.515625-1.128906-9.101563 1.570313-10.308594 6.066406-1.40625 7.042969-5.714843 13.164063-11.875 16.855469-6.15625 3.691407-13.585937 4.613281-20.457031 2.535157-11.199219-2.785157-16.019531-13.007813-14.507812-30.210938 2.335937-1.371094 4.617187-2.816406 6.824218-4.375 5.074219 2.675781 10.519532 4.574219 16.15625 5.628906-1.71875 1.609375-3.660156 2.960938-5.769531 4.003906-4.175781 2.128907-5.855469 7.226563-3.757813 11.417969 2.09375 4.191407 7.179688 5.910157 11.386719 3.847657 12.796875-6.265626 21.140625-19.027344 21.742188-33.261719.003906-3.957031-2.714844-7.398438-6.5625-8.3125-3.851563-.914063-7.824219.941406-9.597657 4.480469-.375.769531-.683593.851562-1.035156.964843-2.832031.292969-5.691406-.148437-8.300781-1.28125 23.390625-24.75 31.515625-60.238281 21.230469-92.699219-10.285156-32.464843-37.371094-56.792968-70.746094-63.558593-33.375-6.761719-67.789062 5.109375-89.902344 31.007812-.203125.195313-.394531.402344-.570312.621094l-.15625.171875c-.167969.167969-.316406.339844-.476563.527344-1.484375 1.785156-2.851562 3.667968-4.199219 5.574218-15.929687-4.394531-44.3125-9.167968-64.808593 4.488282-17.394531 11.578125-21.90625 36.957031-22.1875 58.878906-30.960938 3.25-56.757813 21.820312-64.25 47.164062-6.78125 22.972657 3.203125 46.078126 26.726562 61.710938 16.074219 10.410156 34.453125 16.714844 53.53125 18.355469-25.269531 10.441406-51.75 17.667969-78.824219 21.503906-7.839843 1.285156-13.722656 7.875-14.105468 15.8125-.871094 14.730469.40625 29.507813 3.789062 43.871094-18.335937 3.066406-37.054687 3.085937-55.398437.058593-2.261719-11.621093-11.957031-20.332031-23.753907-21.339843-14.363281 0-25.601562 14.992187-25.601562 34.132812s11.238281 34.132813 25.601562 34.132813c13.097657 0 23.5-12.527344 25.238282-29.253906 7.570312 1.207031 15.222656 1.800781 22.886718 1.777343 12.03125-.097656 24.039063-1.097656 35.917969-2.996093 4.058594 11.347656 9.503907 22.144531 16.214844 32.152343-16.59375 9.859375-34.476563 17.363281-53.136719 22.289063-3.554687-8.898438-11.953125-14.921875-21.523437-15.433594-14.359375 0-25.597657 14.992188-25.597657 34.132812 0 19.140626 11.238282 34.132813 25.597657 34.132813 14.363281 0 25.601562-14.992187 25.601562-34.132813 0-.742187-.128906-1.433593-.164062-2.160156 20.925781-5.472656 40.960937-13.90625 59.496093-25.054687 6.984376 9.394531 15.460938 17.582031 25.097657 24.234375 5.972656 3.800781 12.769531 6.113281 19.820312 6.75 6.746094.515625 13.53125-.246094 19.996094-2.25 2.320313-.570313 4.28125-2.125 5.363281-4.253906 1.082032-2.132813 1.179688-4.632813.265625-6.839844-1.734375-4.046875-6.121093-6.269532-10.410156-5.265625-8.570313 3.105469-18.085937 2.164062-25.878906-2.5625-9.035157-6.539063-16.953125-14.496094-23.453125-23.558594-20.496094-25.964844-30.9375-58.449219-29.402344-91.496094 41.132812-5.636719 80.796875-19.167969 116.800781-39.839843h.042969c.296875-.128907.582031-.28125.855469-.453126l2.730469-1.707031c8.207031-5.242187 16-11.109375 23.3125-17.542969 2.699218 33.558594 16.722656 65.207032 39.765624 89.753907l-.851562 1.476562c-11.417969 18.015625-25.484375 34.210938-41.722656 48.039063l-6.339844 5.222656c-3.5625 2.933594-4.214844 8.140625-1.484375 11.863281 1.371094 1.84375 3.4375 3.046875 5.71875 3.332031 2.28125.285157 4.582031-.371093 6.363281-1.820312l6.828125-5.625c17.164063-14.644531 32.070313-31.738281 44.246094-50.730469.382813.316407.714844.648438 1.101563.957031 10.011718 7.867188 20.949218 14.480469 32.570312 19.691407l.085938.214843c2.429687 5.777344 5.355468 11.335938 8.746093 16.605469 1.605469 2.644531 3.21875 5.300781 4.683594 8.066407 4.414063 8.164062 7.21875 17.101562 8.261719 26.324218.402344 3.789063.484375 7.628906.570312 11.484375-.171875 8.222657.824219 16.429688 2.960938 24.371094 1.886718 7.074219 6.742187 12.988281 13.3125 16.214844 5.34375 2.308593 11.441406 2.113281 16.625-.539063 8.855468-4.875 15.058594-13.464844 16.902344-23.40625 1.253906-5.960937 1.824218-12.042968 1.707031-18.132812.050781-2.816406.09375-5.640625.324219-8.449219.855468-9.726563 3.414062-11.722656 5.042968-12.210937 1.640625.488281 4.226563 2.484374 5.042969 12.21875.230469 2.800781.273437 5.625.324219 8.441406-.117188 6.089844.457031 12.171875 1.707031 18.132812 1.847656 9.945313 8.054687 18.535156 16.914063 23.414063 2.8125 1.355469 5.890624 2.0625 9.011718 2.074219 2.613282-.003907 5.195313-.550782 7.585938-1.601563 6.570312-3.230469 11.425781-9.140625 13.3125-16.214844 2.136718-7.945312 3.132812-16.152343 2.960937-24.378906.085938-3.859375.167969-7.679687.570313-11.488281 1.046875-9.203125 3.847656-18.121094 8.253906-26.273438 1.464844-2.765625 3.085938-5.417968 4.683594-8.0625 3.394531-5.273437 6.320312-10.832031 8.746094-16.613281 8.464843-21.582031 10.597656-51.261719-8.789063-69.820313-19.808594-17.121093-48.628906-18.855468-70.347656-4.234374zm-401.066407 83.96875c-3.484374 0-8.535156-6.648438-8.535156-17.066407 0-10.242187 5.121094-17.066406 8.535156-17.066406 3.410157 0 8.53125 6.824219 8.53125 17.066406 0 10.445313-5.050781 17.066407-8.53125 17.066407zm25.597657 76.800781c-3.480469 0-8.53125-6.648438-8.53125-17.066407 0-10.242187 5.117187-17.066406 8.53125-17.066406 3.414062 0 8.535156 6.824219 8.535156 17.066406 0 10.445313-5.054687 17.066407-8.535156 17.066407zm226.007812-282.097657c11.152344-8.429687 23.644531-25.769531 18.242188-59.730468 13.242187 6.84375 27.636719 11.183594 42.453125 12.800781 9.304687 1.25 18.457031 3.460937 27.308594 6.59375-2.820313 2.144531-5.003907 5.007813-6.324219 8.296875-2.339844 6.964844-1.457031 14.613281 2.414062 20.863281 6.050781 10.371094 16.769531 17.152344 28.730469 18.175781.777344.050782 1.554688.074219 2.324219.074219 2.953125-.035156 5.894531-.417969 8.761719-1.132812-14.527344 18.132812-36.496094 28.699219-59.734376 28.722656l-.050781-.035156h-.125c-25.800781-.050781-49.84375-13.0625-64-34.628907zm-12.671875-42.167968c-.007812-12.472656 3.046875-24.753906 8.890625-35.773438 9.871094 29.304688 8.457031 50.824219-4.054687 62.34375-3.179688-8.5-4.816406-17.496094-4.835938-26.570312zm76.796875-76.800782c28.558594.03125 54.746094 15.898438 67.996094 41.199219-25.992187-23.664062-65.878906-24.132812-67.996094-24.132812-4.710937 0-8.53125 3.820312-8.53125 8.53125 0 4.714843 3.820313 8.535156 8.53125 8.535156.539063 0 54.128907.425781 68.875 37.296875 4.574219 11.4375 5.417969 26.34375-5.972656 33.871094-3.886719 2.578125-8.496094 3.839844-13.152344 3.601562-6.261719-.683594-11.835937-4.273437-15.042969-9.695312-1.203124-1.828125-1.652343-4.050782-1.246093-6.203125.90625-1.25 2.289062-2.066407 3.824219-2.253907 1.882812-.152343 3.777343.152344 5.519531.898438-1.03125 3.972656.914062 8.117188 4.628906 9.863281 3.71875 1.746094 8.148437.597657 10.550781-2.730469 2.773438-3.671874 3.4375-8.519531 1.75-12.800781-2.46875-5.535156-7.347656-9.625-13.226562-11.09375-9.464844-13.019531-28.484375-16.484375-47.050782-19.726562-13.058593-1.308594-25.753906-5.074219-37.410156-11.09375-7.632812-4.976563-13.742187-11.960938-17.65625-20.183594 14.464844-15.265625 34.578125-23.902344 55.609375-23.882813zm-131.796875 41.257813c13.414063-8.941406 33.613282-6.375 46.480469-3.34375-12.03125 26.078125-11.332031 56.253906 1.894531 81.746094 0 .085937 0 .171875.0625.25.058594.074219.136719.179687.195313.28125 5.183593 9.863281 12.078125 18.730469 20.359375 26.1875-1.570313 2.101562-3.011719 4.019531-4.367188 5.804687-15.457031-27.375-42.179687-62.292968-79.199218-66.375.367187-22.46875 5.519531-38.527344 14.574218-44.550781zm44.246094 134.75c-7.722656 7.117187-16.082031 13.515625-24.96875 19.113281l-.988281.617188c-26.976563 4.292968-54.597657-1.054688-78.023438-15.105469-17.21875-11.46875-24.445312-27.027344-19.820312-42.667969 4.957031-16.757812 24.746093-34.984375 56.40625-35.445312h.460937c.285156 0 .570313-.03125.851563-.085938 35.183593 0 61.261719 38.28125 74.941406 64.367188-1.035156 1.21875-1.90625 2.21875-2.613281 2.96875-1.953125 2.117187-4.027344 4.171875-6.246094 6.238281zm22.28125 1.320313c.972656-1.160157 2.011719-2.421876 3.199219-3.890626l.042969-.050781.152343-.195312c3.234375-4.027344 7.375-9.386719 12.707031-16.554688 12.21875 7.597657 26.035157 12.257813 40.363282 13.609375-.195313 11.527344-1.148438 23.03125-2.851563 34.433594-3.542969 21.320312-10.296875 41.980469-20.027343 61.277344-19.96875-23.394532-31.210938-52.992188-31.804688-83.746094-.0625-1.773438-.6875-3.484375-1.78125-4.882812zm49.425781 103.765624c-1.09375-.851562-2.058593-1.78125-3.097656-2.667968 11.066406-20.765625 18.867187-43.113282 23.125-66.253906 9.597656 6.855468 18.839844 14.195312 27.691406 21.988281-6.28125 2.265625-12.027343 5.792969-16.890625 10.371093-12.140625 12.660157-17.5 30.359376-14.429687 47.632813-5.730469-3.28125-11.214844-6.980469-16.398438-11.070313zm164.445313 27.019532c-2.085938 4.867187-4.582032 9.554687-7.457032 14-1.769531 2.921875-3.535156 5.847656-5.121093 8.875-5.457031 10.089844-8.917969 21.132812-10.199219 32.53125-.460938 4.265625-.570312 8.59375-.671875 12.917968.167969 6.644532-.570313 13.277344-2.195313 19.722657-.515624 2.292969-1.898437 4.300781-3.863281 5.597656-.28125.117187-.957031.382813-2.425781-.308594-4.144531-2.734375-6.933594-7.097656-7.679688-12.007812-.925781-4.746094-1.339843-9.582031-1.238281-14.417969-.050781-3.203125-.117187-6.394531-.382812-9.574219-1.78125-21.335937-12.441407-26.976562-21.066407-27.929687-.320312-.035156-.644531-.054688-.964843-.054688-.324219.035156-.648438.054688-.972657.054688-8.628906.953125-19.285156 6.585937-21.070312 27.917968-.265625 3.191407-.332031 6.382813-.382812 9.585938.105468 4.835938-.3125 9.671875-1.238282 14.417969-.746094 4.910156-3.535156 9.269531-7.679687 12-1.503907.714843-2.160157.433593-2.433594.316406-1.964844-1.296875-3.351563-3.308594-3.863281-5.609375-1.625-6.4375-2.363282-13.070312-2.195313-19.710938-.101562-4.324218-.210937-8.652343-.671875-12.917968-1.269531-11.394532-4.722656-22.4375-10.164062-32.53125-1.441406-2.695313-3.019532-5.296875-4.589844-7.898438 11.035156 3.316406 22.296875 5.828125 33.695312 7.515625.414063.058594.832032.085938 1.246094.085938 4.464844-.011719 8.164063-3.460938 8.488282-7.914063.324218-4.449218-2.835938-8.398437-7.25-9.058594-15.890626-2.25-31.46875-6.34375-46.414063-12.195312-4.265625-14.984375-4.613281-33.613281 6.9375-44.679688 12.589844-10.507812 30.277344-12.375 44.785156-4.726562-3.777343 3.777344-7.230469 7.863281-10.324219 12.21875-.207031.238281-.367187.511719-.546874.769531-3.355469 4.679688-5.949219 9.863281-7.679688 15.359375-.859375 2.925782-.089844 6.085938 2.019531 8.292969 2.105469 2.203125 5.226563 3.117187 8.191407 2.398437 2.960937-.722656 5.316406-2.96875 6.171874-5.898437 4.585938-10.792969 11.882813-20.21875 21.179688-27.363281.09375-.070313.136719-.179688.222656-.257813.085938-.078125.210938-.101562.296875-.1875 15.082031-13.085937 37.414063-13.339843 52.789063-.597656 13.3125 12.75 10.863281 35.59375 4.71875 51.261719zm0 0"/><path d="m452.265625 314.882812c-3.046875-.015624-5.875 1.59375-7.414063 4.222657-1.539062 2.632812-1.558593 5.882812-.050781 8.535156 1.507813 2.648437 4.316407 4.292969 7.363281 4.308594 2.339844-.246094 4.667969.566406 6.339844 2.222656 1.675782 1.652344 2.515625 3.96875 2.296875 6.3125 0 4.710937 3.820313 8.53125 8.53125 8.53125 4.714844 0 8.535157-3.820313 8.535157-8.53125.199218-6.851563-2.433594-13.476563-7.277344-18.324219-4.84375-4.84375-11.472656-7.476562-18.324219-7.277344zm0 0"/><path d="m147.625 44.445312c-1.050781-3.117187-3.800781-5.351562-7.0625-5.742187l-32.890625-3.953125-14.660156-29.96875c-1.589844-2.71875-4.503907-4.390625-7.652344-4.390625-3.152344 0-6.066406 1.671875-7.65625 4.390625l-14.746094 29.96875-32.886719 3.953125c-3.261718.390625-6.011718 2.621094-7.066406 5.734375-1.054687 3.113281-.226562 6.554688 2.125 8.847656l23.894532 23.3125-5.648438 32.898438c-.546875 3.179687.746094 6.398437 3.34375 8.316406 2.601562 1.914062 6.058594 2.199219 8.9375.734375l29.675781-15.101563 29.65625 15.101563c1.199219.609375 2.527344.925781 3.871094.921875 1.824219-.003906 3.597656-.601562 5.054687-1.703125 2.597657-1.914063 3.894532-5.132813 3.351563-8.3125l-5.648437-32.898437 23.894531-23.3125c2.328125-2.285157 3.152343-5.699219 2.113281-8.796876zm-41.171875 23.039063c-2.007813 1.960937-2.925781 4.785156-2.449219 7.554687l3.523438 20.554688-18.355469-9.386719c-2.433594-1.230469-5.308594-1.230469-7.746094 0l-18.277343 9.371094 3.480468-20.480469c.476563-2.765625-.441406-5.589844-2.449218-7.550781l-14.355469-14.03125 19.765625-2.371094c2.871094-.34375 5.375-2.121093 6.648437-4.71875l9.09375-18.527343 9.097657 18.527343c1.273437 2.597657 3.773437 4.375 6.648437 4.71875l19.761719 2.371094zm0 0"/><path d="m324.265625 136.535156c0 4.714844-3.820313 8.535156-8.53125 8.535156-4.714844 0-8.535156-3.820312-8.535156-8.535156 0-4.710937 3.820312-8.53125 8.535156-8.53125 4.710937 0 8.53125 3.820313 8.53125 8.53125zm0 0"/><path d="m353.679688 186.882812c4.21875-2.105468 5.929687-7.234374 3.824218-11.449218-2.105468-4.21875-7.234375-5.929688-11.453125-3.824219-8.742187 3.152344-18.519531.359375-24.285156-6.929687-3.347656-3.234376-8.667969-3.1875-11.960937.105468-3.292969 3.289063-3.339844 8.613282-.105469 11.960938 7.554687 8.230468 18.160156 12.996094 29.332031 13.183594 5.042969.050781 10.042969-.988282 14.648438-3.046876zm0 0"/><path d="m486.398438 8.535156c0-4.710937-3.820313-8.53124975-8.53125-8.53124975-4.714844 0-8.535157 3.82031275-8.535157 8.53124975v8.535156c0 4.714844 3.820313 8.535157 8.535157 8.535157 4.710937 0 8.53125-3.820313 8.53125-8.535157zm0 0"/><path d="m477.867188 68.269531c4.710937 0 8.53125-3.820312 8.53125-8.53125v-8.535156c0-4.710937-3.820313-8.53125-8.53125-8.53125-4.714844 0-8.535157 3.820313-8.535157 8.53125v8.535156c0 4.710938 3.820313 8.53125 8.535157 8.53125zm0 0"/><path d="m460.800781 25.605469h-8.535156c-4.710937 0-8.53125 3.820312-8.53125 8.53125 0 4.714843 3.820313 8.535156 8.53125 8.535156h8.535156c4.710938 0 8.53125-3.820313 8.53125-8.535156 0-4.710938-3.820312-8.53125-8.53125-8.53125zm0 0"/><path d="m494.933594 42.671875h8.53125c4.714844 0 8.535156-3.820313 8.535156-8.535156 0-4.710938-3.820312-8.53125-8.535156-8.53125h-8.53125c-4.714844 0-8.535156 3.820312-8.535156 8.53125 0 4.714843 3.820312 8.535156 8.535156 8.535156zm0 0"/><path d="m62.234375 186.703125-6.035156-6.03125c-2.140625-2.21875-5.3125-3.109375-8.296875-2.328125s-5.3125 3.113281-6.09375 6.09375c-.78125 2.984375.109375 6.15625 2.324218 8.300781l6.035157 6.03125c3.347656 3.234375 8.671875 3.1875 11.960937-.101562 3.292969-3.292969 3.339844-8.613281.105469-11.964844zm0 0"/><path d="m86.367188 210.835938c-3.351563-3.234376-8.671876-3.1875-11.964844.105468-3.289063 3.289063-3.335938 8.613282-.101563 11.960938l6.03125 6.035156c2.144531 2.214844 5.316407 3.105469 8.300781 2.324219 2.980469-.78125 5.3125-3.109375 6.09375-6.09375s-.109374-6.15625-2.328124-8.296875zm0 0"/><path d="m50.167969 210.835938-6.035157 6.035156c-2.214843 2.140625-3.105468 5.3125-2.324218 8.296875s3.109375 5.3125 6.09375 6.09375 6.15625-.109375 8.296875-2.324219l6.035156-6.035156c3.234375-3.347656 3.1875-8.671875-.105469-11.960938-3.289062-3.292968-8.613281-3.339844-11.960937-.105468zm0 0"/><path d="m92.398438 180.671875c-3.332032-3.332031-8.734376-3.332031-12.066407 0l-6.03125 6.03125c-2.21875 2.144531-3.109375 5.316406-2.328125 8.300781s3.109375 5.3125 6.09375 6.09375 6.15625-.109375 8.300782-2.328125l6.03125-6.03125c3.332031-3.332031 3.332031-8.734375 0-12.066406zm0 0"/></g></svg>