<svg height="512pt" viewBox="0 0 512 512.0649" width="512pt" xmlns="http://www.w3.org/2000/svg"><path d="m185.757812 468.941406-123.476562 33.109375c-19.023438 5.074219-39.054688-3.527343-48.46875-20.824219-1.652344-2.921874-2.914062-6.050781-3.753906-9.300781-.988282-3.699219-1.472656-7.515625-1.453125-11.347656 0-18.6875 11.605469-35.5 25.515625-39.253906l117.929687-31.574219 11.605469-3.070312zm0 0" fill="#cad9fc"/><path d="m168.691406 451.875-123.476562 33.109375c-10.5625 2.808594-21.800782 1.464844-31.402344-3.757813-1.652344-2.921874-2.914062-6.050781-3.753906-9.300781-.988282-3.699219-1.472656-7.515625-1.453125-11.347656 0-18.6875 11.605469-35.5 25.515625-39.253906l117.929687-31.574219zm0 0" fill="#e8edfc"/><path d="m149.320312 216.355469c-2.953124.308593-5.820312 1.175781-8.445312 2.558593-6.402344 3.242188-12.375 10.667969-14.765625 27.222657-5.800781 41.640625-17.492187 95.230469-34.816406 95.230469-3.609375.082031-7.160157-.960938-10.152344-2.988282 13.566406-11.773437 10.964844-68.367187 16-104.207031 3.414063-23.980469-10.386719-52.320313-1.605469-53.335937l31.472656 5.335937c3.414063-.179687 10.707032 3.199219 13.867188 3.199219 3.15625 0 5.375 26.8125 8.445312 26.984375zm0 0" fill="#cad9fc"/><path d="m289.78125 143.820312c-.597656 1.707032-1.195312 3.328126-1.878906 4.949219-7.570313 15.882813-16.03125 31.324219-25.34375 46.25-9 16.082031-14.90625 33.710938-17.40625 51.96875-1.726563 19.683594-5.007813 39.203125-9.816406 58.367188-3.839844 14.082031-9.984376 36.011719-27.816407 36.011719-2.578125-.105469-5.03125-1.132813-6.914062-2.902344 10.242187-6.398438 6.144531-22.101563 9.132812-33.109375 4.808594-19.164063 8.089844-38.683594 9.8125-58.367188 2.5-18.257812 8.40625-35.886719 17.40625-51.96875 7.167969-13.566406 24.578125-25.941406 31.0625-39.851562 7.4375-3.414063 14.703125-7.203125 21.761719-11.347657zm0 0" fill="#cad9fc"/><path d="m289.867188 143.734375c-.023438 0-.046876.007813-.0625.027344-.015626.015625-.023438.035156-.023438.058593-7.058594 4.144532-14.324219 7.933594-21.761719 11.347657-19.664062 9.769531-41.203125 15.183593-63.144531 15.875-59.734375 0-51.203125-25.601563-110.933594-25.601563-26.644531-.214844-51.449218 13.550782-65.367187 36.265625-6.773438-10.480469-12.679688-21.496093-17.664063-32.9375-14.675781-37.460937-18.175781-87.722656 13.140625-117.761719 14.414063-13.261718 32.9375-21.179687 52.480469-22.441406h.171875c20.40625-1.753906 40.863281 2.769532 58.625 12.972656.082031.082032.167969.167969.253906.167969 1.792969 1.109375 3.585938 2.21875 5.292969 3.414063.167969.085937.59375.425781 1.363281.9375 2.519531 1.769531 4.917969 3.707031 7.167969 5.804687.257812-.171875.425781-.425781.683594-.511719 15.417968-13.261718 34.675781-21.246093 54.953125-22.785156h.171875c25.292968-2.742187 50.554687 5.417969 69.460937 22.441406 29.953125 28.757813 28.160157 75.863282 15.191407 112.726563zm0 0" fill="#e8edfc"/><path d="m268.019531 155.167969c-6.484375 13.910156-15.359375 26.285156-22.527343 39.851562-9 16.082031-14.90625 33.710938-17.40625 51.96875-1.726563 19.683594-5.007813 39.203125-9.816407 58.367188-2.984375 11.007812-7.421875 26.710937-17.664062 33.109375-13.652344-11.773438-22.953125-56.488282-27.988281-92.328125-3.328126-23.980469-14.421876-28.757813-23.210938-29.78125h-.085938c-3.070312-.171875-4.691406-.257813-7.933593-.34375-3.242188-.085938-5.632813.171875-9.046875.34375h-.085938c-8.789062 1.023437-19.796875 5.800781-23.210937 29.78125-5.035157 35.839843-14.335938 80.46875-27.902344 92.242187-10.324219-6.3125-14.761719-22.015625-17.664063-33.023437-4.835937-19.164063-8.148437-38.679688-9.898437-58.367188-2.433594-18.261719-8.3125-35.898437-17.324219-51.96875-2.386718-4.523437-5.035156-8.960937-7.679687-13.3125 13.917969-22.714843 38.722656-36.480469 65.367187-36.265625 59.730469 0 51.199219 25.601563 110.933594 25.601563 21.941406-.691407 43.480469-6.105469 63.144531-15.875zm0 0" fill="#e8edfc"/><path d="m270.835938 148.769531c-.851563 2.132813-1.792969 4.265625-2.816407 6.398438-19.664062 9.769531-41.203125 15.183593-63.144531 15.875-59.734375 0-51.203125-25.601563-110.933594-25.601563-26.644531-.214844-51.449218 13.550782-65.367187 36.265625-6.773438-10.480469-12.679688-21.496093-17.664063-32.9375-14.675781-37.460937-18.175781-87.722656 13.140625-117.761719 14.414063-13.261718 32.9375-21.179687 52.480469-22.441406h.171875c18.515625 1.621094 36.523437-.339844 50.773437 10.753906 1.707032 1.621094 12.117188-14.082031 13.398438-13.058593 2.644531-2.472657-2.988281 20.90625 0 18.859375.167969.085937.59375.425781 1.363281.9375 1.621094 1.027344 4.351563 2.730468 7.851563 5.292968 15.417968-13.261718 34.675781-21.246093 54.953125-22.785156h.171875c19.523437 1.246094 38.023437 9.167969 52.394531 22.441406 31.316406 30.039063 27.902344 80.300782 13.226563 117.761719zm0 0" fill="#fff"/><path d="m455.582031 396.664062-269.824219 72.277344c-19.003906 5.109375-39.039062-3.460937-48.46875-20.738281-1.613281-2.96875-2.875-6.121094-3.753906-9.386719-6.0625-22.710937 7.417969-46.042968 30.121094-52.136718l258.21875-69.207032 11.605469-3.15625zm0 0" fill="#e8edfc"/><path d="m438.515625 379.597656-269.824219 72.277344c-10.546875 2.878906-21.800781 1.5625-31.402344-3.671875-1.613281-2.96875-2.875-6.121094-3.753906-9.386719-6.0625-22.710937 7.417969-46.042968 30.121094-52.136718l258.21875-69.207032zm0 0" fill="#fff"/><path d="m455.582031 396.664062c-22.390625 5.984376-45.460937-7.019531-51.933593-29.273437-6.476563-22.253906 6.019531-45.601563 28.125-52.5625.511718-.171875 1.109374-.339844 1.707031-.511719 14.949219-4.679687 31.257812-.792968 42.488281 10.125 11.230469 10.917969 15.578125 27.109375 11.320312 42.183594-4.253906 15.074219-16.425781 26.605469-31.707031 30.039062zm0 0" fill="#7facfa"/><path d="m431.6875 396.152344c-17.703125-5.652344-29.714844-22.109375-29.695312-40.695313.019531-18.582031 12.066406-35.015625 29.78125-40.628906 17.707031 5.648437 29.71875 22.109375 29.699218 40.691406-.019531 18.585938-12.066406 35.019531-29.785156 40.632813zm0 0" fill="#a4c2f7"/><path d="m28.574219 181.707031c2.644531 4.351563 5.292969 8.789063 7.679687 13.3125 9.011719 16.070313 14.890625 33.707031 17.324219 51.96875 1.75 19.6875 5.0625 39.203125 9.898437 58.367188 2.902344 11.007812 7.339844 26.710937 17.664063 33.023437 2.992187 2.027344 6.542969 3.070313 10.152344 2.988282 4.472656-.574219 8.398437-3.242188 10.582031-7.183594-6.378906-8.523438-10.757812-18.378906-12.800781-28.828125-4.835938-19.164063-8.144531-38.679688-9.898438-58.367188-2.429687-18.261719-8.308593-35.898437-17.320312-51.96875-2.390625-4.523437-5.035157-8.960937-7.679688-13.3125-6.773437-10.480469-12.679687-21.496093-17.664062-32.9375-14.679688-37.460937-18.175781-87.722656 13.140625-117.761719 13.328125-12.308593 30.265625-20 48.308594-21.9375-7.050782-.910156-14.175782-1.078124-21.257813-.503906h-.171875c-19.542969 1.261719-38.066406 9.179688-52.480469 22.441406-31.316406 30.039063-27.816406 80.300782-13.140625 117.761719 4.984375 11.441407 10.890625 22.457031 17.664063 32.9375zm0 0" fill="#fff"/><path d="m152.050781 389.75-117.929687 31.574219c-13.910156 3.753906-25.515625 20.566406-25.515625 39.253906-.019531 3.832031.464843 7.648437 1.453125 11.347656.839844 3.25 2.101562 6.378907 3.753906 9.300781 12.125 22.1875 48.945312 20.695313 48.46875 20.824219l2.097656-.5625c-10.636718-3.25-19.59375-10.519531-24.96875-20.261719-1.648437-2.921874-2.910156-6.050781-3.753906-9.300781-.984375-3.699219-1.472656-7.515625-1.449219-11.347656 0-18.6875 11.605469-35.5 25.515625-39.253906" fill="#fff"/><path d="m11.535156 152.234375c-7.1875-18.214844-11.070312-37.570313-11.4609372-57.148437-.5781248-20.371094 5.0781252-40.433594 16.2109372-57.503907 16.734375-22.789062 43.054688-36.570312 71.316406-37.34375 27.75-1.695312 55.066407 7.523438 76.117188 25.695313l-11.503906 12.601562c-17.683594-15.066406-40.523438-22.6875-63.710938-21.253906-23 .484375-44.488281 11.5625-58.222656 30.019531-9.113281 14.191407-13.699219 30.824219-13.140625 47.683594.371094 17.476563 3.835937 34.753906 10.238281 51.019531zm0 0" fill="#fff"/><g fill="#428dff"><path d="m18.90625 114.902344c-.863281-4.476563-5-7.550782-9.53125-7.09375-2.3125.25-4.414062 1.449218-5.800781 3.316406-1.390625 1.863281-1.9375 4.222656-1.511719 6.507812 1.9375 11.832032 5.113281 23.429688 9.472656 34.601563 4.554688 10.796875 10.035156 21.183594 16.382813 31.035156 3.199219 5.289063 6.417969 10.582031 9.386719 16.09375 8.53125 15.136719 14.089843 31.765625 16.375 48.992188 1.804687 20.085937 5.183593 40.003906 10.113281 59.5625 3.984375 14.796875 11.40625 42.332031 36.035156 42.332031 7.183594 0 29.011719 0 43.324219-102.570312 2.78125-19.625 10.667968-21.8125 14.8125-22.347657 4.148437.535157 12.03125 2.695313 14.804687 22.332031 14.3125 102.585938 36.148438 102.585938 43.316407 102.585938 24.636718 0 32.058593-27.535156 36.027343-42.265625 4.96875-19.589844 8.363281-39.550781 10.148438-59.683594 2.296875-17.203125 7.859375-33.8125 16.390625-48.929687 2.925781-5.503906 6.136718-10.785156 9.328125-16.066406 6.355469-9.859376 11.847656-20.253907 16.410156-31.0625.742187-1.894532 1.433594-3.855469 2.125-5.820313.039063-.097656.078125-.203125.109375-.304687 13.558594-38.84375 15.648438-89.21875-17.417969-120.902344-33.664062-32.316406-93.21875-33.5-131.328125-3.949219-20.242187-15.015625-45.113281-22.457031-70.277344-21.027344-28.261718.773438-54.582031 14.554688-71.316406 37.34375-1.875 2.558594-3.316406 5.398438-4.980468 8.097657-1.175782 2.054687-1.417969 4.511718-.667969 6.753906.753906 2.246094 2.425781 4.0625 4.601562 4.996094 4.105469 1.703124 8.839844.117187 11.09375-3.714844 1.347657-2.121094 2.457031-4.410156 3.949219-6.421875 13.734375-18.457031 35.222656-29.539063 58.222656-30.023438 23.1875-1.429687 46.027344 6.191407 63.710938 21.257813l.074218-.085938c.171876.164063.257813.375.453126.519532.351562.285156 35.269531 27.625 43.992187 57.328124 1.0625 3.636719 4.398437 6.136719 8.191406 6.136719.808594 0 1.617188-.117187 2.398438-.34375 2.171875-.632812 4.003906-2.105469 5.089843-4.09375 1.085938-1.984375 1.339844-4.320312.703126-6.496093-7.46875-25.402344-29.578126-48.023438-41.703126-59.03125 31.453126-21.898438 79.515626-20.371094 105.984376 5.042968 26.46875 25.410156 25.003906 67.0625 14.003906 100.351563-20.207032 11.589843-49.273438 24.628906-77.996094 24.628906-17.988281.898437-35.871094-3.222656-51.652344-11.90625-18.132812-9.898437-38.640625-14.625-59.28125-13.660156-24.925781-.40625-48.695312 10.5-64.648437 29.660156-4.003907-6.570313-7.484375-13.453125-10.402344-20.574219-3.914063-10.042968-6.769531-20.464844-8.515625-31.101562zm83.566406 39.082031c17.988282-.902344 35.875 3.21875 51.652344 11.902344 18.132812 9.914062 38.640625 14.648437 59.28125 13.695312 23.214844-.761719 46-6.46875 66.832031-16.742187-2.183593 3.851562-4.46875 7.679687-6.824219 11.613281-3.355468 5.558594-6.726562 11.09375-9.804687 16.890625-9.546875 17.011719-15.753906 35.6875-18.289063 55.03125-1.691406 19.261719-4.921874 38.363281-9.648437 57.113281-3.867187 14.359375-8.894531 29.695313-19.550781 29.695313-4.695313-.570313-17.347656-22.808594-26.453125-87.894532-3.199219-22.671874-13.535157-35.140624-30.722657-37.050781-.328124.015625-.660156.046875-.988281.09375-.332031-.046875-.667969-.078125-1.007812-.09375-17.175781 1.910157-27.511719 14.371094-30.71875 37.070313-9.070313 65.117187-21.71875 87.328125-26.453125 87.890625-10.667969 0-15.683594-15.359375-19.574219-29.761719-4.667969-18.742188-7.863281-37.816406-9.558594-57.054688-2.539062-19.34375-8.753906-38.027343-18.304687-55.039062-1.636719-3.074219-3.464844-5.976562-5.222656-8.996094 12.664062-17.984375 33.363281-28.59375 55.355468-28.363281zm0 0"/><path d="m.796875 81.363281c-.242187 2.375.453125 4.75 1.929687 6.625l1.253907 1.132813c.464843.355468.976562.640625 1.519531.855468.472656.265626.988281.460938 1.519531.570313.5625.109375 1.132813.183594 1.707031.222656 2.230469.023438 4.394532-.742187 6.109376-2.167969.785156-.734374 1.457031-1.582031 1.988281-2.519531 1.476562-2.84375 1.1875-6.28125-.742188-8.839843-.699219-.859376-1.539062-1.589844-2.484375-2.167969-.9375-.605469-1.984375-1.03125-3.078125-1.253907-2.242187-.402343-4.546875.121094-6.394531 1.453126-1.894531 1.488281-3.097656 3.691406-3.328125 6.089843zm0 0"/><path d="m71.085938 55.867188c4.136718-2.265626 5.648437-7.457032 3.382812-11.589844-2.269531-4.132813-7.457031-5.644532-11.589844-3.378906-22.058594 12.796874-33.277344 38.410156-27.734375 63.300781.835938 3.945312 4.316407 6.765625 8.347657 6.769531.59375-.003906 1.1875-.0625 1.773437-.179688 2.214844-.46875 4.152344-1.800781 5.386719-3.699218 1.234375-1.898438 1.664062-4.207032 1.191406-6.421875-3.972656-17.527344 3.796875-35.617188 19.242188-44.800781zm0 0"/><path d="m483.203125 119.5c-11.984375-6.242188-19.933594-18.191406-21.058594-31.660156 1.128907-13.460938 9.078125-25.410156 21.058594-31.648438 3.964844-2.554687 5.101563-7.835937 2.550781-11.796875-2.554687-3.960937-7.835937-5.101562-11.800781-2.546875-16.957031 9.28125-27.886719 26.695313-28.875 46.003906.988281 19.308594 11.917969 36.726563 28.875 46.011719 11.988281 6.234375 19.9375 18.183594 21.054687 31.648438-1.125 13.464843-9.070312 25.414062-21.054687 31.660156-16.960937 9.277344-27.890625 26.691406-28.875 46.003906.984375 19.304688 11.917969 36.722657 28.875 46 2.570313 1.652344 5.824219 1.8125 8.535156.414063 2.714844-1.398438 4.480469-4.136719 4.625-7.183594.148438-3.050781-1.339843-5.945312-3.910156-7.597656-11.984375-6.238282-19.933594-18.1875-21.058594-31.652344 1.125-13.46875 9.074219-25.417969 21.058594-31.65625 16.957031-9.277344 27.886719-26.6875 28.871094-45.988281-.976563-19.3125-11.90625-36.730469-28.871094-46.011719zm0 0"/><path d="m398.203125 197.152344c-16.960937 9.28125-27.890625 26.695312-28.867187 46.003906.980468 19.308594 11.910156 36.722656 28.867187 46.003906 2.566406 1.652344 5.816406 1.8125 8.527344.417969 2.714843-1.394531 4.476562-4.132813 4.625-7.175781.152343-3.046875-1.335938-5.941406-3.902344-7.59375-11.984375-6.238282-19.929687-18.1875-21.050781-31.652344 1.121094-13.464844 9.066406-25.417969 21.050781-31.65625 16.964844-9.277344 27.898437-26.695312 28.871094-46.003906-.976563-19.308594-11.90625-36.722656-28.871094-45.996094-11.984375-6.238281-19.933594-18.191406-21.050781-31.660156 1.121094-13.460938 9.070312-25.402344 21.050781-31.640625 2.566406-1.652344 4.054687-4.546875 3.902344-7.59375-.148438-3.046875-1.910157-5.78125-4.625-7.175781-2.710938-1.394532-5.960938-1.234376-8.527344.417968-16.957031 9.28125-27.886719 26.695313-28.867187 46.003906.980468 19.308594 11.90625 36.726563 28.867187 46.011719 11.988281 6.234375 19.933594 18.183594 21.054687 31.648438-1.125 13.460937-9.074218 25.402343-21.054687 31.640625zm0 0"/><path d="m470.089844 311.21875c-11.730469-6.828125-25.710938-8.671875-38.808594-5.121094-1.230469.332032-2.417969.75-3.601562 1.171875-.328126-.003906-.652344.015625-.972657.058594l-394.796875 105.785156c-20.4375 5.488281-37.632812 32.734375-30.054687 61.007813 3.503906 13.105468 12.070312 24.285156 23.816406 31.078125 11.75 6.789062 25.710937 8.632812 38.820313 5.128906l388.699218-104.191406c.367188-.152344.71875-.328125 1.058594-.53125 1.171875-.230469 2.339844-.382813 3.507812-.699219 19.980469-5.355469 34.765626-22.214844 37.464844-42.722656 2.699219-20.507813-7.21875-40.625-25.132812-50.964844zm-74.972656 57.523438c3.292968 12.175781 11 22.6875 21.621093 29.492187l-233.199219 62.480469c-11.828124 3.359375-24.554687.085937-33.292968-8.566406-8.738282-8.652344-12.140625-21.34375-8.894532-33.207032 3.242188-11.863281 12.625-21.058594 24.550782-24.0625l233.070312-62.445312c-5.734375 11.207031-7.109375 24.144531-3.855468 36.308594zm-335.046876 125.054687c-18.171874 4.832031-36.832031-5.941406-41.726562-24.097656-4.890625-18.234375 5.84375-36.839844 17.988281-40.105469l92.816407-24.875c-11.90625 23.242188-4.199219 51.722656 17.800781 65.792969zm413.953126-121.257813c-7.710938 13.359376-23.429688 19.875-38.328126 15.882813-14.898437-3.992187-25.257812-17.492187-25.257812-32.917969 0-15.421875 10.363281-28.921875 25.261719-32.910156 2.894531-.777344 5.878906-1.175781 8.875-1.179688 12.164062.027344 23.394531 6.53125 29.464843 17.070313 6.074219 10.542969 6.066407 23.519531-.015624 34.054687zm0 0"/><path d="m170.738281 102.785156c0 4.710938-3.820312 8.53125-8.53125 8.53125-4.714843 0-8.535156-3.820312-8.535156-8.53125 0-4.714844 3.820313-8.535156 8.535156-8.535156 4.710938 0 8.53125 3.820312 8.53125 8.535156zm0 0"/><path d="m128.074219 119.851562c0 4.710938-3.820313 8.53125-8.535157 8.53125-4.710937 0-8.53125-3.820312-8.53125-8.53125 0-4.714843 3.820313-8.535156 8.53125-8.535156 4.714844 0 8.535157 3.820313 8.535157 8.535156zm0 0"/><path d="m273.140625 128.382812c0 4.714844-3.820313 8.535157-8.535156 8.535157-4.710938 0-8.53125-3.820313-8.53125-8.535157 0-4.710937 3.820312-8.53125 8.53125-8.53125 4.714843 0 8.535156 3.820313 8.535156 8.53125zm0 0"/></g></svg>